<svg width="80" height="70" viewBox="0 0 80 70" fill="none" xmlns="http://www.w3.org/2000/svg">
<path d="M56.6119 12.0043C55.4226 16.0215 52.0901 16.5102 48.8592 15.5549C45.6282 14.5996 43.0995 12.6908 44.2887 8.67363C45.478 4.65644 52.2967 3.12806 52.2967 3.12806C52.2967 3.12806 57.8012 7.98712 56.6119 12.0043Z" fill="#FFD86B" stroke="#FF7775" stroke-width="4.8041" stroke-miterlimit="10"/>
<path d="M-0.353058 23.4766C2.29854 26.7203 4.93781 26.0063 7.54711 23.8748C10.1564 21.7433 11.7492 19.0045 9.09755 15.7608C6.44596 12.5172 -0.432773 13.7474 -0.432773 13.7474C-0.432773 13.7474 -3.00465 20.233 -0.353058 23.4766Z" fill="#FFD86B" stroke="#FF7775" stroke-width="4.8041" stroke-miterlimit="10"/>
<path d="M74.3279 57.92L68.0636 26.8159C67.7103 25.0601 66.9011 23.4282 65.7175 22.0841C64.5338 20.74 63.0173 19.7311 61.3203 19.1586L31.259 9.03446C29.5612 8.4617 27.7425 8.34639 25.986 8.70015C24.2295 9.05391 22.5971 9.86424 21.2534 11.0495L-2.54542 32.0208C-3.88852 33.2056 -4.89623 34.7229 -5.46732 36.4204C-6.03842 38.1179 -6.15279 39.9358 -5.79896 41.6914L0.465278 72.7956C0.817782 74.5517 1.62662 76.184 2.81039 77.5283C3.99416 78.8725 5.5111 79.8812 7.20857 80.4529L37.2699 90.577C38.9677 91.1498 40.7864 91.2651 42.5429 90.9113C44.2995 90.5576 45.9318 89.7472 47.2755 88.5619L71.0743 67.5906C72.4182 66.4064 73.4264 64.8892 73.9975 63.1915C74.5687 61.4939 74.6826 59.6757 74.3279 57.92Z" fill="#FFD86B" stroke="#FF7775" stroke-width="4.8041" stroke-miterlimit="10"/>
<path d="M35.8177 57.5177C43.46 55.9786 48.4077 48.5355 46.8686 40.8932C45.3294 33.2508 37.8863 28.3032 30.244 29.8423C22.6016 31.3814 17.654 38.8245 19.1931 46.4669C20.7322 54.1092 28.1753 59.0569 35.8177 57.5177Z" fill="white" stroke="#FF7775" stroke-width="4.8041" stroke-miterlimit="10"/>
<path d="M56.396 55.3445C54.6246 58.8962 52.066 61.9969 48.9152 64.4104C45.7643 66.8239 42.1043 68.4865 38.2137 69.2717C36.967 69.5241 35.7038 69.687 34.4338 69.7592" stroke="#FF7775" stroke-width="4.8041" stroke-linecap="round" stroke-linejoin="round"/>
<path d="M28.3826 47.6736C30.0051 47.3468 31.0554 45.7667 30.7287 44.1443C30.4019 42.5219 28.8218 41.4715 27.1994 41.7983C25.577 42.125 24.5266 43.7051 24.8534 45.3276C25.1801 46.95 26.7602 48.0003 28.3826 47.6736Z" fill="#E4817A"/>
<path d="M38.7889 45.5776C40.4113 45.2509 41.4617 43.6708 41.1349 42.0483C40.8082 40.4259 39.2281 39.3756 37.6056 39.7023C35.9832 40.0291 34.9329 41.6092 35.2596 43.2316C35.5864 44.854 37.1665 45.9044 38.7889 45.5776Z" fill="#E4817A"/>
</svg>
