<svg width="364" height="69" viewBox="0 0 364 69" fill="none" xmlns="http://www.w3.org/2000/svg">
<mask id="mask0_1692:4827" style="mask-type:alpha" maskUnits="userSpaceOnUse" x="0" y="0" width="364" height="69">
<rect width="364" height="69" rx="15" fill="#FF7775"/>
</mask>
<g mask="url(#mask0_1692:4827)">
<path d="M355.792 60.9814L348.973 62.5698L350.72 70.0606L357.539 68.4722L355.792 60.9814Z" fill="#FFEDBA"/>
<path d="M302.13 5.00001L293 5.47925L293.495 14.8925L302.625 14.4133L302.13 5.00001Z" fill="#FFD86B"/>
<path d="M327.803 -0.677246H320.859V2.85046H327.803V-0.677246Z" fill="#FFD86B"/>
<path d="M332.868 40.1987L325.312 44.9207L330.191 52.7172L337.747 47.9953L332.868 40.1987Z" fill="#FFD86B"/>
<path d="M351.598 -4.4253L344.637 -8.09277L340.805 -0.828404L347.767 2.83907L351.598 -4.4253Z" stroke="#FFD86B" stroke-width="1.60368" stroke-miterlimit="10"/>
<path d="M281.985 36.0001L276 36.2556L276.269 42.5453L282.253 42.2897L281.985 36.0001Z" fill="#D1DEFF"/>
<path d="M297.627 54.0766C299.066 54.0766 300.231 52.9115 300.231 51.4742C300.231 50.037 299.066 48.8718 297.627 48.8718C296.189 48.8718 295.023 50.037 295.023 51.4742C295.023 52.9115 296.189 54.0766 297.627 54.0766Z" fill="#AEC5FF"/>
<path d="M95.1104 18.1838L87.9219 15.7808L85.4256 23.2392L92.6141 25.6423L95.1104 18.1838Z" fill="#FFD86B"/>
<path d="M17.2567 20.7117L8.35156 20.3848L8.00109 29.9203L16.9063 30.2472L17.2567 20.7117Z" fill="#C2D3FF"/>
<path d="M62.8581 42.0024L66.793 44.8361L63.784 49.0578L59.8491 46.2241L62.8581 42.0024ZM62.4531 39.5735L61.4693 40.9614L58.4603 45.1831L57.4766 46.5711L58.8654 47.5542L62.8003 50.3879L64.1891 51.3711L65.1728 49.9831L68.1818 45.7614L69.1656 44.3735L67.7768 43.3904L63.8419 40.5566L62.4531 39.5735Z" fill="#C2D3FF"/>
<path d="M53.215 10.8343L45.1758 7.88403L42.2037 15.9727L50.243 18.923L53.215 10.8343Z" fill="#FFEFC2"/>
<path d="M71.9438 0.132307C73.382 0.132307 74.5478 -1.03283 74.5478 -2.4701C74.5478 -3.90737 73.382 -5.07251 71.9438 -5.07251C70.5057 -5.07251 69.3398 -3.90737 69.3398 -2.4701C69.3398 -1.03283 70.5057 0.132307 71.9438 0.132307Z" fill="#F0E7FD"/>
<path d="M28.832 46.4556H26.3438V50.3881H28.832V46.4556Z" fill="#F0E7FD"/>
</g>
</svg>
