<svg width="86" height="96" viewBox="0 0 86 96" fill="none" xmlns="http://www.w3.org/2000/svg">
<path d="M74.2027 13.1437C72.1226 17.0757 68.5515 16.8858 65.3887 15.2142C62.2259 13.5426 59.9939 11.0256 62.074 7.09355C64.154 3.16146 71.5718 3 71.5718 3C71.5718 3 76.2827 9.21156 74.2027 13.1437Z" stroke="#FF7775" stroke-width="5.77778" stroke-miterlimit="10"/>
<path d="M12.4862 13.1437C14.5662 17.0757 17.463 16.8858 20.6258 15.2142C23.7885 13.5426 26.0205 11.0256 23.9405 7.09355C21.8605 3.16146 14.4427 3 14.4427 3C14.4427 3 10.4061 9.21156 12.4862 13.1437Z" stroke="#FF7775" stroke-width="5.77778" stroke-miterlimit="10"/>
<path d="M83 64.6509V30.9622C83.0003 29.0606 82.5001 27.1924 81.5499 25.5452C80.5996 23.8981 79.2326 22.53 77.5862 21.5784L48.4185 4.73875C46.7714 3.78668 44.9025 3.2854 43 3.2854C41.0975 3.2854 39.2286 3.78668 37.5815 4.73875L8.41375 21.5784C6.76739 22.53 5.40042 23.8981 4.45014 25.5452C3.49987 27.1924 2.99975 29.0606 3 30.9622V64.6509C2.99878 66.5527 3.4985 68.4213 4.44888 70.0686C5.39925 71.7159 6.76674 73.0838 8.41375 74.0347L37.5815 90.8743C39.2286 91.8264 41.0975 92.3277 43 92.3277C44.9025 92.3277 46.7714 91.8264 48.4185 90.8743L77.5862 74.0347C79.2333 73.0838 80.6008 71.7159 81.5511 70.0686C82.5015 68.4213 83.0012 66.5527 83 64.6509Z" stroke="#FF7775" stroke-width="5.77778" stroke-miterlimit="10"/>
<path d="M31.1094 30.3295C31.9013 27.3203 35.8065 21.4511 45.0922 22.0485C56.6993 22.7951 57.1744 39.1113 49.9794 40.6046C42.7843 42.0979 39.1188 46.8493 40.205 53.4079C41.6168 61.9334 41.6983 62.1189 41.5625 61.146" stroke="#FF7775" stroke-width="5.77778" stroke-linecap="round"/>
<path d="M40.7372 72.7794C40.3028 70.2815 42.14 69.8833 43.113 69.9965C46.3033 68.9783 47.6606 74.5443 45.2849 75.4267C42.9092 76.3091 41.2803 75.9018 40.7372 72.7794Z" stroke="#FF7775" stroke-width="5.77778" stroke-linecap="round"/>
</svg>
