<svg width="106" height="106" viewBox="0 0 106 106" fill="none" xmlns="http://www.w3.org/2000/svg">
<path d="M0 9.70992C0 4.34728 4.34728 0 9.70992 0H106V106H9.70992C4.34728 106 0 101.653 0 96.2901V9.70992Z" fill="#F8F8F8"/>
<path d="M76.6433 38.3163C76.6433 31.026 71.0727 23 65.9896 23C60.9065 23 55.3359 31.026 55.3359 38.3163C55.3359 44.5364 58.8872 48.215 63.6221 49.0844L63.4132 54.3682C62.1599 54.4351 61.1154 55.4384 61.0457 56.7091L60.3494 81.0546C60.2798 84.0644 62.7865 86.6059 65.9896 86.6059C69.123 86.6059 71.6994 84.1312 71.5601 81.0546L70.8638 56.7091C70.8638 55.4384 69.8193 54.502 68.4963 54.3682L68.2875 49.0844C73.092 48.1481 76.6433 44.5364 76.6433 38.3163Z" fill="#FFD86B"/>
<path d="M48.788 23H48.3702C47.3953 23 46.5598 23.8026 46.5598 24.739L46.699 37.915C46.699 38.8513 45.9331 39.6539 44.8886 39.6539C43.9138 39.6539 43.1478 38.9182 43.0782 37.9818L42.73 24.6721C42.73 23.7357 41.8944 23 40.9196 23H40.4322C39.4573 23 38.6914 23.7357 38.6217 24.6721L38.2736 37.9818C38.2736 38.9182 37.438 39.6539 36.4632 39.6539C35.4883 39.6539 34.6527 38.8513 34.6527 37.915L34.792 24.739C34.792 23.8026 34.026 23 32.9816 23H32.5638C31.5889 23 30.823 23.7357 30.7533 24.6721L30.1963 41.4598C30.057 44.8708 32.9119 47.7468 36.5328 47.7468H38.3432L38.1343 54.3013C36.8809 54.3682 35.8365 55.3715 35.7668 56.6423L35.0705 80.9877C35.0009 83.9975 37.5076 86.539 40.6411 86.539C43.7745 86.539 46.3509 84.0644 46.2812 80.9877L45.5849 56.6423C45.5849 55.3715 44.5404 54.4351 43.2174 54.3013L43.0085 47.7468H44.819C48.3702 47.7468 51.2251 44.9377 51.1555 41.4598L50.5288 24.6721C50.5288 23.7357 49.6932 23 48.788 23Z" fill="#FFD86B"/>
</svg>
