<svg width="47" height="30" viewBox="-25 -20 100 100" fill="none" xmlns="http://www.w3.org/2000/svg">
<path d="M46.4519 15.3163C46.4519 8.02598 40.8813 0 35.7982 0C30.7151 0 25.1445 8.02598 25.1445 15.3163C25.1445 21.5364 28.6958 25.215 33.4307 26.0844L33.2218 31.3682C31.9684 31.4351 30.924 32.4384 30.8543 33.7091L30.158 58.0546C30.0884 61.0644 32.5951 63.6059 35.7982 63.6059C38.9316 63.6059 41.508 61.1312 41.3687 58.0546L40.6724 33.7091C40.6724 32.4384 39.6279 31.502 38.3049 31.3682L38.096 26.0844C42.9006 25.1481 46.4519 21.5364 46.4519 15.3163Z" fill="#FFD86B"/>
<path d="M18.5966 0H18.1788C17.2039 0 16.3684 0.802598 16.3684 1.73896L16.5076 14.915C16.5076 15.8513 15.7417 16.6539 14.6972 16.6539C13.7224 16.6539 12.9564 15.9182 12.8868 14.9818L12.5386 1.67208C12.5386 0.735715 11.703 0 10.7282 0H10.2408C9.26592 0 8.49997 0.735715 8.43034 1.67208L8.08218 14.9818C8.08218 15.9182 7.24659 16.6539 6.27175 16.6539C5.2969 16.6539 4.46132 15.8513 4.46132 14.915L4.60059 1.73896C4.60059 0.802598 3.83464 0 2.79016 0H2.37237C1.39752 0 0.631572 0.735715 0.56194 1.67208L0.00488643 18.4598C-0.134377 21.8708 2.72053 24.7468 6.34138 24.7468H8.15181L7.94291 31.3013C6.68954 31.3682 5.64506 32.3715 5.57543 33.6423L4.87911 57.9877C4.80948 60.9975 7.31623 63.539 10.4497 63.539C13.5831 63.539 16.1595 61.0644 16.0898 57.9877L15.3935 33.6423C15.3935 32.3715 14.349 31.4351 13.026 31.3013L12.8171 24.7468H14.6276C18.1788 24.7468 21.0337 21.9377 20.9641 18.4598L20.3374 1.67208C20.3374 0.735715 19.5018 0 18.5966 0Z" fill="#FFD86B"/>
</svg>
