<svg width="90" height="90" viewBox="0 0 90 90" fill="none" xmlns="http://www.w3.org/2000/svg">
<circle cx="45" cy="45" r="45" fill="#FF7775"/>
<path d="M59.7902 35.2938C59.7902 30.3941 56.1941 25 52.9127 25C49.6313 25 46.0352 30.3941 46.0352 35.2938C46.0352 39.4743 48.3277 41.9466 51.3843 42.531L51.2495 46.0821C50.4404 46.1271 49.7661 46.8013 49.7212 47.6554L49.2716 64.0176C49.2267 66.0404 50.8449 67.7486 52.9127 67.7486C54.9355 67.7486 56.5987 66.0854 56.5088 64.0176L56.0593 47.6554C56.0593 46.8013 55.385 46.172 54.5309 46.0821L54.3961 42.531C57.4977 41.9016 59.7902 39.4743 59.7902 35.2938Z" fill="white"/>
<path d="M41.8098 25H41.5401C40.9108 25 40.3714 25.5394 40.3714 26.1687L40.4613 35.0241C40.4613 35.6534 39.9668 36.1928 39.2925 36.1928C38.6632 36.1928 38.1688 35.6984 38.1238 35.0691L37.8991 26.1238C37.8991 25.4945 37.3596 25 36.7303 25H36.4157C35.7863 25 35.2919 25.4945 35.2469 26.1238L35.0222 35.0691C35.0222 35.6984 34.4828 36.1928 33.8534 36.1928C33.2241 36.1928 32.6847 35.6534 32.6847 35.0241L32.7746 26.1687C32.7746 25.5394 32.2802 25 31.6059 25H31.3362C30.7069 25 30.2124 25.4945 30.1675 26.1238L29.8078 37.4065C29.7179 39.699 31.5609 41.6319 33.8984 41.6319H35.0671L34.9323 46.0372C34.1232 46.0821 33.4489 46.7564 33.4039 47.6104L32.9544 63.9727C32.9095 65.9955 34.5277 67.7036 36.5505 67.7036C38.5733 67.7036 40.2365 66.0404 40.1916 63.9727L39.7421 47.6104C39.7421 46.7564 39.0678 46.1271 38.2137 46.0372L38.0789 41.6319H39.2476C41.5401 41.6319 43.3831 39.744 43.3381 37.4065L42.9336 26.1238C42.9336 25.4945 42.3942 25 41.8098 25Z" fill="white"/>
</svg>
