<svg width="250" height="250" viewBox="0 0 250 250" fill="none" xmlns="http://www.w3.org/2000/svg">
<rect width="250" height="250" rx="67" fill="white"/>
<path d="M183.664 60.0292C179.762 67.4057 173.063 67.0494 167.129 63.9135C161.196 60.7776 157.009 56.0559 160.911 48.6794C164.813 41.3029 178.729 41 178.729 41C178.729 41 187.566 52.6527 183.664 60.0292Z" fill="#FFD86B" stroke="#FF7775" stroke-width="8.01793" stroke-miterlimit="10"/>
<path d="M67.9219 60.0292C71.824 67.4057 77.2583 67.0494 83.1916 63.9135C89.1249 60.7776 93.312 56.0559 89.4099 48.6794C85.5079 41.3029 71.5923 41 71.5923 41C71.5923 41 64.0198 52.6527 67.9219 60.0292Z" fill="#FFD86B" stroke="#FF7775" stroke-width="8.01793" stroke-miterlimit="10"/>
<path d="M200.199 156.654V93.4551C200.199 89.8877 199.261 86.383 197.479 83.293C195.696 80.203 193.131 77.6365 190.043 75.8513L135.325 44.2606C132.235 42.4746 128.729 41.5342 125.16 41.5342C121.591 41.5342 118.085 42.4746 114.995 44.2606L60.2771 75.8513C57.1886 77.6365 54.6242 80.203 52.8415 83.293C51.0588 86.383 50.1206 89.8877 50.1211 93.4551V156.654C50.1188 160.222 51.0563 163.727 52.8391 166.818C54.622 169.908 57.1874 172.474 60.2771 174.258L114.995 205.849C118.085 207.635 121.591 208.575 125.16 208.575C128.729 208.575 132.235 207.635 135.325 205.849L190.043 174.258C193.133 172.474 195.698 169.908 197.481 166.818C199.264 163.727 200.201 160.222 200.199 156.654Z" fill="#FFD86B" stroke="#FF7775" stroke-width="8.01793" stroke-miterlimit="10"/>
<path d="M125.167 140.725C140.695 140.725 153.283 128.137 153.283 112.609C153.283 97.0807 140.695 84.4927 125.167 84.4927C109.639 84.4927 97.0508 97.0807 97.0508 112.609C97.0508 128.137 109.639 140.725 125.167 140.725Z" fill="white" stroke="#FF7775" stroke-width="8.01793" stroke-miterlimit="10"/>
<path d="M166.201 144.573C161.346 150.812 155.131 155.861 148.029 159.334C140.927 162.808 133.127 164.615 125.221 164.618C122.687 164.621 120.157 164.442 117.648 164.084" stroke="#FF7775" stroke-width="8.01793" stroke-linecap="round" stroke-linejoin="round"/>
<path d="M114.516 118.578C117.812 118.578 120.485 115.906 120.485 112.609C120.485 109.313 117.812 106.64 114.516 106.64C111.219 106.64 108.547 109.313 108.547 112.609C108.547 115.906 111.219 118.578 114.516 118.578Z" fill="#E4817A"/>
<path d="M135.664 118.578C138.961 118.578 141.633 115.906 141.633 112.609C141.633 109.313 138.961 106.64 135.664 106.64C132.368 106.64 129.695 109.313 129.695 112.609C129.695 115.906 132.368 118.578 135.664 118.578Z" fill="#E4817A"/>
</svg>
