<svg width="46" height="40" viewBox="0 0 46 40" fill="none" xmlns="http://www.w3.org/2000/svg">
<path d="M19.6756 4.62948L19.6806 4.63409C20.2166 5.12337 20.8906 5.63238 21.7232 5.91664C22.6055 6.21784 23.5558 6.22929 24.5406 5.8882L24.5534 5.88375L24.5662 5.8791C25.4284 5.56534 26.0536 4.98735 26.4201 4.64852C26.4393 4.63075 26.4578 4.61362 26.4756 4.59724L26.4768 4.59612C29.6357 1.68248 34.2216 0.94417 37.9947 2.66852C41.9892 4.50237 44.4181 8.38613 44.2409 12.7097C44.1293 15.3836 43.2114 17.6958 41.3698 19.5526C36.7593 24.1902 32.1314 28.8182 27.497 33.4528C26.0077 34.9421 24.5178 36.432 23.0276 37.9232C21.4361 36.332 19.8424 34.7492 18.251 33.1686C13.6557 28.6046 9.07973 24.0597 4.63255 19.3888C3.01146 17.6821 2.12121 15.8527 1.84501 13.9739C1.56781 12.0883 1.89166 10.0316 2.89738 7.85465C4.74183 3.86246 8.00845 1.96849 11.9847 1.75969C15.2815 1.81225 17.6602 2.7751 19.6756 4.62948Z" stroke="#B8B8B8" stroke-width="3.5"/>
</svg>
