<svg width="46" height="40" viewBox="0 0 46 40" fill="none" xmlns="http://www.w3.org/2000/svg">
<path d="M11.9531 0.00905022C15.6658 0.0568865 18.4863 1.15712 20.8605 3.34165C21.7688 4.17081 22.7249 4.66512 23.9678 4.23459C24.4936 4.04325 24.892 3.6765 25.2903 3.30976C28.9553 -0.070677 34.2934 -0.947676 38.7232 1.07739C43.3443 3.19814 46.1966 7.72664 45.9894 12.7813C45.862 15.8429 44.7943 18.5855 42.6113 20.786C36.4605 26.9728 30.2779 33.1437 24.0952 39.3305C23.2507 40.1756 22.8364 40.2234 22.0875 39.4581C15.8252 33.1915 9.46725 27.0047 3.36428 20.5946C-0.316617 16.7199 -0.938068 11.9841 1.30872 7.12071C3.45989 2.46465 7.36388 0.232286 11.9531 0.00905022Z" fill="#FF7775"/>
</svg>
