<svg width="362" height="75" viewBox="0 0 362 75" fill="none" xmlns="http://www.w3.org/2000/svg">
<rect width="360.011" height="75" rx="15" fill="#FF7775"/>
<path d="M134.829 28.9836V45.2916H132.957V28.9836H134.829ZM126.171 30.1896C126.783 30.1896 127.341 30.3276 127.845 30.6036C128.361 30.8676 128.805 31.2516 129.177 31.7556C129.549 32.2476 129.837 32.8476 130.041 33.5556C130.257 34.2516 130.365 35.0376 130.365 35.9136C130.365 36.7896 130.257 37.5876 130.041 38.3076C129.837 39.0156 129.549 39.6156 129.177 40.1076C128.805 40.5996 128.361 40.9836 127.845 41.2596C127.341 41.5236 126.783 41.6556 126.171 41.6556C125.571 41.6556 125.013 41.5236 124.497 41.2596C123.993 40.9836 123.555 40.5996 123.183 40.1076C122.811 39.6156 122.517 39.0156 122.301 38.3076C122.097 37.5876 121.995 36.7896 121.995 35.9136C121.995 35.0376 122.097 34.2516 122.301 33.5556C122.517 32.8476 122.811 32.2476 123.183 31.7556C123.555 31.2516 123.993 30.8676 124.497 30.6036C125.013 30.3276 125.571 30.1896 126.171 30.1896ZM126.171 31.8636C125.451 31.8636 124.869 32.2236 124.425 32.9436C123.993 33.6516 123.777 34.6416 123.777 35.9136C123.777 37.2216 123.993 38.2296 124.425 38.9376C124.869 39.6456 125.451 39.9996 126.171 39.9996C126.891 39.9996 127.473 39.6456 127.917 38.9376C128.361 38.2296 128.583 37.2216 128.583 35.9136C128.583 34.6416 128.361 33.6516 127.917 32.9436C127.473 32.2236 126.891 31.8636 126.171 31.8636ZM151.765 41.3136H150.001V29.0016H151.765V41.3136ZM145.015 38.3616H138.661V30.2796H140.407V32.9076H143.287V30.2796H145.015V33.6096H146.851V29.3076H148.597V40.8276H146.851V35.1216H145.015V38.3616ZM143.287 34.3476H140.407V36.8856H143.287V34.3476ZM152.215 43.4376V44.9496H141.019V39.6936H142.891V43.4376H152.215ZM167.658 39.0816H156.39V30.3156H167.532V31.8096H158.28V33.8976H167.172V35.3556H158.28V37.5876H167.658V39.0816ZM169.314 41.7456V43.2576H154.572V41.7456H169.314ZM189.88 41.7456V43.2756H175.156V41.7456H181.564V38.4696H176.812V30.0816H178.648V32.8176H186.352V30.0816H188.188V38.4696H183.418V41.7456H189.88ZM178.648 36.9756H186.352V34.3116H178.648V36.9756ZM205.178 28.9656V45.2736H203.324V36.5976H200.48V35.0676H203.324V28.9656H205.178ZM194.108 39.9096C195.356 39.9096 196.502 39.8796 197.546 39.8196C198.602 39.7476 199.682 39.6156 200.786 39.4236L200.948 40.9356C200.336 41.0436 199.742 41.1336 199.166 41.2056C198.59 41.2656 198.002 41.3136 197.402 41.3496C196.814 41.3856 196.202 41.4096 195.566 41.4216C194.942 41.4336 194.276 41.4396 193.568 41.4396H192.29V34.8336H197.726V31.9356H192.254V30.4416H199.544V36.3276H194.108V39.9096ZM223.321 36.9576H220.855V45.2376H219.001V28.9836H220.855V35.4096H223.321V36.9576ZM216.607 30.7116C216.607 31.8876 216.475 33.0276 216.211 34.1316C215.947 35.2356 215.521 36.2796 214.933 37.2636C214.345 38.2476 213.589 39.1656 212.665 40.0176C211.741 40.8576 210.613 41.6136 209.281 42.2856L208.255 40.8636C212.215 38.8236 214.381 35.9436 214.753 32.2236H209.065V30.7116H216.607ZM238.242 29.0016V45.2556H236.388V29.0016H238.242ZM233.454 30.7116C233.454 31.9236 233.322 33.0876 233.058 34.2036C232.806 35.3076 232.38 36.3516 231.78 37.3356C231.192 38.3196 230.418 39.2376 229.458 40.0896C228.498 40.9296 227.322 41.6856 225.93 42.3576L224.94 40.8816C227.076 39.8496 228.672 38.6196 229.728 37.1916C230.784 35.7516 231.39 34.0956 231.546 32.2236H225.75V30.7116H233.454Z" fill="white"/>
<mask id="mask0_1692_4824" style="mask-type:alpha" maskUnits="userSpaceOnUse" x="0" y="0" width="362" height="75">
<rect width="362" height="75" rx="15" fill="#FF7775"/>
</mask>
<g mask="url(#mask0_1692_4824)">
<path d="M353.836 44.5451L347.055 46.2717L348.792 54.4139L355.574 52.6873L353.836 44.5451Z" fill="#FFEDBA"/>
<path d="M331.038 21.9553L323.523 27.0879L328.375 35.5624L335.889 30.4299L331.038 21.9553Z" fill="#FFD86B"/>
<path d="M280.436 17.3914L274.484 17.6692L274.752 24.5058L280.704 24.228L280.436 17.3914Z" fill="#D1DEFF"/>
<path d="M295.992 37.04C297.422 37.04 298.582 35.7735 298.582 34.2113C298.582 32.649 297.422 31.3826 295.992 31.3826C294.562 31.3826 293.402 32.649 293.402 34.2113C293.402 35.7735 294.562 37.04 295.992 37.04Z" fill="#AEC5FF"/>
<path d="M94.5866 -1.9739L87.4375 -4.58594L84.9549 3.52106L92.104 6.1331L94.5866 -1.9739Z" fill="#FFD86B"/>
<path d="M17.1609 0.773795L8.30469 0.418457L7.95614 10.7831L16.8124 11.1385L17.1609 0.773795Z" fill="#C2D3FF"/>
<path d="M62.5122 23.9158L66.4255 26.9959L63.4329 31.5847L59.5196 28.5045L62.5122 23.9158ZM62.1093 21.2756L61.131 22.7843L58.1385 27.3731L57.1602 28.8817L58.5413 29.9503L62.4546 33.0305L63.8358 34.0991L64.8141 32.5904L67.8066 28.0017L68.7849 26.493L67.4038 25.4244L63.4905 22.3443L62.1093 21.2756Z" fill="#C2D3FF"/>
<path d="M28.6738 28.7561H26.1992V33.0306H28.6738V28.7561Z" fill="#F0E7FD"/>
</g>
</svg>
