<svg width="21" height="23" viewBox="0 0 21 23" fill="none" xmlns="http://www.w3.org/2000/svg">
<path fill-rule="evenodd" clip-rule="evenodd" d="M19.9782 7.85169L7.84334 21.06C7.46386 21.4731 6.95461 21.7303 6.40859 21.7848L2.58052 22.1671C1.42334 22.2826 0.438675 21.3011 0.498702 20.0917L0.697334 16.0911C0.725671 15.5204 0.950023 14.9791 1.32952 14.5661L13.4643 1.35777C14.3376 0.407227 15.7844 0.373324 16.6959 1.28199L19.909 4.48527C20.8204 5.39396 20.8515 6.90113 19.9782 7.85169ZM2.42973 15.663C2.30325 15.8007 2.22848 15.9811 2.21902 16.1713L2.02044 20.1719C2.0084 20.4138 2.20534 20.6102 2.43676 20.587L6.26483 20.2047C6.44685 20.1865 6.61659 20.1008 6.74308 19.9631L15.38 10.5621L11.108 6.21703L2.42973 15.663ZM12.1622 5.0695L16.4343 9.41458L18.8779 6.75479C19.169 6.43793 19.1587 5.93556 18.8549 5.63264L15.6418 2.4294C15.3379 2.12651 14.8557 2.13782 14.5646 2.45464L12.1622 5.0695Z" fill="white"/>
</svg>
