<svg width="28" height="38" viewBox="0 0 28 38" fill="none" xmlns="http://www.w3.org/2000/svg">
<path d="M1.156 37.4606C0.513778 37.418 0 36.8646 0 36.1835V2.97982C0 1.3622 1.37007 0 2.99704 0H24.4044C26.0314 0 27.4015 1.3622 27.4015 2.97982V36.1835C27.4015 36.9072 26.8449 37.4606 26.117 37.4606C25.8601 37.4606 25.6033 37.3755 25.3892 37.2478L13.6579 29.2022L1.96948 37.2052C1.75541 37.3755 1.4557 37.4606 1.156 37.4606ZM2.52607 33.7145L12.9301 26.563C13.3582 26.265 13.9576 26.265 14.3858 26.563L24.7898 33.7145V2.93724C24.7898 2.68182 24.6185 2.51155 24.3616 2.51155H2.95422C2.69733 2.51155 2.52607 2.68182 2.52607 2.93724C2.52607 2.93724 2.52607 33.7145 2.52607 33.7145Z" fill="#B8B8B8"/>
</svg>
