<svg width="15" height="14" viewBox="0 0 15 14" fill="none" xmlns="http://www.w3.org/2000/svg">
<path d="M6.46441 1.7148L6.46441 1.7148L6.46585 1.71612C6.63739 1.87219 6.84875 2.0304 7.10697 2.11826C7.37924 2.21091 7.67259 2.21482 7.97874 2.10912L7.97876 2.10918L7.98605 2.10654C8.25332 2.0096 8.44784 1.83051 8.56781 1.72005C8.57368 1.71464 8.57938 1.7094 8.58489 1.70434L8.58524 1.70402C9.6357 0.738339 11.162 0.492481 12.4195 1.06527C13.7477 1.67293 14.5558 2.96056 14.497 4.39332C14.4601 5.27724 14.155 6.0456 13.5408 6.66272C12.0373 8.17001 10.5281 9.67421 9.0169 11.1805C8.51445 11.6813 8.01178 12.1823 7.509 12.6837C6.97364 12.15 6.43731 11.6191 5.90168 11.0889C4.4029 9.60526 2.90963 8.12709 1.45867 6.60821C0.92141 6.04442 0.624002 5.43731 0.531697 4.81152C0.439101 4.18376 0.547853 3.50217 0.880385 2.78477C1.49383 1.46144 2.5845 0.831865 3.90672 0.763372C4.99911 0.780269 5.79279 1.09891 6.46441 1.7148Z" stroke="#B8B8B8"/>
</svg>
