<svg width="1488" height="930" viewBox="0 0 1488 930" fill="none" xmlns="http://www.w3.org/2000/svg">
<g clip-path="url(#clip0_2416_4780)">
<rect width="1488" height="930" fill="white"/>
<path d="M1071.08 617.884C1399.48 541.084 1532.24 675.884 1557.58 752.884L1541.08 967.384H-88.9216C-118.255 912.218 -156.522 782.184 -74.9216 703.384C27.0784 604.884 258.078 617.884 427.578 681.384C597.078 744.884 660.578 713.884 1071.08 617.884Z" fill="#FFF7E0" fill-opacity="0.3"/>
<path opacity="0.3" d="M121.5 545.054C1.10001 542.254 -135.667 649.221 -189 703.054L-175.5 1031.05L1566.5 1076.05C1642.67 871.054 1744.6 501.654 1543 664.054C1291 867.054 1070.5 744.054 961 664.054C851.5 584.054 762 564.554 543.5 615.054C325 665.554 272 548.554 121.5 545.054Z" fill="#FFE499"/>
<path d="M288.076 675.82C105 577.5 28.8424 708.227 -6 788.306V949H1557.91V893.561C1559.24 808.125 1546.8 659.59 1486.39 748.936C1410.87 860.618 1171.31 827.676 1038.27 767.416C905.237 707.156 844.721 675.82 705.185 767.416C565.649 859.012 489.455 783.969 288.076 675.82Z" fill="#FFE499"/>
<g clip-path="url(#clip1_2416_4780)">
<path d="M117.562 68.6779C116.1 71.45 113.588 71.316 111.364 70.1376C109.14 68.9591 107.571 67.1848 109.033 64.4127C110.496 61.6407 115.712 61.5269 115.712 61.5269C115.712 61.5269 119.025 65.9059 117.562 68.6779Z" fill="#FFD86B" stroke="#FF7775" stroke-width="3.32528" stroke-miterlimit="10"/>
<path d="M74.1727 68.6779C75.6354 71.45 77.6725 71.316 79.8966 70.1376C82.1207 68.9591 83.6902 67.1848 82.2275 64.4127C80.7648 61.6407 75.5486 61.5269 75.5486 61.5269C75.5486 61.5269 72.71 65.9059 74.1727 68.6779Z" fill="#FFD86B" stroke="#FF7775" stroke-width="3.32528" stroke-miterlimit="10"/>
<path d="M123.757 104.988V81.2386C123.757 79.898 123.406 78.581 122.737 77.4198C122.069 76.2586 121.108 75.2941 119.95 74.6232L99.4389 62.7516C98.2806 62.0804 96.9664 61.7271 95.6285 61.7271C94.2907 61.7271 92.9764 62.0804 91.8182 62.7516L71.307 74.6232C70.1493 75.2941 69.188 76.2586 68.5198 77.4198C67.8515 78.581 67.4998 79.898 67.5 81.2386V104.988C67.4991 106.329 67.8506 107.646 68.5189 108.808C69.1872 109.969 70.1488 110.933 71.307 111.604L91.8182 123.475C92.9764 124.147 94.2907 124.5 95.6285 124.5C96.9664 124.5 98.2806 124.147 99.4389 123.475L119.95 111.604C121.108 110.933 122.07 109.969 122.738 108.808C123.407 107.646 123.758 106.329 123.757 104.988Z" fill="#FFD86B" stroke="#FF7775" stroke-width="3.32528" stroke-miterlimit="10"/>
<path d="M95.6332 99.0024C101.454 99.0024 106.173 94.2719 106.173 88.4365C106.173 82.6011 101.454 77.8706 95.6332 77.8706C89.8124 77.8706 85.0938 82.6011 85.0938 88.4365C85.0938 94.2719 89.8124 99.0024 95.6332 99.0024Z" fill="white" stroke="#FF7775" stroke-width="3.32528" stroke-miterlimit="10"/>
<path d="M111.017 100.448C109.196 102.793 106.867 104.69 104.205 105.995C101.543 107.301 98.6184 107.98 95.655 107.981C94.7052 107.982 93.7566 107.915 92.8164 107.78" stroke="#FF7775" stroke-width="3.32528" stroke-linecap="round" stroke-linejoin="round"/>
<path d="M91.6398 90.68C92.8755 90.68 93.8773 89.6757 93.8773 88.4369C93.8773 87.1981 92.8755 86.1938 91.6398 86.1938C90.4041 86.1938 89.4023 87.1981 89.4023 88.4369C89.4023 89.6757 90.4041 90.68 91.6398 90.68Z" fill="#FF7775"/>
<path d="M99.5695 90.68C100.805 90.68 101.807 89.6757 101.807 88.4369C101.807 87.1981 100.805 86.1938 99.5695 86.1938C98.3338 86.1938 97.332 87.1981 97.332 88.4369C97.332 89.6757 98.3338 90.68 99.5695 90.68Z" fill="#FF7775"/>
<path d="M143.464 119.619C142.751 119.656 142.046 119.453 141.46 119.044L141.393 118.99C140.932 118.579 140.645 118.006 140.592 117.39C140.548 116.789 140.716 116.192 141.066 115.702C141.416 115.213 141.927 114.862 142.509 114.711L161.21 109.529H143.397C142.681 109.599 141.964 109.393 141.393 108.953C141.14 108.775 140.934 108.537 140.795 108.26C140.655 107.983 140.585 107.676 140.592 107.366C140.598 106.853 140.753 106.352 141.039 105.927C141.304 105.435 141.746 105.064 142.275 104.889L161.47 99.5723H141.654C141.453 99.5723 141.26 99.4928 141.118 99.3511C140.975 99.2094 140.894 99.017 140.893 98.8157V97.115C140.893 97.015 140.912 96.9161 140.951 96.8239C140.989 96.7316 141.045 96.6479 141.116 96.5776C141.187 96.5072 141.271 96.4516 141.363 96.414C141.455 96.3764 141.554 96.3575 141.654 96.3583H153.983V90.6268H137.039C136.837 90.6268 136.643 90.5464 136.5 90.4032C136.358 90.2601 136.277 90.0659 136.277 89.8635V88.1092C136.277 88.0093 136.297 87.9103 136.335 87.8181C136.374 87.7259 136.43 87.6421 136.501 87.5718C136.572 87.5014 136.656 87.4459 136.748 87.4082C136.84 87.3706 136.939 87.3517 137.039 87.3526H173.379C173.577 87.3561 173.765 87.4373 173.904 87.5789C174.043 87.7204 174.12 87.9108 174.12 88.1092V89.8635C174.12 90.0648 174.041 90.2579 173.9 90.4009C173.758 90.5438 173.567 90.625 173.366 90.6268H157.47V96.3717H167.114C167.762 96.3648 168.396 96.5513 168.938 96.9074C168.999 96.9474 169.053 96.9972 169.098 97.0547C169.44 97.4589 169.67 97.9461 169.766 98.4675C169.769 98.5099 169.769 98.5524 169.766 98.5947C169.753 99.0822 169.625 99.5596 169.392 99.9874C169.093 100.527 168.605 100.935 168.023 101.132L149.148 106.389H167.021C167.687 106.383 168.34 106.569 168.904 106.924C168.965 106.964 169.019 107.014 169.064 107.072C169.405 107.449 169.635 107.912 169.732 108.411C169.736 108.453 169.736 108.496 169.732 108.538C169.755 109.042 169.637 109.543 169.392 109.984C169.268 110.229 169.097 110.446 168.888 110.623C168.679 110.8 168.437 110.934 168.176 111.015L149.235 116.372H168.998C169.198 116.372 169.39 116.452 169.531 116.594C169.673 116.735 169.752 116.928 169.752 117.129V118.89C169.751 119.09 169.671 119.281 169.529 119.423C169.388 119.564 169.197 119.644 168.998 119.646L143.464 119.619Z" fill="#FF7775"/>
<path d="M173.378 88.1089V89.8632H156.754V97.1281H167.153C167.651 97.1219 168.139 97.2641 168.556 97.5365C168.822 97.8358 169.004 98.201 169.083 98.5944C169.061 98.9593 168.956 99.3143 168.776 99.6323C168.568 99.9929 168.235 100.265 167.841 100.396L143.65 107.132H167.079C167.596 107.125 168.104 107.267 168.542 107.54C168.806 107.817 168.989 108.163 169.07 108.538C169.089 108.903 169.008 109.266 168.836 109.589C168.756 109.754 168.642 109.9 168.5 110.015C168.358 110.131 168.192 110.214 168.015 110.258L143.77 117.108H169.01V118.869H143.463C142.926 118.9 142.393 118.755 141.946 118.454C141.779 118.318 141.64 118.15 141.539 117.959C141.438 117.768 141.377 117.558 141.359 117.343C141.308 116.948 141.414 116.549 141.653 116.231C141.764 116.037 141.915 115.868 142.095 115.737C142.276 115.605 142.483 115.514 142.701 115.468L166.746 108.772H143.396C142.857 108.83 142.317 108.685 141.88 108.364C141.714 108.257 141.578 108.109 141.486 107.934C141.393 107.759 141.347 107.564 141.352 107.366C141.362 106.988 141.486 106.622 141.706 106.315C141.789 106.153 141.905 106.011 142.045 105.896C142.185 105.781 142.347 105.695 142.521 105.645L167.059 98.8489H141.653V97.1481H154.75V89.8632H137.051V88.1089H173.378Z" fill="#FF7775"/>
<path d="M177.11 114.363C177.011 114.363 176.912 114.343 176.82 114.305C176.728 114.266 176.644 114.21 176.574 114.139C176.504 114.068 176.449 113.984 176.411 113.891C176.373 113.799 176.355 113.7 176.355 113.6V111.845C176.355 111.746 176.373 111.646 176.411 111.554C176.449 111.461 176.504 111.377 176.574 111.306C176.644 111.235 176.728 111.179 176.82 111.14C176.912 111.102 177.011 111.082 177.11 111.082H193.14V95.1395C193.14 94.9371 193.22 94.7429 193.363 94.5998C193.506 94.4566 193.699 94.3762 193.901 94.3762H196.058C196.26 94.3762 196.454 94.4566 196.597 94.5998C196.74 94.7429 196.82 94.9371 196.82 95.1395V111.069H212.248C212.449 111.07 212.641 111.152 212.782 111.295C212.924 111.438 213.003 111.631 213.003 111.832V113.586C213.003 113.788 212.924 113.981 212.782 114.124C212.641 114.267 212.449 114.348 212.248 114.35L177.11 114.363ZM208.181 99.1168C208.043 99.1178 207.908 99.0808 207.791 99.0099C207.673 98.9391 207.577 98.8371 207.513 98.7151L194.756 74.5635L182.066 98.7151C182.002 98.8366 181.905 98.9382 181.788 99.009C181.67 99.0798 181.535 99.117 181.398 99.1168H178.94C178.81 99.117 178.682 99.0834 178.568 99.0193C178.455 98.9551 178.36 98.8625 178.292 98.7506C178.225 98.6387 178.188 98.5112 178.184 98.3806C178.181 98.25 178.211 98.1207 178.272 98.0053L192.058 71.999H180.209C180.011 71.9955 179.822 71.9145 179.682 71.7732C179.542 71.6318 179.463 71.4414 179.461 71.2424V69.2337C179.463 69.0324 179.544 68.84 179.687 68.6982C179.829 68.5565 180.022 68.477 180.223 68.4771H209.203C209.402 68.4788 209.593 68.5591 209.734 68.7006C209.876 68.8421 209.956 69.0335 209.957 69.2337V71.2424C209.956 71.4425 209.876 71.634 209.734 71.7755C209.593 71.917 209.402 71.9973 209.203 71.999H197.314L211.34 97.9986C211.403 98.1142 211.434 98.2442 211.432 98.3758C211.429 98.5074 211.392 98.636 211.325 98.7489C211.257 98.8618 211.161 98.9551 211.047 99.0197C210.933 99.0842 210.803 99.1177 210.672 99.1168H208.181Z" fill="#FF7775"/>
<path d="M212.231 111.832V113.587H177.113V111.832H193.884V95.1397H196.042V111.832H212.231ZM196.042 71.2426L210.648 98.3604H208.184L194.746 72.9165L181.388 98.3604H178.93L193.303 71.2426H180.212V69.2339H209.192V71.2426H196.042Z" fill="#FF7775"/>
<path d="M230.28 119.619C228.276 119.619 226.887 119.137 226.079 118.18C225.223 117.072 224.806 115.686 224.91 114.289V97.8312C224.909 97.7315 224.928 97.6328 224.966 97.5406C225.003 97.4484 225.059 97.3646 225.129 97.2942C225.199 97.2237 225.283 97.168 225.375 97.1303C225.467 97.0926 225.565 97.0736 225.665 97.0745H227.668C227.768 97.0736 227.867 97.0926 227.959 97.1302C228.052 97.1678 228.136 97.2234 228.206 97.2938C228.277 97.3641 228.333 97.4478 228.372 97.5401C228.41 97.6323 228.43 97.7312 228.43 97.8312V105.866L245.181 101.895C245.243 101.885 245.306 101.885 245.368 101.895C245.535 101.894 245.698 101.951 245.829 102.056C245.92 102.126 245.995 102.216 246.046 102.319C246.097 102.423 246.123 102.537 246.123 102.652V104.661C246.123 104.829 246.068 104.994 245.965 105.127C245.862 105.26 245.718 105.356 245.555 105.397L228.43 109.468V114.263C228.402 114.542 228.433 114.823 228.52 115.09C228.608 115.356 228.75 115.601 228.938 115.809C229.314 116.116 229.789 116.275 230.273 116.258H245V97.8312C245 97.6305 245.08 97.438 245.221 97.2961C245.363 97.1542 245.555 97.0745 245.755 97.0745H247.685C247.886 97.0745 248.078 97.1542 248.219 97.2961C248.361 97.438 248.44 97.6305 248.44 97.8312V118.863C248.438 119.063 248.358 119.254 248.217 119.396C248.076 119.537 247.885 119.617 247.685 119.619H230.28ZM245.468 93.6865C245.268 93.6847 245.077 93.6045 244.936 93.4629C244.795 93.3214 244.715 93.13 244.713 92.9299V68.2493C244.715 68.0492 244.795 67.8578 244.936 67.7163C245.077 67.5747 245.268 67.4945 245.468 67.4927H247.472C247.671 67.4945 247.862 67.5747 248.003 67.7163C248.145 67.8578 248.225 68.0492 248.226 68.2493V79.458L253.029 77.9515C253.103 77.9305 253.179 77.9193 253.256 77.918C253.416 77.9198 253.573 77.9712 253.703 78.0653C253.799 78.1367 253.877 78.2296 253.93 78.3366C253.983 78.4436 254.011 78.5617 254.01 78.6813V80.7838C254.012 80.9443 253.963 81.1013 253.869 81.2314C253.775 81.3616 253.642 81.4582 253.489 81.5069L248.226 83.2143V92.9366C248.225 93.1367 248.145 93.3281 248.003 93.4696C247.862 93.6112 247.671 93.6914 247.472 93.6932L245.468 93.6865ZM226.713 95.6952C223.601 95.6952 221.143 94.8114 219.407 93.0705C217.597 91.4501 216.668 88.9928 216.668 85.7989C216.614 84.475 216.843 83.1547 217.338 81.9262C217.833 80.6977 218.584 79.5892 219.54 78.6746C221.484 76.9203 223.928 76.07 227.007 76.07H228.296C231.013 75.9779 233.667 76.9015 235.743 78.6612C236.705 79.5745 237.46 80.6833 237.959 81.9132C238.457 83.143 238.688 84.4656 238.635 85.7922C238.688 87.1161 238.467 88.4366 237.984 89.6699C237.501 90.9032 236.767 92.0225 235.83 92.9566C234.846 93.8757 233.69 94.5903 232.429 95.0592C231.168 95.5281 229.827 95.742 228.483 95.6885L226.713 95.6952ZM226.834 79.4714C225.095 79.448 223.403 80.0302 222.045 81.1186C220.709 82.2033 220.041 83.7969 220.041 85.973C220.041 88.1491 220.609 89.6155 221.778 90.66C222.421 91.2589 223.179 91.7212 224.005 92.0192C224.832 92.3172 225.71 92.4448 226.586 92.3942H228.59C229.368 92.3849 230.14 92.2585 230.881 92.0192C231.644 91.7803 232.351 91.3885 232.958 90.8676C233.63 90.3171 234.18 89.6332 234.575 88.8589C235.019 87.9448 235.232 86.9354 235.196 85.9194C235.242 85.0328 235.094 84.1469 234.763 83.3234C234.432 82.5 233.925 81.759 233.279 81.152C232.007 80.0603 230.385 79.4659 228.71 79.4781L226.834 79.4714ZM216.027 74.6973C215.927 74.6982 215.828 74.6793 215.736 74.6417C215.644 74.6041 215.56 74.5485 215.489 74.4781C215.418 74.4078 215.362 74.3241 215.324 74.2318C215.285 74.1396 215.266 74.0406 215.266 73.9407V72.1797C215.266 71.9773 215.346 71.7831 215.489 71.64C215.631 71.4968 215.825 71.4164 216.027 71.4164H225.845V66.5553C225.844 66.4554 225.863 66.3563 225.901 66.2637C225.938 66.1711 225.994 66.0869 226.064 66.016C226.134 65.945 226.217 65.8887 226.309 65.8502C226.401 65.8118 226.5 65.792 226.6 65.792H228.764C228.965 65.7938 229.157 65.875 229.298 66.0179C229.439 66.1609 229.519 66.354 229.519 66.5553V71.4164H238.869C238.969 71.4164 239.068 71.4362 239.16 71.4746C239.252 71.5131 239.335 71.5694 239.405 71.6404C239.475 71.7114 239.531 71.7956 239.568 71.8881C239.606 71.9807 239.625 72.0798 239.624 72.1797V73.934C239.625 74.0336 239.606 74.1324 239.568 74.2246C239.531 74.3168 239.475 74.4006 239.405 74.471C239.335 74.5415 239.251 74.5972 239.159 74.6349C239.067 74.6726 238.969 74.6915 238.869 74.6906L216.027 74.6973Z" fill="#FF7775"/>
<path d="M238.866 72.1796V73.9339H216.023V72.1796H226.596V66.5552H228.76V72.1796H238.866ZM227.004 76.8265H228.293C230.827 76.7413 233.303 77.5973 235.246 79.2302C236.121 80.0755 236.808 81.0975 237.261 82.2286C237.713 83.3598 237.921 84.5744 237.87 85.7921C237.93 87.014 237.731 88.2347 237.288 89.3745C236.845 90.5144 236.167 91.5478 235.299 92.4075C234.387 93.2674 233.313 93.9351 232.139 94.371C230.966 94.8069 229.717 95.0021 228.466 94.9452H226.71C223.851 94.9452 221.574 94.1885 219.937 92.5481C218.241 91.0214 217.426 88.7382 217.426 85.8122C217.37 84.5939 217.576 83.3777 218.028 82.2458C218.481 81.1138 219.171 80.0924 220.051 79.2503C221.807 77.65 224.085 76.8265 227.004 76.8265ZM228.58 93.1708C229.433 93.1629 230.28 93.0252 231.091 92.7623C231.951 92.4979 232.747 92.0579 233.429 91.4701C234.186 90.8435 234.804 90.0659 235.246 89.1868C235.892 87.7702 236.098 86.1913 235.837 84.6555C235.576 83.1198 234.861 81.6983 233.783 80.5761C232.37 79.3559 230.565 78.6898 228.7 78.7013H226.83C224.92 78.675 223.06 79.3193 221.574 80.5225C220.051 81.7501 219.289 83.5646 219.289 85.9662C219.289 88.2494 219.957 89.9836 221.293 91.2357C222.007 91.9031 222.849 92.4186 223.767 92.7511C224.686 93.0837 225.662 93.2265 226.636 93.1708H228.58ZM247.688 118.862H230.276C228.526 118.862 227.298 118.447 226.656 117.691C225.923 116.716 225.569 115.507 225.661 114.289V97.831H227.665V106.85L245.364 102.632V104.641L227.665 108.859V114.216C227.632 114.601 227.683 114.99 227.815 115.354C227.946 115.718 228.155 116.049 228.426 116.325C228.945 116.772 229.612 117.011 230.296 116.994H245.778V97.831H247.709L247.688 118.862ZM253.239 80.7836L247.455 82.6585V92.9364H245.451V68.2492H247.455V80.4957L253.239 78.6812V80.7836Z" fill="#FF7775"/>
<path d="M167.646 85.5302L166.163 85.3762C165.965 85.3542 165.783 85.2546 165.658 85.0991C165.533 84.9435 165.474 84.7447 165.495 84.5459L166.831 71.4155C165.191 71.3445 163.549 71.4568 161.935 71.7503C159.344 72.2391 158.001 72.8752 156.031 75.1451C156.184 77.6828 156.204 80.6021 155.697 82.5104C155.545 83.2312 155.184 83.8909 154.659 84.4058C154.133 84.9207 153.467 85.2677 152.745 85.4029C152.12 85.4918 151.483 85.3906 150.916 85.1124C150.349 84.8343 149.879 84.392 149.566 83.8428C149.058 82.9992 148.183 80.6289 150.941 76.8257C151.669 75.8146 152.331 74.9308 152.945 74.1474C152.872 73.277 152.792 72.4601 152.711 71.7771H140.796C140.598 71.7719 140.409 71.6891 140.271 71.5466C140.132 71.404 140.055 71.2128 140.055 71.0138V69.5005C140.056 69.3004 140.137 69.109 140.278 68.9675C140.419 68.826 140.61 68.7457 140.809 68.7439H154.675C154.86 68.7443 155.038 68.8127 155.176 68.9362C155.314 69.0596 155.402 69.2294 155.423 69.4135L155.517 70.0831C155.517 70.1567 155.59 70.5986 155.67 71.2883C157.314 69.9718 159.278 69.1188 161.361 68.8176C163.517 68.4248 165.715 68.3168 167.899 68.4962C168.258 68.5233 168.604 68.6398 168.906 68.8351C169.208 69.0304 169.457 69.2983 169.629 69.6144C169.851 70.0236 169.941 70.4909 169.89 70.9535L168.494 84.8539C168.483 84.9544 168.452 85.0517 168.404 85.1403C168.355 85.2289 168.29 85.3069 168.211 85.3698C168.132 85.4327 168.041 85.4793 167.944 85.5068C167.847 85.5343 167.746 85.5423 167.646 85.5302ZM153.085 78.9616C151.85 80.803 151.897 81.9346 152.11 82.3095C152.164 82.4033 152.224 82.4434 152.297 82.4367C152.371 82.43 152.645 82.1957 152.765 81.7672C152.974 80.8466 153.081 79.9058 153.085 78.9616Z" fill="#FF7775"/>
</g>
<g clip-path="url(#clip2_2416_4780)">
<path d="M589.394 739.34C589.394 739.34 599.755 734.552 598.089 749.757C596.423 764.963 596.924 796.416 593.584 808.694C590.244 820.972 594.894 851.733 578.175 842.33C561.455 832.927 589.394 739.34 589.394 739.34Z" fill="#F8D174" stroke="#DE8A32" stroke-width="2.41389" stroke-miterlimit="10" stroke-linecap="round"/>
<path d="M588.172 743.812C605.402 750.099 606.77 750.092 605.849 766.102C604.927 782.111 595.519 791.782 599.249 808.521C602.98 825.261 594.726 850.212 581.102 834.968C567.479 819.724 578.375 797.139 583.746 774.701C589.118 752.262 588.172 743.812 588.172 743.812Z" fill="#3D2700" stroke="#DE8A32" stroke-width="2.41389" stroke-miterlimit="10" stroke-linecap="round"/>
<path d="M684.303 806.754C684.303 806.754 732.001 795.18 724.475 811.857C716.949 828.534 703.772 842.281 704.597 855.897C705.421 869.514 691.066 902.333 656.895 851.986" fill="#F8D174"/>
<path d="M684.303 806.754C684.303 806.754 732.001 795.18 724.475 811.857C716.949 828.534 703.772 842.281 704.597 855.897C705.421 869.514 691.066 902.333 656.895 851.986" stroke="#DE8A32" stroke-width="2.41389" stroke-miterlimit="10"/>
<path d="M600.662 846.685C600.662 846.685 588.904 855.338 610.803 865.861C625.448 872.903 632.728 874.141 635.09 866.971C636.507 862.731 636.75 858.186 635.794 853.82" fill="#F8D174"/>
<path d="M600.662 846.685C600.662 846.685 588.904 855.338 610.803 865.861C625.448 872.903 632.728 874.141 635.09 866.971C636.507 862.731 636.75 858.186 635.794 853.82" stroke="#DE8A32" stroke-width="2.41389" stroke-miterlimit="10"/>
<path d="M630.936 748.673C630.936 748.673 634.914 732.143 646.106 736.317C657.298 740.491 676.721 755.36 681.852 768.162C686.983 780.964 685.545 796.239 685.545 796.239" fill="#F8D174"/>
<path d="M630.936 748.673C630.936 748.673 634.914 732.143 646.106 736.317C657.298 740.491 676.721 755.36 681.852 768.162C686.983 780.964 685.545 796.239 685.545 796.239" stroke="#DE8A32" stroke-width="2.41389" stroke-miterlimit="10"/>
<path d="M582.445 843.575C545.642 833.563 520.289 808.707 528.474 778.62C535.42 753.09 562.718 737.498 593.367 739.499L582.445 843.575Z" fill="#F8D174" stroke="#DE8A32" stroke-width="2.41389" stroke-miterlimit="10" stroke-linecap="round"/>
<path d="M627.868 745.629C633.358 746.881 638.708 748.682 643.838 751.004C678.637 766.718 696.447 802.502 683.61 830.953C670.772 859.404 631.846 860.798 597.032 845.08L627.868 745.629Z" fill="#F8D174" stroke="#DE8A32" stroke-width="2.41389" stroke-miterlimit="10" stroke-linecap="round"/>
<path d="M521.475 787.364C521.475 787.364 513.364 797.866 525.171 801.35C536.979 804.835 542.736 793.148 542.736 793.148" fill="#F8D174"/>
<path d="M521.475 787.364C521.475 787.364 513.364 797.866 525.171 801.35C536.979 804.835 542.736 793.148 542.736 793.148" stroke="#DE8A32" stroke-width="2.41389" stroke-linecap="round" stroke-linejoin="round"/>
<path d="M540.605 788.512C540.605 788.512 530.585 774.248 522.386 776.963C514.187 779.677 522.067 790.062 531.336 789.287" fill="#F8D174"/>
<path d="M540.605 788.512C540.605 788.512 530.585 774.248 522.386 776.963C514.187 779.677 522.067 790.062 531.336 789.287" stroke="#DE8A32" stroke-width="2.41389" stroke-linecap="round" stroke-linejoin="round"/>
<path d="M578.582 779.065C578.582 779.065 591.36 798.687 570.9 807.304L578.582 779.065Z" fill="#F8D174"/>
<path d="M578.582 779.065C578.582 779.065 591.36 798.687 570.9 807.304" stroke="#DE8A32" stroke-width="2.41389" stroke-linecap="round" stroke-linejoin="round"/>
<path d="M632.533 782.32C635.584 783.215 637.077 787.108 636.522 789.998C635.806 793.718 632.404 796.295 628.985 797.392C628.493 797.58 628.096 797.955 627.879 798.434C627.662 798.914 627.643 799.46 627.827 799.953C629.569 803.755 630.085 808.006 629.302 812.115C629.026 813.524 628.727 815.593 627.104 815.836C626.25 815.95 625.448 815.871 624.56 815.927C623.527 815.999 622.527 816.321 621.645 816.864C621.292 817.123 621.032 817.489 620.905 817.907C620.778 818.326 620.79 818.775 620.939 819.186C621.367 820.861 621.249 822.629 620.601 824.232C619.953 825.835 618.809 827.189 617.338 828.096C615.817 828.927 614.083 829.287 612.358 829.13C610.632 828.973 608.992 828.306 607.646 827.215C605.616 825.599 603.132 828.673 605.1 830.28C607.126 831.915 609.603 832.892 612.2 833.082C614.797 833.272 617.39 832.664 619.633 831.341C621.817 829.916 623.484 827.826 624.389 825.379C625.293 822.933 625.386 820.26 624.655 817.757L623.96 820.041C624.698 819.787 625.484 819.699 626.261 819.785C627.308 819.82 628.351 819.641 629.327 819.259C631.817 818.156 632.659 815.427 633.171 812.97C634.161 808.089 633.596 803.02 631.555 798.479L630.397 801.04C635.308 799.483 639.888 795.331 640.541 789.995C640.887 787.487 640.336 784.937 638.985 782.798C637.633 780.658 635.569 779.066 633.157 778.303C632.637 778.223 632.107 778.353 631.683 778.664C631.259 778.975 630.975 779.442 630.894 779.962C630.825 780.481 630.958 781.006 631.266 781.429C631.574 781.852 632.034 782.14 632.549 782.233L632.533 782.32Z" fill="#DE8A32"/>
<path d="M657.283 796.651C657.974 797.371 658.455 798.265 658.675 799.238C658.896 800.211 658.848 801.226 658.536 802.173C658.224 803.121 657.66 803.966 656.904 804.617C656.149 805.269 655.231 805.702 654.248 805.871C653.821 805.928 653.424 806.121 653.115 806.422C652.807 806.722 652.603 807.114 652.534 807.539C652.466 807.965 652.536 808.401 652.734 808.783C652.933 809.165 653.25 809.473 653.637 809.661C655.056 810.5 655.822 812.134 656.298 813.682C656.928 815.498 657.202 817.42 657.106 819.341C656.748 823.108 652.352 823.223 649.444 823.289C649.143 823.324 648.853 823.426 648.597 823.589C648.341 823.752 648.126 823.971 647.967 824.229C647.808 824.487 647.709 824.778 647.679 825.08C647.649 825.382 647.687 825.687 647.792 825.971C648.283 827.292 648.391 828.726 648.101 830.106C647.812 831.486 647.137 832.755 646.156 833.768C645.225 834.661 644.077 835.296 642.826 835.612C641.575 835.927 640.264 835.912 639.021 835.568C638.539 835.368 637.999 835.359 637.51 835.543C637.021 835.727 636.62 836.09 636.389 836.558C636.175 837.039 636.159 837.586 636.346 838.078C636.533 838.571 636.907 838.969 637.386 839.187C639.384 839.842 641.522 839.938 643.571 839.466C645.619 838.993 647.5 837.97 649.01 836.506C650.521 834.953 651.558 833.002 652.003 830.881C652.447 828.761 652.279 826.558 651.519 824.529L649.869 827.204C652.189 827.278 654.499 826.868 656.653 826C657.861 825.47 658.908 824.629 659.686 823.562C660.464 822.495 660.945 821.241 661.08 819.927C661.264 817.218 660.881 814.501 659.956 811.949C659.175 809.477 657.518 807.376 655.297 806.041L654.686 809.831C656.444 809.568 658.094 808.822 659.453 807.675C660.812 806.528 661.826 805.026 662.382 803.337C662.896 801.632 662.929 799.818 662.478 798.095C662.027 796.373 661.108 794.809 659.825 793.576C659.418 793.244 658.896 793.085 658.373 793.134C657.85 793.182 657.367 793.435 657.028 793.837C656.701 794.247 656.546 794.767 656.595 795.289C656.643 795.811 656.891 796.293 657.288 796.636L657.283 796.651Z" fill="#DE8A32"/>
<path d="M693.552 826.306C696.877 825.101 700.25 824.046 703.669 823.141C704.159 822.951 704.555 822.576 704.772 822.097C704.988 821.618 705.008 821.073 704.827 820.579C704.627 820.096 704.25 819.707 703.773 819.491C703.296 819.276 702.755 819.25 702.26 819.42C698.847 820.321 695.477 821.368 692.149 822.562C691.66 822.753 691.266 823.129 691.05 823.608C690.835 824.088 690.817 824.632 690.999 825.125C691.192 825.613 691.567 826.006 692.044 826.223C692.522 826.439 693.065 826.46 693.558 826.283L693.552 826.306Z" fill="#DE8A32"/>
<path d="M688.893 839.28C689.033 839.309 689.171 839.347 689.307 839.392C688.791 839.169 689.307 839.392 689.406 839.419L690.21 839.704C690.765 839.904 691.311 840.135 691.844 840.387C692.376 840.639 692.869 840.889 693.362 841.163L693.732 841.379L693.971 841.527L693.76 841.395C694.05 841.557 694.328 841.74 694.591 841.942C695.018 842.261 695.549 842.405 696.079 842.347C696.468 842.309 696.838 842.155 697.14 841.906C697.443 841.658 697.665 841.325 697.778 840.95C697.892 840.575 697.892 840.175 697.778 839.8C697.664 839.425 697.441 839.093 697.139 838.844C694.82 837.238 692.244 836.041 689.521 835.305C689.008 835.223 688.483 835.347 688.06 835.649C687.629 835.964 687.338 836.435 687.25 836.962C687.175 837.475 687.298 837.998 687.594 838.423C687.923 838.838 688.387 839.125 688.905 839.233L688.893 839.28Z" fill="#DE8A32"/>
<path d="M677.35 852.862C679.226 855.892 681.531 858.632 684.196 860.996C684.605 861.318 685.123 861.469 685.641 861.416C686.159 861.363 686.637 861.111 686.973 860.713C687.3 860.304 687.455 859.783 687.407 859.262C687.358 858.74 687.11 858.257 686.714 857.915C686.104 857.37 685.527 856.768 684.943 856.222C684.796 856.066 684.633 855.907 684.496 855.746C684.814 856.121 684.351 855.583 684.294 855.518C684.023 855.213 683.752 854.909 683.492 854.591C682.432 853.301 681.466 851.936 680.601 850.508C680.292 850.083 679.828 849.796 679.31 849.709C678.792 849.622 678.261 849.742 677.829 850.042C677.41 850.356 677.127 850.819 677.04 851.336C676.953 851.852 677.069 852.383 677.363 852.816L677.35 852.862Z" fill="#DE8A32"/>
<path d="M609.489 858.225L613.78 862.459C613.985 862.628 614.222 862.756 614.476 862.833C614.731 862.911 614.998 862.938 615.263 862.912C615.778 862.852 616.251 862.597 616.585 862.2C616.909 861.776 617.055 861.241 616.99 860.711C616.911 860.204 616.663 859.739 616.286 859.391L612.035 855.16C611.832 854.991 611.597 854.864 611.343 854.786C611.09 854.709 610.824 854.683 610.56 854.71C610.045 854.77 609.573 855.024 609.239 855.421C608.914 855.845 608.768 856.38 608.834 856.91C608.9 857.409 609.131 857.872 609.489 858.225Z" fill="#DE8A32"/>
<path d="M622.145 860.622L623.296 863.111C623.373 863.357 623.515 863.577 623.706 863.75C623.872 863.959 624.089 864.121 624.337 864.218C624.576 864.345 624.846 864.401 625.116 864.381C625.372 864.411 625.632 864.373 625.87 864.273C626.114 864.181 626.338 864.042 626.528 863.863C626.718 863.684 626.871 863.469 626.977 863.231L627.117 862.716C627.169 862.377 627.133 862.029 627.013 861.707L625.862 859.218C625.779 858.973 625.635 858.752 625.443 858.577C625.282 858.368 625.067 858.207 624.821 858.111C624.581 857.986 624.311 857.93 624.041 857.949C623.787 857.921 623.53 857.959 623.295 858.059C622.804 858.248 622.407 858.622 622.188 859.101L622.048 859.615C621.992 859.955 622.028 860.303 622.152 860.624L622.145 860.622Z" fill="#DE8A32"/>
<path d="M650.802 740.817L648.417 742.714C647.988 743.031 647.697 743.501 647.607 744.027C647.556 744.281 647.572 744.544 647.654 744.79C647.691 745.042 647.794 745.281 647.952 745.481C648.105 745.697 648.3 745.881 648.525 746.022C648.749 746.162 649 746.256 649.261 746.298C649.774 746.373 650.296 746.25 650.722 745.954L653.098 744.062C653.527 743.745 653.817 743.275 653.908 742.75C653.963 742.494 653.95 742.229 653.87 741.981C653.83 741.729 653.727 741.492 653.572 741.29C653.418 741.073 653.222 740.889 652.995 740.749C652.769 740.61 652.516 740.518 652.253 740.478C651.744 740.396 651.223 740.517 650.802 740.817Z" fill="#DE8A32"/>
<path d="M665.09 751.32L663.693 754.426C663.481 754.907 663.463 755.452 663.642 755.946C663.833 756.435 664.206 756.832 664.683 757.053C665.164 757.267 665.71 757.283 666.203 757.096C666.693 756.904 667.089 756.531 667.31 756.053L668.712 752.957C668.922 752.474 668.937 751.929 668.756 751.436C668.567 750.944 668.194 750.546 667.715 750.328C667.234 750.117 666.69 750.099 666.197 750.278C665.71 750.474 665.315 750.846 665.09 751.32Z" fill="#DE8A32"/>
<path d="M545.91 768.529L553.068 777.481" stroke="#DE8A32" stroke-width="2.41389" stroke-linecap="round" stroke-linejoin="round"/>
</g>
<path d="M603.576 736.148C601.81 732.081 597.999 725.804 605.128 721.453C612.257 717.103 608.799 713.358 606.208 710.61" stroke="#DE8A32" stroke-width="3.21852" stroke-linecap="round"/>
<path d="M617.644 738.806C617.397 734.379 615.377 727.798 623.572 726.186C631.767 724.575 630.175 721.285 628.696 717.809" stroke="#DE8A32" stroke-width="3.21852" stroke-linecap="round"/>
<g clip-path="url(#clip3_2416_4780)">
<path d="M356.234 878.707L369.425 872.281C370.085 871.946 370.819 871.784 371.559 871.812C372.299 871.84 373.019 872.055 373.652 872.439C374.285 872.822 374.81 873.361 375.177 874.004C375.544 874.646 375.741 875.372 375.75 876.112L375.842 879.482C375.859 880.513 376.241 881.504 376.921 882.279C377.6 883.054 378.533 883.563 379.552 883.715L389.202 885.239C390.265 885.412 391.228 885.968 391.91 886.802C392.592 887.635 392.946 888.689 392.906 889.765L392.701 894.952C392.647 896.029 392.996 897.088 393.679 897.923C394.362 898.757 395.33 899.309 396.396 899.471L405.49 900.948C406.627 901.124 407.647 901.743 408.329 902.67C409.01 903.596 409.298 904.754 409.128 905.891L408.848 908.055C408.699 909.196 409.003 910.351 409.694 911.272C410.385 912.192 411.409 912.806 412.547 912.982L419.614 914.067C420.666 914.219 421.626 914.75 422.313 915.561C423 916.372 423.367 917.407 423.344 918.469L423.308 921.927C423.295 922.83 423.559 923.715 424.066 924.463C424.572 925.211 425.296 925.785 426.139 926.108L431.39 928.082C432.009 928.308 432.569 928.672 433.028 929.147C433.486 929.621 433.83 930.193 434.035 930.82C434.24 931.447 434.299 932.112 434.209 932.766C434.119 933.419 433.882 934.043 433.515 934.591L426.088 945.98C425.74 946.529 425.275 946.994 424.724 947.339C424.174 947.685 423.553 947.903 422.908 947.977C422.262 948.051 421.609 947.981 420.994 947.769C420.38 947.558 419.82 947.212 419.357 946.757L355.09 885.899C354.569 885.406 354.175 884.793 353.944 884.114C353.713 883.435 353.651 882.71 353.763 882.001C353.876 881.292 354.16 880.622 354.591 880.048C355.021 879.474 355.585 879.014 356.234 878.707Z" fill="#007D1C" stroke="#303030" stroke-width="3.29736" stroke-miterlimit="10"/>
<path d="M417.82 934.121L367.415 886.389C359.838 879.214 347.879 879.54 340.703 887.117L294.933 935.451C287.757 943.028 288.083 954.987 295.66 962.162L346.065 1009.89C353.642 1017.07 365.601 1016.74 372.776 1009.17L418.547 960.832C425.722 953.255 425.397 941.296 417.82 934.121Z" fill="#007D1C" stroke="#303030" stroke-width="3.19478" stroke-miterlimit="10"/>
<path d="M398.196 953.679L348.945 907.04C347.269 905.453 344.624 905.525 343.036 907.201L332.32 918.518C330.732 920.194 330.805 922.839 332.481 924.426L381.732 971.065C383.408 972.652 386.053 972.58 387.64 970.904L398.357 959.587C399.944 957.911 399.872 955.266 398.196 953.679Z" fill="#F5F5F5"/>
</g>
<path d="M-92.7786 679.755L-91.5945 678.499C-89.1455 675.9 -85.0532 675.778 -82.4542 678.227L80.0134 831.32C82.6124 833.769 82.734 837.861 80.285 840.46L79.1009 841.717C76.6519 844.316 72.5597 844.437 69.9606 841.988L-92.507 688.896C-95.106 686.447 -95.2276 682.354 -92.7786 679.755Z" fill="#2D1A00" stroke="#261200" stroke-width="5.26829" stroke-miterlimit="10"/>
<path d="M-107.418 716.206L-106.367 714.837C-104.192 712.004 -100.133 711.47 -97.3004 713.645L79.7828 849.566C82.6156 851.74 83.1494 855.799 80.9751 858.632L79.9238 860.002C77.7495 862.835 73.6904 863.368 70.8575 861.194L-106.226 725.273C-109.058 723.098 -109.592 719.039 -107.418 716.206Z" fill="#2D1A00" stroke="#261200" stroke-width="5.26829" stroke-miterlimit="10"/>
<path d="M76.2488 765.496C76.2488 765.496 131.962 707.126 209.18 712.836C286.398 718.546 331.879 722.757 362.623 782.047C393.366 841.336 205.829 831.631 205.829 831.631L61.3414 845.924L76.2488 765.496Z" fill="#F9B72D" stroke="#8E4700" stroke-width="4.64849" stroke-miterlimit="10"/>
<path d="M264.819 718.217C264.819 718.217 187.24 715.686 156.897 734.697C126.553 753.707 115.587 759.013 115.587 759.013" fill="#F9B72D"/>
<path d="M264.819 718.217C264.819 718.217 187.24 715.686 156.897 734.697C126.553 753.707 115.587 759.013 115.587 759.013" stroke="#8E4700" stroke-width="4.64849" stroke-miterlimit="10"/>
<path d="M142.809 765.827C142.809 765.827 156.889 738.406 221.619 730.559C286.35 722.713 283.866 739.959 283.866 739.959" fill="#F9B72D"/>
<path d="M142.809 765.827C142.809 765.827 156.889 738.406 221.619 730.559C286.35 722.713 283.866 739.959 283.866 739.959" stroke="#8E4700" stroke-width="4.64849" stroke-miterlimit="10"/>
<path d="M160.914 769.527C160.914 769.527 170.548 751.814 205.449 747.269L160.914 769.527Z" fill="#F9B72D"/>
<path d="M160.914 769.527C160.914 769.527 170.548 751.814 205.449 747.269" stroke="#8E4700" stroke-width="4.64849" stroke-miterlimit="10"/>
<path d="M4.36572 796.963C4.36572 796.963 14.8685 741.816 90.035 754.129C165.202 766.441 176.737 785.008 220.195 773.312C263.654 761.617 135.779 816.115 135.779 816.115C135.779 816.115 35.1203 833.829 4.36572 796.963Z" fill="#F9B72D" stroke="#8E4700" stroke-width="4.64849" stroke-miterlimit="10"/>
<path d="M139.522 808.903C192.991 795.455 193.931 787.666 204.53 764.195C215.129 740.725 243.965 735.437 243.965 735.437" fill="#F9B72D"/>
<path d="M139.522 808.903C192.991 795.455 193.931 787.666 204.53 764.195C215.129 740.725 243.965 735.437 243.965 735.437" stroke="#8E4700" stroke-width="4.64849" stroke-miterlimit="10"/>
<path d="M-18.1491 820.203C-18.1491 820.203 -4.37784 781.976 51.5467 792.751C107.471 803.525 114.427 819.603 135.81 816.112C157.193 812.621 82.4382 829.642 82.4382 829.642L-18.1491 820.203Z" fill="#F9B72D" stroke="#8E4700" stroke-width="4.64849" stroke-miterlimit="10"/>
<path d="M-27.5268 857.259C-27.5268 857.259 -26.0164 787.932 26.2211 802.528C78.4585 817.124 74.7559 831.878 104.958 830.065C135.16 828.253 166.88 838.779 166.88 838.779L-27.5268 857.259Z" fill="#F9B72D" stroke="#8E4700" stroke-width="4.64849" stroke-miterlimit="10"/>
<path d="M-26.3887 841.317C-26.3887 841.317 7.94658 811.838 38.1186 822.864C68.2906 833.89 105.885 840.242 105.885 840.242" fill="#F9B72D"/>
<path d="M-26.3887 841.317C-26.3887 841.317 7.94658 811.838 38.1186 822.864C68.2906 833.89 105.885 840.242 105.885 840.242" stroke="#8E4700" stroke-width="4.64849" stroke-miterlimit="10"/>
<path d="M-27.5358 857.261C-27.5358 857.261 -2.95915 833.711 23.1275 840.518C40.4308 844.895 57.9623 848.314 75.6423 850.758" fill="#F9B72D"/>
<path d="M-27.5358 857.261C-27.5358 857.261 -2.95915 833.711 23.1275 840.518C40.4308 844.895 57.9623 848.314 75.6423 850.758" stroke="#8E4700" stroke-width="4.64849" stroke-miterlimit="10"/>
<path d="M363.204 784.097C362.845 782.759 362.094 781.559 361.048 780.65C304.829 732.06 226.045 720.792 194.774 756.051C163.216 791.645 161.054 806.944 116.197 815.17C73.7762 822.949 55.4548 832.933 49.4211 845.631C48.7991 846.952 48.6079 848.435 48.8741 849.871L50.0022 856.022C50.3394 857.837 51.3827 859.444 52.9033 860.491C54.4239 861.538 56.2974 861.938 58.1131 861.605L361.358 805.995C362.307 805.822 363.21 805.454 364.01 804.913C364.809 804.373 365.487 803.672 366 802.855C366.514 802.038 366.852 801.123 366.993 800.169C367.134 799.214 367.075 798.241 366.819 797.31L363.204 784.097Z" fill="#F9B72D" stroke="#8E4700" stroke-width="4.64849" stroke-miterlimit="10"/>
<path d="M300.794 745.181C300.794 745.181 249.871 737.662 227.801 763.236C205.732 788.81 213.754 805.553 172.395 814.794C131.037 824.034 111.386 834.261 112.267 839.067" fill="#F9B72D"/>
<path d="M300.794 745.181C300.794 745.181 249.871 737.662 227.801 763.236C205.732 788.81 213.754 805.553 172.395 814.794C131.037 824.034 111.386 834.261 112.267 839.067" stroke="#8E4700" stroke-width="4.64849" stroke-miterlimit="10"/>
<path d="M326.193 756.57C326.193 756.57 288.172 750.51 263.715 761.619C239.258 772.728 236.935 778.121 230.261 795.904C223.587 813.687 204.523 827.118 183.697 830.937" fill="#F9B72D"/>
<path d="M326.193 756.57C326.193 756.57 288.172 750.51 263.715 761.619C239.258 772.728 236.935 778.121 230.261 795.904C223.587 813.687 204.523 827.118 183.697 830.937" stroke="#8E4700" stroke-width="4.64849" stroke-miterlimit="10"/>
<path d="M347.863 770.233C347.863 770.233 298.364 761.178 276.241 780.502C254.119 799.827 276.751 823.462 245.317 828.581" fill="#F9B72D"/>
<path d="M347.863 770.233C347.863 770.233 298.364 761.178 276.241 780.502C254.119 799.827 276.751 823.462 245.317 828.581" stroke="#8E4700" stroke-width="4.64849" stroke-miterlimit="10"/>
<path d="M15.8764 774.433C15.8764 774.433 37.3393 755.396 70.0407 766.67C102.742 777.944 106.459 792.794 158.229 797.889" fill="#F9B72D"/>
<path d="M15.8764 774.433C15.8764 774.433 37.3393 755.396 70.0407 766.67C102.742 777.944 106.459 792.794 158.229 797.889" stroke="#8E4700" stroke-width="4.64849" stroke-miterlimit="10"/>
<path d="M71.6264 974.031C81.762 1029.3 137.359 1039.37 201.504 1027.61C265.648 1015.85 314.054 986.702 303.918 931.433L71.6264 974.031Z" fill="black" stroke="#303030" stroke-width="4.64849" stroke-miterlimit="10"/>
<path d="M-27.5262 857.256C-29.0164 857.523 -30.4354 858.095 -31.6947 858.935C-32.9539 859.776 -34.0265 860.867 -34.845 862.141C-35.6635 863.414 -36.2104 864.843 -36.4518 866.338C-36.6931 867.832 -36.6238 869.361 -36.2478 870.827C-12.6473 960.603 88.4578 1016.48 195.857 996.782C303.255 977.087 377.955 888.973 368.18 796.661C368.011 795.157 367.534 793.703 366.778 792.391C366.022 791.08 365.003 789.938 363.786 789.038C362.569 788.137 361.179 787.498 359.703 787.159C358.228 786.82 356.698 786.789 355.21 787.068L-27.5262 857.256Z" fill="black" stroke="#303030" stroke-width="4.64849" stroke-miterlimit="10"/>
<path d="M77.7122 788.989C73.9337 787.783 71.7341 784.102 72.799 780.768C73.8639 777.434 77.7901 775.709 81.5686 776.916C85.347 778.123 87.5469 781.804 86.4819 785.138C85.417 788.472 81.4906 790.196 77.7122 788.989Z" stroke="#86A71B" stroke-width="4.05013" stroke-miterlimit="10"/>
<path d="M278.604 766.344C274.18 767.155 270.2 765.661 269.713 763.007C269.226 760.353 272.418 757.543 276.842 756.732C281.265 755.921 285.246 757.415 285.733 760.069C286.22 762.724 283.028 765.533 278.604 766.344Z" stroke="#86A71B" stroke-width="4.05968" stroke-miterlimit="10"/>
<path d="M23.4359 819.761C19.8968 820.41 16.699 819.143 16.2934 816.931C15.8877 814.719 18.4279 812.4 21.967 811.751C25.506 811.102 28.7038 812.369 29.1095 814.581C29.5151 816.793 26.9749 819.112 23.4359 819.761Z" stroke="#86A71B" stroke-width="4.05968" stroke-miterlimit="10"/>
<path d="M97.9906 728.849C89.1567 722.068 86.7329 710.399 92.5768 702.786C98.4208 695.172 110.319 694.497 119.153 701.277C127.987 708.058 130.411 719.726 124.567 727.34C118.723 734.954 106.824 735.629 97.9906 728.849Z" fill="white" stroke="#FF895A" stroke-width="3.09899" stroke-miterlimit="10"/>
<path d="M98.2859 712.689C98.2859 712.689 102.244 703.485 109.837 706.332C117.43 709.178 120.798 719.87 114.207 722.487C107.616 725.103 103.593 718.786 103.844 715.909C104.095 713.031 107.331 708.646 110.516 714.189C113.702 719.731 110.732 718.885 110.732 718.885" fill="white"/>
<path d="M98.2859 712.689C98.2859 712.689 102.244 703.485 109.837 706.332C117.43 709.178 120.798 719.87 114.207 722.487C107.616 725.103 103.593 718.786 103.844 715.909C104.095 713.031 107.331 708.646 110.516 714.189C113.702 719.731 110.732 718.885 110.732 718.885" stroke="#FF9779" stroke-width="0.878048" stroke-miterlimit="10"/>
<path d="M123.327 742.474C114.736 735.22 114.594 721.26 123.009 711.295C131.423 701.33 145.209 699.132 153.8 706.386C162.391 713.64 162.534 727.6 154.119 737.565C145.704 747.53 131.918 749.728 123.327 742.474Z" fill="white" stroke="#FF895A" stroke-width="3.09899" stroke-miterlimit="10"/>
<path d="M135.237 736.399C135.237 736.399 124.675 731.266 128.421 722.531C132.168 713.796 144.866 710.441 147.516 718.301C150.166 726.16 142.587 730.431 139.245 730.084C135.902 729.736 130.905 725.602 137.584 722.109C144.262 718.616 143.1 722.124 143.1 722.124" fill="white"/>
<path d="M135.237 736.399C135.237 736.399 124.675 731.266 128.421 722.531C132.168 713.796 144.866 710.441 147.516 718.301C150.166 726.16 142.587 730.431 139.245 730.084C135.902 729.736 130.905 725.602 137.584 722.109C144.262 718.616 143.1 722.124 143.1 722.124" stroke="#FF9779" stroke-width="1.033" stroke-miterlimit="10"/>
<path d="M186.333 785.024C182.585 781.794 183.841 774.193 189.139 768.048C194.436 761.902 201.768 759.538 205.515 762.768C209.263 765.998 208.007 773.598 202.709 779.744C197.412 785.89 190.08 788.254 186.333 785.024Z" stroke="#86A71B" stroke-width="4.05968" stroke-miterlimit="10"/>
<path d="M187.928 665.681C177.308 651.958 184.569 628.552 204.146 613.401C223.722 598.25 248.202 597.092 258.822 610.814C269.442 624.536 262.181 647.942 242.604 663.093C223.027 678.244 198.548 679.403 187.928 665.681Z" fill="white" stroke="#A5A5A5" stroke-width="4.64849" stroke-miterlimit="10"/>
<path d="M181.51 658.46C172.757 647.149 181.531 625.698 201.107 610.547C220.684 595.396 243.65 592.283 252.404 603.593C261.158 614.904 252.384 636.356 232.807 651.507C213.23 666.657 190.264 669.771 181.51 658.46Z" fill="white" stroke="#A5A5A5" stroke-width="4.64849" stroke-miterlimit="10"/>
<path d="M189.18 646.354C185.244 641.268 189.192 631.619 197.998 624.803C206.805 617.988 217.135 616.586 221.072 621.672C225.008 626.758 221.06 636.407 212.253 643.222C203.447 650.038 193.116 651.44 189.18 646.354Z" fill="#F9E100" stroke="#A5A5A5" stroke-width="4.64849" stroke-miterlimit="10"/>
<path d="M364.223 826.813L353.791 839.275C351.684 841.268 349.139 842.739 346.36 843.567C343.581 844.396 340.646 844.56 337.792 844.046L333.173 843.238C330.45 842.742 327.65 842.866 324.982 843.599C322.313 844.332 319.843 845.656 317.755 847.473L307.459 856.431C305.272 858.332 302.668 859.691 299.857 860.399C297.047 861.108 294.11 861.144 291.283 860.507L278.761 857.687C276.066 857.086 273.271 857.094 270.579 857.711C267.888 858.328 265.368 859.537 263.204 861.252L247.088 874.143C244.641 876.104 241.734 877.407 238.643 877.931C235.551 878.454 232.377 878.18 229.422 877.134L220.682 874.084C217.383 872.928 213.824 872.733 210.418 873.522C207.013 874.311 203.902 876.05 201.446 878.538L194.796 885.256C192.385 887.703 189.338 889.429 185.999 890.237C182.659 891.046 179.161 890.905 175.897 889.831L163.176 885.656C160.061 884.632 156.729 884.456 153.524 885.146C150.318 885.836 147.354 887.366 144.936 889.581L137.547 896.334C135.044 898.631 131.955 900.192 128.62 900.844C125.286 901.497 121.837 901.215 118.652 900.031L106.21 895.391C103.642 894.439 100.894 894.072 98.1664 894.314C95.4384 894.557 92.7985 895.403 90.4383 896.793L74.6071 906.088C72.3356 907.422 69.8048 908.255 67.1846 908.53C64.5645 908.805 61.9158 908.515 59.4168 907.681L42.734 902.13C39.53 901.06 36.0937 900.891 32.8001 901.641C29.5065 902.391 26.482 904.031 24.0573 906.383V906.383C21.4593 908.897 18.1817 910.595 14.6294 911.267C11.077 911.939 7.40558 911.556 4.06873 910.164L-21.2176 900.859" stroke="#A50000" stroke-width="8.26398" stroke-miterlimit="10" stroke-linecap="round"/>
<path d="M7.7378 698.696C8.43284 699.223 8.96364 699.936 9.26781 700.753C9.57198 701.57 9.63692 702.457 9.45528 703.31C9.06978 705.029 8.08348 706.553 6.67381 707.609C5.22508 708.756 3.49404 709.491 1.66287 709.737C-0.168297 709.984 -2.03182 709.732 -3.73208 709.009C-5.40516 708.236 -6.81068 706.983 -7.76965 705.409C-8.72861 703.835 -9.19779 702.011 -9.11757 700.17C-11.459 700.612 -13.264 698.08 -13.8187 695.768C-14.7326 691.974 -13.6267 687.268 -10.0729 685.679C-9.1369 685.29 -8.13334 685.089 -7.11971 685.088C-6.10608 685.088 -5.10241 685.287 -4.16599 685.675C-2.29952 686.525 -0.617981 687.733 0.782897 689.231C1.25365 688.605 1.84906 688.083 2.53194 687.698C3.21482 687.313 3.97019 687.075 4.75006 686.997C5.52993 686.919 6.31729 687.004 7.06266 687.246C7.80803 687.489 8.49521 687.883 9.0804 688.404C12.8571 692.828 7.7378 698.696 7.7378 698.696Z" fill="white"/>
<g clip-path="url(#clip4_2416_4780)">
<path d="M388.186 737.548L387.277 729.494C387.224 729.088 387.276 728.676 387.427 728.296C387.578 727.916 387.823 727.581 388.14 727.322C388.456 727.063 388.834 726.889 389.236 726.817C389.638 726.745 390.053 726.776 390.44 726.908L392.211 727.483C392.75 727.665 393.337 727.649 393.866 727.438C394.395 727.227 394.833 726.836 395.1 726.333L397.676 721.591C397.962 721.07 398.429 720.671 398.989 720.47C399.549 720.269 400.163 720.279 400.716 720.499L403.378 721.564C403.929 721.791 404.545 721.805 405.105 721.603C405.666 721.402 406.132 721 406.413 720.475L408.862 716.013C409.164 715.454 409.675 715.037 410.283 714.854C410.891 714.67 411.547 714.734 412.108 715.033L413.182 715.578C413.749 715.866 414.406 715.921 415.013 715.732C415.62 715.542 416.129 715.122 416.43 714.562L418.301 711.084C418.574 710.564 419.028 710.163 419.577 709.955C420.126 709.747 420.733 709.747 421.282 709.955L423.075 710.613C423.543 710.786 424.052 710.812 424.535 710.687C425.018 710.561 425.45 710.29 425.774 709.911L427.772 707.542C428.004 707.261 428.297 707.037 428.629 706.886C428.96 706.735 429.322 706.662 429.686 706.671C430.05 706.68 430.407 706.772 430.731 706.94C431.054 707.107 431.336 707.346 431.553 707.638L436.11 713.608C436.332 713.891 436.488 714.219 436.566 714.569C436.644 714.92 436.643 715.283 436.562 715.633C436.482 715.982 436.324 716.31 436.101 716.591C435.877 716.871 435.594 717.099 435.271 717.256L391.718 739.471C391.365 739.652 390.974 739.744 390.577 739.739C390.181 739.734 389.792 739.632 389.444 739.442C389.096 739.253 388.799 738.981 388.58 738.651C388.361 738.321 388.225 737.942 388.186 737.548Z" fill="#CA3C00" stroke="#303030" stroke-width="2.70551" stroke-miterlimit="10"/>
<path d="M413.13 786.44L419.116 791.904C419.413 792.184 419.777 792.385 420.174 792.486C420.57 792.586 420.985 792.585 421.381 792.48C421.776 792.376 422.138 792.172 422.433 791.889C422.728 791.606 422.946 791.252 423.066 790.861L423.64 789.09C423.81 788.546 424.168 788.081 424.649 787.776C425.13 787.471 425.703 787.347 426.267 787.426L431.632 788.138C432.223 788.221 432.824 788.082 433.318 787.746C433.812 787.411 434.163 786.904 434.304 786.323L435.005 783.543C435.145 782.964 435.495 782.457 435.987 782.122C436.479 781.786 437.078 781.645 437.668 781.725L442.718 782.362C443.347 782.446 443.984 782.278 444.49 781.893C444.996 781.509 445.329 780.94 445.417 780.311L445.603 779.115C445.65 778.803 445.757 778.502 445.919 778.231C446.081 777.96 446.295 777.724 446.549 777.535C446.803 777.347 447.091 777.211 447.398 777.134C447.704 777.057 448.023 777.041 448.335 777.088L452.249 777.615C452.83 777.699 453.422 777.567 453.913 777.245C454.403 776.923 454.759 776.432 454.913 775.865L455.431 774.022C455.561 773.539 455.838 773.109 456.224 772.791C456.61 772.473 457.085 772.284 457.584 772.249L460.674 772.022C461.037 771.999 461.391 771.893 461.708 771.714C462.025 771.534 462.296 771.284 462.503 770.984C462.709 770.684 462.844 770.341 462.899 769.98C462.953 769.62 462.925 769.252 462.816 768.905L460.658 761.711C460.559 761.366 460.384 761.048 460.147 760.78C459.909 760.512 459.614 760.301 459.284 760.161C458.955 760.022 458.597 759.957 458.24 759.973C457.882 759.99 457.532 760.085 457.216 760.254L413.663 782.469C413.306 782.643 412.998 782.902 412.766 783.223C412.534 783.545 412.385 783.919 412.332 784.312C412.279 784.705 412.324 785.105 412.464 785.476C412.603 785.847 412.832 786.178 413.13 786.44Z" fill="#CA3C00" stroke="#303030" stroke-width="2.70551" stroke-miterlimit="10"/>
<path d="M428.41 715.721L394.251 733.145C389.116 735.764 387.076 742.05 389.696 747.185L406.404 779.941C409.023 785.076 415.309 787.115 420.444 784.496L454.603 767.072C459.738 764.453 461.777 758.167 459.158 753.032L442.45 720.277C439.831 715.142 433.545 713.102 428.41 715.721Z" fill="#CA3C00" stroke="#303030" stroke-width="2.62134" stroke-miterlimit="10"/>
<path d="M434.969 729.546L401.592 746.571C400.456 747.15 400.005 748.541 400.584 749.677L404.496 757.346C405.076 758.482 406.466 758.933 407.602 758.354L440.979 741.329C442.115 740.749 442.566 739.359 441.987 738.223L438.074 730.554C437.495 729.418 436.105 728.967 434.969 729.546Z" fill="#F5F5F5"/>
</g>
<path d="M284.38 482.854H286.972V481.63H284.38V475.186H282.904V491.332H284.38V482.854ZM274.066 486.004V476.752H272.608V487.246H273.886C276.352 487.246 278.818 487.066 281.572 486.508L281.392 485.284C278.782 485.806 276.388 486.004 274.066 486.004ZM303.44 481.342V480.1H301.046V475.168H299.57V486.994H301.046V481.342H303.44ZM289.184 484.096H296.6V476.626H289.184V484.096ZM290.624 477.814H295.16V482.926H290.624V477.814ZM301.766 489.766H292.478V485.896H291.002V490.972H301.766V489.766ZM318.235 491.368V475.186H316.759V491.368H318.235ZM310.315 476.374C307.813 476.374 305.995 477.922 305.995 480.172C305.995 482.422 307.813 483.97 310.315 483.97C312.835 483.97 314.635 482.422 314.635 480.172C314.635 477.922 312.835 476.374 310.315 476.374ZM310.315 477.634C311.989 477.634 313.195 478.66 313.195 480.172C313.195 481.666 311.989 482.71 310.315 482.71C308.641 482.71 307.435 481.666 307.435 480.172C307.435 478.66 308.641 477.634 310.315 477.634ZM305.185 486.58L305.365 487.822C308.299 487.822 312.169 487.786 315.823 487.12L315.697 486.022C312.133 486.544 308.155 486.58 305.185 486.58ZM333.689 484.114V482.134H340.313V480.928H338.045C338.549 478.75 338.549 477.22 338.549 476.356V475.762H333.455V476.95H337.109C337.091 477.868 337.001 479.182 336.569 480.928H331.691C332.249 478.75 332.249 477.166 332.249 476.32V475.762H327.083V476.95H330.809C330.755 477.868 330.683 479.182 330.197 480.928H325.661V482.134H332.213V484.114H327.407V485.284H336.965V487.03H327.443V491.152H338.927V489.982H328.919V488.146H338.423V484.114H333.689ZM342.922 483.502L343.552 484.708C345.946 484.186 348.538 482.602 349.546 480.352C350.554 482.548 353.146 484.15 355.594 484.636L356.188 483.448C353.38 483.016 350.302 480.784 350.302 478.21V477.868H355.648V476.662H343.426V477.868H348.772V478.21C348.772 480.802 345.712 483.016 342.922 483.502ZM356.872 489.262V488.038H350.284V484.132H348.808V488.038H342.22V489.262H356.872ZM358.832 478.03H368.354V476.842H364.322V475.024H362.846V476.842H358.832V478.03ZM371.306 480.532H373.7V479.29H371.306V475.186H369.83V484.564H371.306V480.532ZM367.454 481.612C367.454 479.902 365.888 478.804 363.584 478.804C361.28 478.804 359.732 479.902 359.732 481.612C359.732 483.34 361.28 484.438 363.584 484.438C365.888 484.438 367.454 483.34 367.454 481.612ZM361.136 481.612C361.136 480.532 362.072 479.902 363.584 479.902C365.096 479.902 366.05 480.532 366.05 481.612C366.05 482.692 365.096 483.322 363.584 483.322C362.072 483.322 361.136 482.692 361.136 481.612ZM371.306 485.284H369.848V486.994H362.612V485.284H361.154V491.116H371.306V485.284ZM362.612 488.146H369.848V489.928H362.612V488.146ZM382.627 481.054C386.173 481.054 388.297 480.082 388.297 478.264C388.297 476.446 386.173 475.456 382.627 475.456C379.081 475.456 376.957 476.446 376.957 478.264C376.957 480.082 379.081 481.054 382.627 481.054ZM382.627 476.572C385.309 476.572 386.785 477.184 386.785 478.264C386.785 479.344 385.309 479.956 382.627 479.956C379.945 479.956 378.469 479.344 378.469 478.264C378.469 477.184 379.945 476.572 382.627 476.572ZM389.935 483.34V482.152H375.319V483.34H389.935ZM388.549 490H378.577V488.362H388.063V484.726H377.083V485.842H386.605V487.282H377.137V491.152H388.549V490ZM397.667 477.202H407.207V477.382C407.207 478.624 407.207 479.83 406.775 481.486L408.215 481.648C408.665 479.992 408.665 478.678 408.665 477.382V476.014H397.667V477.202ZM410.483 483.916V482.71H403.391V479.614H401.915V482.71H395.957V483.916H410.483ZM403.157 485.392C399.719 485.392 397.541 486.49 397.541 488.362C397.541 490.18 399.719 491.314 403.157 491.314C406.595 491.314 408.791 490.18 408.791 488.362C408.791 486.49 406.595 485.392 403.157 485.392ZM403.157 490.162C400.637 490.162 399.017 489.496 399.017 488.362C399.017 487.21 400.637 486.526 403.157 486.526C405.695 486.526 407.315 487.21 407.315 488.362C407.315 489.514 405.695 490.162 403.157 490.162ZM419.751 482.872C423.117 482.872 425.403 481.522 425.403 479.344C425.403 477.184 423.117 475.834 419.751 475.834C416.385 475.834 414.117 477.184 414.117 479.344C414.117 481.522 416.385 482.872 419.751 482.872ZM419.751 477.022C422.217 477.022 423.891 477.922 423.891 479.344C423.891 480.784 422.217 481.684 419.751 481.684C417.303 481.684 415.629 480.784 415.629 479.344C415.629 477.922 417.303 477.022 419.751 477.022ZM423.279 485.59H427.095V484.384H412.479V485.59H416.241V491.332H417.735V485.59H421.785V491.332H423.279V485.59ZM441.476 483.07H444.122V481.828H441.476V475.204H440V491.332H441.476V483.07ZM438.47 477.778H434.492V475.384H433.016V477.778H428.948V478.966H438.47V477.778ZM433.772 480.298C431.504 480.298 429.866 481.864 429.866 484.024C429.866 486.238 431.504 487.732 433.772 487.732C436.076 487.732 437.714 486.238 437.714 484.024C437.714 481.864 436.076 480.298 433.772 480.298ZM433.772 486.508C432.314 486.508 431.252 485.464 431.252 484.024C431.252 482.584 432.314 481.522 433.772 481.522C435.266 481.522 436.31 482.584 436.31 484.024C436.31 485.464 435.266 486.508 433.772 486.508ZM447.145 478.012H456.991V478.408C456.991 480.334 457.009 482.638 456.379 485.716L457.855 485.878C458.485 482.62 458.467 480.424 458.467 478.408V476.806H447.145V478.012ZM460.213 489.064V487.858H452.761V482.08H451.285V487.858H445.615V489.064H460.213ZM479.393 491.368V475.186H477.917V491.368H479.393ZM470.879 476.428C468.485 476.428 466.775 478.624 466.775 482.062C466.775 485.5 468.485 487.696 470.879 487.696C473.273 487.696 474.983 485.5 474.983 482.062C474.983 478.624 473.273 476.428 470.879 476.428ZM470.879 477.76C472.445 477.76 473.561 479.452 473.561 482.062C473.561 484.69 472.445 486.382 470.879 486.382C469.295 486.382 468.179 484.69 468.179 482.062C468.179 479.452 469.295 477.76 470.879 477.76ZM494.943 487.426H496.365V475.204H494.943V487.426ZM483.459 484.384H489.723V481.072H491.883V486.958H493.269V475.51H491.883V479.866H489.723V476.482H488.337V479.2H484.863V476.482H483.459V484.384ZM484.863 480.37H488.337V483.196H484.863V480.37ZM496.833 490.972V489.766H487.311V485.806H485.835V490.972H496.833ZM501.17 485.086H512.258V483.898H502.664V481.342H511.736V480.172H502.664V477.778H512.096V476.59H501.17V485.086ZM513.932 489.244V488.038H499.28V489.244H513.932ZM529.572 491.332V475.186H528.168V491.332H529.572ZM526.368 475.546H524.964V481.468H522.93C522.732 478.426 521.454 476.536 519.51 476.536C517.404 476.536 516.054 478.678 516.054 482.134C516.054 485.626 517.404 487.786 519.51 487.786C521.49 487.786 522.786 485.842 522.93 482.674H524.964V490.54H526.368V475.546ZM519.51 486.418C518.214 486.418 517.404 484.816 517.404 482.134C517.404 479.542 518.214 477.904 519.51 477.904C520.752 477.904 521.598 479.542 521.598 482.134C521.598 484.816 520.806 486.418 519.51 486.418ZM545.188 484.114L545.89 482.98C543.514 482.26 541.948 480.46 541.948 478.516V478.264H545.512V477.076H541.948V475.114H540.472V477.076H536.89V478.264H540.472V478.516C540.472 480.658 538.816 482.548 536.44 483.268L537.16 484.42C539.104 483.79 540.526 482.548 541.228 480.82C541.948 482.35 543.316 483.538 545.188 484.114ZM548.968 480.496H551.362V479.272H548.968V475.186H547.492V484.744H548.968V480.496ZM548.968 485.5H538.834V491.116H548.968V485.5ZM547.51 489.928H540.274V486.67H547.51V489.928ZM566.301 491.368V475.186H564.825V478.804H560.685C559.983 477.292 558.831 476.428 557.319 476.428C554.961 476.428 553.287 478.624 553.287 482.062C553.287 485.5 554.961 487.696 557.319 487.696C558.903 487.696 560.127 486.76 560.793 485.104H564.825V491.368H566.301ZM557.319 486.382C555.771 486.382 554.691 484.69 554.691 482.062C554.691 479.452 555.771 477.76 557.319 477.76C558.831 477.76 559.947 479.452 559.947 482.062C559.947 484.69 558.831 486.382 557.319 486.382ZM564.825 480.01V483.898H561.153C561.279 483.412 561.333 482.8 561.333 482.062C561.333 481.324 561.243 480.64 561.099 480.01H564.825ZM581.996 483.07H584.642V481.828H581.996V475.204H580.52V491.332H581.996V483.07ZM578.99 477.778H575.012V475.384H573.536V477.778H569.468V478.966H578.99V477.778ZM574.292 480.298C572.024 480.298 570.386 481.864 570.386 484.024C570.386 486.238 572.024 487.732 574.292 487.732C576.596 487.732 578.234 486.238 578.234 484.024C578.234 481.864 576.596 480.298 574.292 480.298ZM574.292 486.508C572.834 486.508 571.772 485.464 571.772 484.024C571.772 482.584 572.834 481.522 574.292 481.522C575.786 481.522 576.83 482.584 576.83 484.024C576.83 485.464 575.786 486.508 574.292 486.508ZM598.536 482.944H601.2V481.702H598.536V475.204H597.06V491.332H598.536V482.944ZM591.552 480.118V478.066H595.134V476.842H586.404V478.066H590.094V480.118C590.094 482.854 588.15 485.914 585.846 487.066L586.71 488.236C588.51 487.336 590.112 485.23 590.832 482.89C591.552 485.05 593.082 486.922 594.882 487.84L595.728 486.652C593.388 485.554 591.552 482.692 591.552 480.118ZM605.141 478.39L605.195 476.518H603.521L603.575 478.39L603.791 486.778H604.925L605.141 478.39ZM603.539 490.234H605.177V488.542H603.539V490.234Z" fill="#979797"/>
<g clip-path="url(#clip5_2416_4780)">
<path d="M780.276 284.852C778.055 291.181 776.115 297.212 771.242 296.551C766.37 295.891 701.001 268.336 693.723 265.104C686.444 261.872 681.119 258.191 681.166 255.161C681.214 252.13 699.316 247.954 699.316 247.954L780.276 284.852Z" fill="#EAC8A3"/>
<path d="M782.218 276.707C779.629 284.582 783.35 287.966 771.086 284.546C758.823 281.126 727.779 270.321 715.176 266.026C702.572 261.731 685.95 251.284 685.95 251.284L689.215 237.576L782.218 276.707Z" fill="white"/>
<path d="M781.94 277.875C780.308 281.727 778.404 281.273 769.949 278.76C761.493 276.247 731.34 265.57 720.504 262.49C709.668 259.41 685.565 248.675 685.565 248.675L686.945 240.198L781.94 277.875Z" fill="#D79187"/>
<path d="M786.922 263.716C783.576 273.289 785.695 281.286 774.384 278.093C763.072 274.9 734.71 265.149 722.196 260.67C709.681 256.191 685.578 245.456 685.578 245.456L689.539 228.822L755.368 256.557L786.922 263.716Z" fill="#EAC8A3"/>
<path d="M789.083 258.556C786.855 264.804 786.569 270.23 765.348 262.18C744.127 254.129 726.615 248.161 712.302 242.405C697.989 236.648 687.967 232.114 687.967 232.114L691.777 216.113L789.083 258.556Z" fill="white"/>
<path d="M790.126 255.353C788.496 262.198 787.882 260.553 771.446 255.64C755.011 250.727 732.786 238.442 718.618 234.568C704.45 230.695 695.269 225.042 692.386 224.325C689.503 223.609 691.019 219.504 691.019 219.504L761.493 236.287L790.126 255.353Z" fill="#D79187"/>
<path d="M796.264 240.071C793.373 245.876 791.398 258.393 786.638 257.259C781.878 256.126 749.068 241.819 734.173 236.774C719.279 231.728 693.996 223.834 692.919 222.019C691.842 220.204 689.069 202.701 698.304 203.821C707.539 204.941 744.861 219.334 763.425 223.755C781.99 228.175 796.264 240.071 796.264 240.071Z" fill="#EAC8A3"/>
<path d="M697.221 195.506C713.638 193.482 737.563 186.632 754.867 203.74C772.171 220.847 798.342 235.571 796.264 240.072C794.186 244.572 759.032 223.213 736.408 216.827C713.785 210.44 699.227 200.979 696.405 209.049C693.583 217.118 684.716 256.465 687.486 259.622C690.255 262.779 678.943 259.585 679.93 253.327C680.918 247.069 688.929 196.529 697.221 195.506Z" fill="white" stroke="#DDDDDD" stroke-width="3" stroke-miterlimit="10"/>
<path d="M752.474 202.171C750.796 209.219 745.35 210.964 739.162 209.491C732.974 208.017 728.423 203.891 730.102 196.844C731.78 189.796 739.053 182.492 745.241 183.965C751.429 185.439 754.153 195.123 752.474 202.171Z" fill="#D9564D" stroke="#FFA19F" stroke-width="2" stroke-miterlimit="10"/>
<path d="M741.491 186.464C741.399 186.556 741.303 186.643 741.202 186.725L741.252 186.687C741.141 186.775 741.025 186.856 740.903 186.928C740.847 186.962 740.808 187.016 740.793 187.079C740.778 187.142 740.788 187.209 740.823 187.264C740.857 187.319 740.912 187.358 740.975 187.373C741.038 187.389 741.105 187.378 741.161 187.344C741.409 187.191 741.638 187.009 741.843 186.802C741.887 186.755 741.911 186.692 741.91 186.628C741.908 186.563 741.882 186.501 741.835 186.456C741.787 186.413 741.725 186.39 741.661 186.391C741.597 186.393 741.536 186.419 741.491 186.464Z" fill="white"/>
<path d="M737.827 189.587L737.806 189.672L737.821 189.61C737.811 189.716 737.786 189.819 737.748 189.918L737.763 189.851C737.725 189.95 737.674 190.044 737.612 190.13C737.581 190.187 737.574 190.253 737.593 190.315C737.601 190.346 737.616 190.374 737.636 190.399C737.656 190.424 737.681 190.444 737.71 190.458C737.738 190.474 737.77 190.485 737.803 190.488C737.836 190.492 737.869 190.488 737.901 190.478L737.957 190.452C737.993 190.43 738.023 190.399 738.044 190.363C738.206 190.13 738.296 189.854 738.303 189.57C738.302 189.538 738.295 189.506 738.281 189.477C738.268 189.448 738.249 189.421 738.225 189.399C738.201 189.378 738.173 189.36 738.143 189.349C738.112 189.338 738.08 189.333 738.048 189.335C737.984 189.339 737.925 189.367 737.881 189.413C737.837 189.459 737.813 189.52 737.812 189.583L737.827 189.587Z" fill="white"/>
<path d="M733.823 193.434L733.661 194.115C733.646 194.177 733.656 194.244 733.69 194.299C733.725 194.353 733.779 194.393 733.842 194.408C733.905 194.423 733.972 194.412 734.027 194.379C734.082 194.345 734.122 194.291 734.137 194.228L734.299 193.547C734.314 193.485 734.303 193.419 734.269 193.364C734.235 193.309 734.18 193.269 734.117 193.254C734.054 193.239 733.987 193.25 733.932 193.284C733.877 193.317 733.838 193.371 733.823 193.434Z" fill="white"/>
<path d="M744.905 190.674L744.783 191.184C744.77 191.247 744.781 191.312 744.815 191.367C744.832 191.394 744.854 191.418 744.88 191.437C744.906 191.456 744.936 191.469 744.967 191.477C744.999 191.484 745.031 191.485 745.063 191.48C745.095 191.475 745.126 191.464 745.153 191.447C745.206 191.412 745.244 191.359 745.259 191.297L745.381 190.787C745.389 190.756 745.392 190.723 745.387 190.691C745.383 190.659 745.372 190.628 745.354 190.601C745.337 190.573 745.315 190.55 745.288 190.531C745.261 190.513 745.231 190.5 745.199 190.494C745.137 190.479 745.071 190.488 745.017 190.52C744.961 190.555 744.921 190.61 744.905 190.674Z" fill="white"/>
<path d="M748.113 188.54L748.167 189.177C748.17 189.241 748.197 189.301 748.243 189.345C748.291 189.389 748.353 189.413 748.418 189.412C748.451 189.411 748.482 189.404 748.512 189.39C748.541 189.377 748.568 189.358 748.59 189.335C748.612 189.311 748.629 189.283 748.64 189.253C748.651 189.223 748.656 189.191 748.655 189.159L748.599 188.526C748.599 188.494 748.591 188.463 748.578 188.433C748.565 188.404 748.547 188.378 748.523 188.356C748.5 188.334 748.472 188.317 748.442 188.306C748.412 188.295 748.38 188.29 748.348 188.291C748.284 188.293 748.224 188.32 748.179 188.366C748.142 188.418 748.127 188.482 748.137 188.546L748.113 188.54Z" fill="white"/>
<path d="M740.334 196.178L740.172 196.859C740.157 196.922 740.168 196.988 740.202 197.043C740.236 197.098 740.291 197.137 740.354 197.152C740.417 197.167 740.484 197.157 740.539 197.123C740.594 197.089 740.633 197.035 740.648 196.972L740.81 196.292C740.825 196.229 740.815 196.163 740.78 196.108C740.746 196.053 740.692 196.014 740.629 195.999C740.566 195.984 740.499 195.994 740.444 196.028C740.389 196.061 740.349 196.116 740.334 196.178Z" fill="white"/>
<path d="M748.354 196.355L748.232 196.866C748.219 196.928 748.23 196.994 748.264 197.048C748.281 197.076 748.303 197.099 748.329 197.118C748.356 197.137 748.385 197.151 748.417 197.158C748.448 197.166 748.481 197.167 748.512 197.162C748.544 197.157 748.575 197.146 748.602 197.129C748.655 197.094 748.693 197.04 748.708 196.979L748.83 196.469C748.839 196.437 748.841 196.405 748.836 196.373C748.832 196.341 748.821 196.31 748.804 196.283C748.787 196.255 748.764 196.231 748.737 196.213C748.71 196.194 748.68 196.182 748.648 196.176C748.586 196.16 748.521 196.17 748.466 196.202C748.41 196.237 748.37 196.292 748.354 196.355Z" fill="white"/>
<path d="M744.873 194.627L744.792 194.968C744.778 195.029 744.788 195.094 744.82 195.149C744.846 195.189 744.883 195.22 744.927 195.24C744.971 195.259 745.019 195.266 745.066 195.258C745.114 195.251 745.158 195.231 745.194 195.199C745.23 195.168 745.255 195.127 745.268 195.081L745.349 194.741C745.363 194.677 745.352 194.61 745.318 194.553C745.283 194.501 745.229 194.463 745.168 194.448C745.136 194.439 745.104 194.436 745.071 194.441C745.039 194.445 745.008 194.456 744.981 194.473C744.926 194.509 744.888 194.564 744.873 194.627Z" fill="white"/>
<path d="M740.534 191.431L740.432 191.857C740.419 191.921 740.43 191.987 740.463 192.044C740.498 192.097 740.552 192.134 740.614 192.15C740.645 192.158 740.678 192.161 740.71 192.156C740.742 192.152 740.773 192.141 740.801 192.124C740.829 192.107 740.853 192.085 740.871 192.058C740.889 192.032 740.902 192.002 740.908 191.97L741.01 191.545C741.025 191.483 741.015 191.418 740.982 191.363C740.947 191.308 740.892 191.268 740.828 191.252C740.765 191.238 740.699 191.249 740.644 191.283C740.59 191.317 740.551 191.37 740.534 191.431Z" fill="white"/>
<path d="M744.996 186.125L744.784 186.614C744.768 186.642 744.758 186.673 744.754 186.705C744.75 186.737 744.753 186.769 744.762 186.8C744.771 186.831 744.786 186.86 744.807 186.885C744.827 186.91 744.852 186.931 744.881 186.947C744.938 186.977 745.005 186.984 745.067 186.966C745.098 186.957 745.126 186.942 745.15 186.923C745.175 186.903 745.195 186.878 745.21 186.85L745.427 186.363C745.462 186.308 745.478 186.243 745.471 186.178C745.451 186.116 745.408 186.065 745.35 186.034C745.293 186.004 745.225 185.997 745.163 186.015C745.103 186.036 745.053 186.077 745.02 186.131L744.996 186.125Z" fill="white"/>
<path d="M749.51 202.929L749.328 203.694C749.313 203.757 749.324 203.823 749.358 203.878C749.392 203.933 749.446 203.972 749.509 203.988C749.573 204.001 749.638 203.99 749.693 203.957C749.748 203.923 749.788 203.87 749.804 203.808L749.986 203.042C750.001 202.979 749.99 202.913 749.956 202.858C749.922 202.803 749.868 202.764 749.804 202.749C749.741 202.734 749.675 202.744 749.62 202.778C749.564 202.812 749.525 202.866 749.51 202.929Z" fill="white"/>
<path d="M745.131 203.055L745.073 203.301C745.058 203.33 745.051 203.362 745.05 203.395C745.055 203.427 745.066 203.457 745.085 203.483C745.1 203.511 745.122 203.533 745.15 203.549C745.177 203.565 745.208 203.573 745.24 203.57L745.302 203.585C745.356 203.583 745.408 203.563 745.45 203.529C745.491 203.495 745.521 203.448 745.533 203.395L745.594 203.14C745.608 203.112 745.615 203.081 745.615 203.05C745.611 203.019 745.599 202.988 745.581 202.962C745.566 202.935 745.544 202.912 745.516 202.897C745.488 202.883 745.457 202.875 745.426 202.875L745.364 202.861C745.322 202.863 745.281 202.876 745.244 202.897C745.19 202.931 745.151 202.984 745.134 203.045L745.131 203.055Z" fill="white"/>
<path d="M734.768 198.224L734.57 199.056C734.556 199.119 734.568 199.184 734.601 199.239C734.635 199.293 734.689 199.333 734.752 199.349C734.815 199.363 734.88 199.352 734.935 199.318C734.99 199.285 735.03 199.231 735.046 199.169L735.244 198.337C735.258 198.275 735.246 198.209 735.212 198.155C735.178 198.1 735.125 198.061 735.062 198.044C734.999 198.031 734.933 198.042 734.878 198.075C734.824 198.109 734.784 198.162 734.768 198.224Z" fill="white"/>
<path d="M732.467 202.058L732.424 202.242C732.407 202.269 732.4 202.301 732.402 202.332C732.402 202.363 732.412 202.394 732.432 202.419C732.447 202.447 732.469 202.471 732.496 202.489C732.525 202.504 732.558 202.511 732.591 202.512L732.653 202.526C732.695 202.527 732.737 202.514 732.772 202.49L732.821 202.452C732.851 202.421 732.872 202.383 732.883 202.342L732.927 202.157C732.941 202.129 732.948 202.099 732.948 202.067C732.947 202.036 732.936 202.006 732.919 201.98C732.903 201.952 732.881 201.928 732.855 201.91C732.827 201.896 732.796 201.889 732.764 201.889L732.698 201.873C732.655 201.875 732.614 201.887 732.578 201.909L732.529 201.948C732.501 201.98 732.482 202.018 732.472 202.059L732.467 202.058Z" fill="white"/>
<path d="M738.686 200.716L738.642 200.9C738.626 200.927 738.618 200.958 738.621 200.99C738.621 201.021 738.631 201.052 738.65 201.077C738.666 201.105 738.688 201.129 738.714 201.147C738.744 201.162 738.776 201.169 738.81 201.17L738.871 201.184C738.914 201.185 738.956 201.172 738.991 201.148L739.04 201.11C739.07 201.079 739.091 201.041 739.102 201L739.145 200.815C739.16 200.787 739.167 200.757 739.167 200.725C739.165 200.694 739.155 200.664 739.137 200.638C739.122 200.61 739.1 200.586 739.073 200.568C739.045 200.554 739.014 200.547 738.983 200.547L738.916 200.531C738.874 200.534 738.833 200.546 738.797 200.567L738.748 200.606C738.72 200.638 738.701 200.676 738.691 200.717L738.686 200.716Z" fill="white"/>
<path d="M744.372 199.053L744.328 199.238C744.314 199.265 744.307 199.296 744.307 199.327C744.309 199.358 744.319 199.388 744.336 199.414C744.352 199.444 744.376 199.468 744.405 199.486C744.433 199.5 744.464 199.507 744.495 199.507L744.557 199.522C744.6 199.524 744.642 199.511 744.676 199.485L744.726 199.447C744.757 199.417 744.778 199.379 744.787 199.337L744.831 199.153C744.845 199.125 744.853 199.094 744.852 199.063C744.841 199 744.806 198.943 744.754 198.905C744.726 198.89 744.695 198.883 744.664 198.883L744.602 198.868C744.558 198.869 744.516 198.882 744.478 198.904L744.433 198.943C744.402 198.973 744.381 199.011 744.372 199.053Z" fill="white"/>
<path d="M741.167 205.103L741.101 205.377C741.087 205.406 741.079 205.439 741.079 205.471C741.083 205.503 741.095 205.533 741.113 205.56C741.128 205.587 741.151 205.61 741.178 205.625C741.205 205.641 741.237 205.649 741.268 205.647C741.299 205.655 741.331 205.657 741.363 205.653C741.394 205.648 741.424 205.637 741.451 205.62C741.506 205.585 741.546 205.53 741.563 205.467L741.628 205.193C741.642 205.165 741.649 205.134 741.649 205.103C741.646 205.071 741.634 205.04 741.615 205.015C741.602 204.985 741.58 204.961 741.551 204.945C741.523 204.931 741.492 204.923 741.461 204.923C741.398 204.91 741.332 204.921 741.277 204.954C741.25 204.97 741.226 204.992 741.207 205.017C741.188 205.043 741.174 205.072 741.167 205.103Z" fill="white"/>
<path d="M736.55 206.046L736.483 206.325C736.467 206.352 736.46 206.384 736.462 206.415C736.465 206.446 736.475 206.476 736.492 206.502C736.507 206.529 736.529 206.552 736.556 206.567C736.585 206.582 736.615 206.589 736.647 206.589C736.711 206.603 736.779 206.592 736.835 206.559C736.888 206.524 736.926 206.471 736.941 206.409L737.008 206.13C737.024 206.103 737.031 206.072 737.029 206.041C737.028 206.009 737.017 205.979 736.999 205.954C736.982 205.927 736.961 205.903 736.936 205.884C736.906 205.869 736.873 205.861 736.84 205.861C736.777 205.847 736.712 205.859 736.657 205.892C736.603 205.926 736.563 205.979 736.546 206.041L736.55 206.046Z" fill="white"/>
<path d="M749.95 192.749C750.013 192.764 750.079 192.754 750.134 192.72C750.19 192.686 750.229 192.632 750.244 192.569C750.259 192.507 750.248 192.441 750.214 192.386C750.18 192.331 750.125 192.291 750.062 192.276C749.999 192.261 749.933 192.272 749.877 192.306C749.822 192.339 749.783 192.393 749.768 192.456C749.753 192.519 749.764 192.585 749.798 192.64C749.832 192.695 749.887 192.734 749.95 192.749Z" fill="white"/>
<path d="M736.842 194.048L736.775 194.331C736.759 194.359 736.751 194.39 736.753 194.421C736.756 194.452 736.766 194.482 736.783 194.508C736.799 194.534 736.821 194.557 736.848 194.574C736.874 194.595 736.904 194.611 736.937 194.62C737 194.633 737.066 194.622 737.121 194.589C737.175 194.555 737.214 194.502 737.232 194.44L737.298 194.161C737.307 194.13 737.306 194.097 737.296 194.066C737.294 194.035 737.284 194.004 737.266 193.979C737.252 193.95 737.23 193.926 737.202 193.909C737.174 193.895 737.143 193.887 737.112 193.887C737.047 193.873 736.98 193.884 736.924 193.917C736.87 193.951 736.832 194.005 736.817 194.067L736.842 194.048Z" fill="white"/>
<path d="M745.875 206.309L745.762 206.782C745.75 206.829 745.753 206.878 745.771 206.924C745.788 206.97 745.818 207.009 745.858 207.037C745.898 207.066 745.945 207.081 745.994 207.083C746.043 207.084 746.091 207.071 746.132 207.045C746.185 207.01 746.223 206.956 746.238 206.895L746.351 206.422C746.366 206.361 746.356 206.296 746.323 206.241C746.297 206.201 746.26 206.17 746.216 206.15C746.172 206.131 746.124 206.124 746.076 206.131C746.029 206.139 745.985 206.159 745.949 206.191C745.913 206.222 745.887 206.263 745.875 206.309Z" fill="white"/>
</g>
<path d="M1472.5 729.5C1455.83 750.333 1407.3 790.2 1346.5 783" stroke="#F7DC91" stroke-width="6" stroke-linecap="round"/>
<path d="M845 684.5C824.167 682.833 766.4 690.8 702 736" stroke="#F7DC91" stroke-width="6" stroke-linecap="round"/>
<path d="M772.5 672C763.833 669.833 739 671.5 709 695.5" stroke="#F7DC91" stroke-width="6" stroke-linecap="round"/>
<path d="M292.263 335.558V311.282H289.56V335.558H292.263ZM268.14 313.628C261.459 313.628 256.716 317.759 256.716 323.879C256.716 329.999 261.459 334.13 268.14 334.13C274.923 334.13 279.666 329.999 279.666 323.879C279.666 317.759 274.923 313.628 268.14 313.628ZM268.14 315.923C273.291 315.923 277.065 319.238 277.065 323.879C277.065 328.52 273.291 331.835 268.14 331.835C263.04 331.835 259.317 328.52 259.317 323.879C259.317 319.238 263.04 315.923 268.14 315.923ZM266.355 344.279V337.955H263.652V355.856H292.263V337.955H289.611V344.279H266.355ZM289.611 353.612H266.355V346.523H289.611V353.612ZM344.33 326.582V324.236H337.241V311.282H334.538V341.474H337.241V326.582H344.33ZM304.55 334.487H324.338V314.954H304.55V334.487ZM307.202 317.147H321.635V332.294H307.202V317.147ZM325.307 340.811V339.281H322.604V340.811C322.604 348.155 313.985 352.847 306.896 354.224L308.069 356.366C314.342 354.989 321.38 351.521 323.981 345.605C326.582 351.521 333.62 354.989 339.893 356.366L341.066 354.224C333.926 352.847 325.307 348.155 325.307 340.811ZM385.993 356.57V311.282H383.29V356.57H385.993ZM362.431 314.954C355.75 314.954 351.16 321.074 351.16 330.509C351.16 340.046 355.75 346.064 362.431 346.064C369.01 346.064 373.651 340.046 373.651 330.509C373.651 321.074 369.01 314.954 362.431 314.954ZM362.431 317.351C367.48 317.351 371.05 322.757 371.05 330.509C371.05 338.261 367.48 343.718 362.431 343.718C357.331 343.718 353.761 338.261 353.761 330.509C353.761 322.757 357.331 317.351 362.431 317.351ZM449.467 323.675V321.38H442.378V311.231H439.675V334.232H442.378V323.675H449.467ZM434.473 330.509L434.065 328.214C427.486 329.591 422.08 329.846 413.104 329.846H412.492V316.28H429.628V313.985H409.789V332.141H413.104C422.233 332.141 427.69 331.886 434.473 330.509ZM444.214 353.561H417.031V347.135H442.378V336.782H414.277V339.077H439.726V344.942H414.379V355.856H444.214V353.561ZM488.835 332.141H496.791V329.846H488.835V311.282H486.132V356.621H488.835V332.141ZM459.714 343.106H458.898V331.121H476.34V315.668H456.093V318.014H473.688V328.775H456.246V345.401H459.714C468.843 345.401 474.708 345.095 481.899 343.718L481.644 341.372C474.555 342.749 468.69 343.106 459.714 343.106ZM542.381 350.501V348.206H523.103V335.303H537.383V333.008H509.486V317.453H536.924V315.158H506.783V335.303H520.4V348.206H501.275V350.501H542.381ZM575.103 353.663C584.181 353.663 590.556 346.166 590.556 334.283C590.556 322.502 584.181 315.158 575.103 315.158C566.127 315.158 559.701 322.502 559.701 334.283C559.701 346.166 566.127 353.663 575.103 353.663ZM575.103 350.909C567.759 350.909 562.914 344.381 562.914 334.283C562.914 324.236 567.759 317.912 575.103 317.912C582.447 317.912 587.394 324.236 587.394 334.283C587.394 344.381 582.447 350.909 575.103 350.909ZM602.112 315.821H599.052V353H602.112V340.454L609.405 332.039L621.441 353H624.96L611.445 329.642L623.277 315.821H619.656L602.214 336.017H602.112V315.821ZM633.938 315.158H630.878L631.337 344.432H633.53L633.938 315.158ZM633.887 350.399H630.929V353.663H633.887V350.399Z" fill="#3C3C3C"/>
<rect x="141" y="408" width="410" height="31" rx="15.5" fill="#FFE499"/>
<path d="M189.318 386.874H184.32V432.927H189.318V386.874ZM174.936 387.741V402.99H168.153V407.274H174.936V430.785H179.883V387.741H174.936ZM164.124 399.165V391.107H159.024V399.42C159.024 407.274 155.862 415.485 149.334 419.412L152.547 423.39C157.035 420.687 159.993 415.944 161.625 410.181C163.206 415.332 165.858 419.769 170.142 422.37L173.1 418.29C166.929 414.312 164.124 406.662 164.124 399.165ZM239.396 398.247H232.868V386.823H227.615V414.516H232.868V402.582H239.396V398.247ZM220.934 412.068L223.688 407.937C216.854 405.591 212.927 400.134 212.927 394.167V389.22H207.623V393.759C207.623 400.44 203.696 406.713 196.454 409.161L199.259 413.343C204.563 411.354 208.337 407.529 210.377 402.429C212.366 406.764 215.987 410.283 220.934 412.068ZM218.027 415.638C208.541 415.638 202.676 418.8 202.676 424.257C202.676 429.714 208.541 432.927 218.027 432.927C227.615 432.927 233.378 429.714 233.378 424.257C233.378 418.8 227.615 415.638 218.027 415.638ZM218.027 428.796C211.448 428.796 207.878 427.317 207.878 424.257C207.878 421.401 211.448 419.769 218.027 419.769C224.606 419.769 228.176 421.401 228.176 424.257C228.176 427.317 224.606 428.796 218.027 428.796ZM281.722 386.823H276.418V432.978H281.722V386.823ZM258.67 390.087C251.479 390.087 246.175 394.626 246.175 401.154C246.175 407.682 251.479 412.221 258.67 412.221C265.861 412.221 271.216 407.682 271.216 401.154C271.216 394.626 265.861 390.087 258.67 390.087ZM258.67 394.575C262.954 394.575 266.065 397.125 266.065 401.154C266.065 405.132 262.954 407.733 258.67 407.733C254.437 407.733 251.326 405.132 251.326 401.154C251.326 397.074 254.386 394.575 258.67 394.575ZM244.033 418.902L244.696 423.237C252.907 423.237 263.821 423.084 274.021 421.197L273.664 417.372C263.719 418.851 252.346 418.902 244.033 418.902ZM343.868 422.982H325.559V412.578H339.023V390.546H306.791V412.578H320.306V422.982H302.15V427.266H343.868V422.982ZM311.942 408.396V394.728H333.872V408.396H311.942ZM386.041 405.438V401.154H359.47V392.943H385.684V388.71H354.268V405.438H386.041ZM390.784 409.875H349.117V414.159H390.784V409.875ZM359.47 427.776V418.443H354.217V432.009H386.398V427.776H359.47ZM430.797 407.274H449.157V403.041H442.782C444.159 397.278 444.159 393.198 444.159 390.495V388.404H429.318V392.637H439.059C438.906 395.238 438.702 398.553 437.529 403.041H424.677C426.258 397.533 426.207 393.453 426.207 390.597V388.404H411.264V392.637H421.107C420.954 395.238 420.75 398.553 419.373 403.041H407.337V407.274H425.544V412.119H412.233V416.25H438.6V420.279H412.335V432.519H445.179V428.388H417.588V424.155H443.853V412.119H430.797V407.274ZM456.089 409.824L458.282 414.006C465.83 412.527 472.052 408.243 475.112 402.276C478.172 408.243 484.394 412.374 492.197 413.853L494.339 409.671C485.21 408.192 477.866 402.072 477.866 395.085V394.983H492.503V390.75H457.721V394.983H472.358V395.085C472.358 402.072 465.065 408.345 456.089 409.824ZM496.022 422.982H477.815V412.221H472.511V422.982H454.304V427.266H496.022V422.982ZM528.454 395.493V391.26H517.489V386.466H512.236V391.26H501.271V395.493H528.454ZM543.703 402.684V398.349H537.175V386.874H531.922V413.751H537.175V402.684H543.703ZM526.006 405.285C526.006 400.44 521.518 397.176 514.837 397.176C508.207 397.176 503.668 400.44 503.668 405.285C503.668 410.181 508.207 413.445 514.837 413.445C521.518 413.445 526.006 410.181 526.006 405.285ZM508.717 405.285C508.717 402.684 511.165 401.103 514.837 401.103C518.509 401.103 521.008 402.684 521.008 405.285C521.008 407.937 518.509 409.518 514.837 409.518C511.165 409.518 508.717 407.937 508.717 405.285ZM531.973 415.638V419.871H512.95V415.638H507.748V432.366H537.175V415.638H531.973ZM531.973 423.951V428.184H512.95V423.951H531.973ZM568.944 403.449C579.501 403.449 585.366 400.644 585.366 395.544C585.366 390.393 579.501 387.588 568.944 387.588C558.336 387.588 552.522 390.393 552.522 395.544C552.522 400.644 558.336 403.449 568.944 403.449ZM568.944 391.515C576.135 391.515 579.909 392.892 579.909 395.544C579.909 398.145 576.135 399.522 568.944 399.522C561.753 399.522 557.979 398.145 557.979 395.544C557.979 392.892 561.753 391.515 568.944 391.515ZM589.803 406.152H548.085V410.334H589.803V406.152ZM558.336 428.49V424.665H584.55V413.649H553.032V417.627H579.399V420.942H553.134V432.519H585.876V428.49H558.336ZM631.243 412.323L633.64 408.243C626.704 406.356 622.675 401.46 622.675 396.36V396.003H632.365V391.821H622.726V386.67H617.422V391.821H607.732V396.003H617.422V396.36C617.422 401.919 613.393 407.019 606.304 409.059L608.752 413.139C614.26 411.558 618.085 408.243 620.176 403.755C622.165 407.835 625.939 410.844 631.243 412.323ZM648.94 397.788H642.412V386.874H637.159V413.394H642.412V402.123H648.94V397.788ZM630.784 419.82H643.075V415.638H612.679V419.82H624.97C624.001 424.002 618.595 427.674 610.741 428.745L612.73 432.774C619.921 431.703 625.276 428.643 627.928 424.359C630.529 428.643 636.037 431.805 643.024 432.825L644.962 428.847C637.21 427.776 631.753 423.9 630.784 419.82ZM696.213 409.212V404.877H689.022V386.874H683.769V432.978H689.022V409.212H696.213ZM665.613 390.24C658.728 390.24 653.781 396.564 653.781 406.509C653.781 416.454 658.728 422.727 665.613 422.727C672.498 422.727 677.445 416.454 677.445 406.509C677.445 396.564 672.498 390.24 665.613 390.24ZM665.613 418.035C661.533 418.035 658.83 413.7 658.83 406.509C658.83 399.318 661.533 394.983 665.613 394.983C669.693 394.983 672.396 399.318 672.396 406.509C672.396 413.7 669.693 418.035 665.613 418.035ZM738.539 386.772H733.235V401.919H723.392V406.203H733.235V432.978H738.539V386.772ZM716.966 398.196V390.597H711.662V398.196C711.662 406.815 707.174 415.689 699.983 419.208L703.298 423.39C708.602 420.687 712.325 415.383 714.365 408.804C716.354 414.975 719.975 420.024 725.279 422.625L728.39 418.392C721.301 415.128 716.966 406.713 716.966 398.196Z" fill="#3C3C3C"/>
</g>
<defs>
<clipPath id="clip0_2416_4780">
<rect width="1488" height="930" fill="white"/>
</clipPath>
<clipPath id="clip1_2416_4780">
<rect width="188" height="66" fill="white" transform="translate(66 60)"/>
</clipPath>
<clipPath id="clip2_2416_4780">
<rect width="210.305" height="139.509" fill="white" transform="translate(537.625 704.9) rotate(15.2189)"/>
</clipPath>
<clipPath id="clip3_2416_4780">
<rect width="111.954" height="141.722" fill="white" transform="translate(365.078 857.92) rotate(43.4396)"/>
</clipPath>
<clipPath id="clip4_2416_4780">
<rect width="61.842" height="78.2855" fill="white" transform="translate(379 729.1) rotate(-27.0251)"/>
</clipPath>
<clipPath id="clip5_2416_4780">
<rect width="113" height="104" fill="white" transform="translate(697.094 172) rotate(13.3949)"/>
</clipPath>
</defs>
</svg>
