<svg width="86" height="95" viewBox="0 0 86 95" fill="none" xmlns="http://www.w3.org/2000/svg">
<path d="M75.2498 12.217C73.0987 16.2833 69.4056 16.0869 66.1349 14.3582C62.8642 12.6295 60.556 10.0267 62.707 5.96035C64.858 1.89403 72.5291 1.72705 72.5291 1.72705C72.5291 1.72705 77.4008 8.15066 75.2498 12.217Z" fill="#FFD86B" stroke="#D8D8D8" stroke-width="1.59629" stroke-miterlimit="10"/>
<path d="M11.4635 12.217C13.6145 16.2833 16.6103 16.0869 19.881 14.3582C23.1517 12.6295 25.4599 10.0267 23.3089 5.96035C21.1579 1.89403 13.4869 1.72705 13.4869 1.72705C13.4869 1.72705 9.3125 8.15066 11.4635 12.217Z" fill="#FFD86B" stroke="#D8D8D8" stroke-width="1.59629" stroke-miterlimit="10"/>
<path d="M84.3677 65.4804V30.6416C84.368 28.6751 83.8508 26.7431 82.868 25.0397C81.8853 23.3364 80.4717 21.9216 78.7691 20.9374L48.6057 3.52298C46.9023 2.53841 44.9696 2.02002 43.0022 2.02002C41.0348 2.02002 39.1021 2.53841 37.3987 3.52298L7.23528 20.9374C5.53271 21.9216 4.11908 23.3364 3.13637 25.0397C2.15365 26.7431 1.63646 28.6751 1.63672 30.6416V65.4804C1.63546 67.4471 2.15224 69.3794 3.13505 71.083C4.11787 72.7865 5.53204 74.2012 7.23528 75.1845L37.3987 92.599C39.1021 93.5836 41.0348 94.1019 43.0022 94.1019C44.9696 94.1019 46.9023 93.5836 48.6057 92.599L78.7691 75.1845C80.4724 74.2012 81.8865 72.7865 82.8694 71.083C83.8522 69.3794 84.3689 67.4471 84.3677 65.4804Z" fill="#F7F7F7" stroke="#D8D8D8" stroke-width="1.59629" stroke-miterlimit="10"/>
<path d="M42.9992 56.701C51.5591 56.701 58.4983 49.7618 58.4983 41.2018C58.4983 32.6418 51.5591 25.7026 42.9992 25.7026C34.4392 25.7026 27.5 32.6418 27.5 41.2018C27.5 49.7618 34.4392 56.701 42.9992 56.701Z" fill="white" stroke="#D8D8D8" stroke-width="1.59629" stroke-miterlimit="10"/>
<path d="M65.6322 58.8213C62.9555 62.2604 59.5293 65.0434 55.6145 66.9582C51.6997 68.8731 47.3996 69.8693 43.0416 69.8711C41.6449 69.8724 40.2498 69.774 38.8672 69.5764" stroke="#D8D8D8" stroke-width="1.59629" stroke-linecap="round" stroke-linejoin="round"/>
<path d="M37.1263 44.4924C38.9435 44.4924 40.4167 43.0192 40.4167 41.202C40.4167 39.3848 38.9435 37.9116 37.1263 37.9116C35.3091 37.9116 33.8359 39.3848 33.8359 41.202C33.8359 43.0192 35.3091 44.4924 37.1263 44.4924Z" fill="#D8D8D8"/>
<path d="M48.7943 44.4924C50.6115 44.4924 52.0847 43.0192 52.0847 41.202C52.0847 39.3848 50.6115 37.9116 48.7943 37.9116C46.9771 37.9116 45.5039 39.3848 45.5039 41.202C45.5039 43.0192 46.9771 44.4924 48.7943 44.4924Z" fill="#D8D8D8"/>
</svg>
