<svg width="119" height="119" viewBox="0 0 119 119" fill="none" xmlns="http://www.w3.org/2000/svg">
<circle cx="59.5" cy="59.5" r="59.5" fill="#F8F8F8"/>
<path d="M85.667 34.4434C83.9356 37.7164 80.963 37.5582 78.3304 36.1668C75.6978 34.7754 73.8399 32.6804 75.5713 29.4074C77.3026 26.1344 83.4771 26 83.4771 26C83.4771 26 87.3983 31.1704 85.667 34.4434Z" fill="#FFD86B" stroke="#D8D8D8" stroke-width="3.79618" stroke-miterlimit="10"/>
<path d="M34.3121 34.4434C36.0435 37.7164 38.4547 37.5582 41.0874 36.1668C43.72 34.7754 45.5778 32.6804 43.8465 29.4074C42.1151 26.1344 35.9407 26 35.9407 26C35.9407 26 32.5808 31.1704 34.3121 34.4434Z" fill="#FFD86B" stroke="#D8D8D8" stroke-width="3.79618" stroke-miterlimit="10"/>
<path d="M93.0044 77.3167V49.2749C93.0046 47.692 92.5884 46.137 91.7974 44.7659C91.0064 43.3949 89.8685 42.2561 88.4981 41.464L64.2195 27.447C62.8485 26.6546 61.2928 26.2373 59.7092 26.2373C58.1257 26.2373 56.57 26.6546 55.199 27.447L30.9204 41.464C29.55 42.2561 28.4121 43.3949 27.6211 44.7659C26.8301 46.137 26.4139 47.692 26.4141 49.2749V77.3167C26.413 78.8997 26.829 80.4551 27.6201 81.8263C28.4111 83.1974 29.5494 84.3361 30.9204 85.1276L55.199 99.1445C56.57 99.937 58.1257 100.354 59.7092 100.354C61.2928 100.354 62.8485 99.937 64.2195 99.1445L88.4981 85.1276C89.8691 84.3361 91.0074 83.1974 91.7984 81.8263C92.5895 80.4551 93.0054 78.8997 93.0044 77.3167Z" fill="#F7F7F7" stroke="#D8D8D8" stroke-width="3.79618" stroke-miterlimit="10"/>
<path d="M59.7097 70.2485C66.5996 70.2485 72.185 64.6631 72.185 57.7732C72.185 50.8832 66.5996 45.2979 59.7097 45.2979C52.8198 45.2979 47.2344 50.8832 47.2344 57.7732C47.2344 64.6631 52.8198 70.2485 59.7097 70.2485Z" fill="white" stroke="#D8D8D8" stroke-width="3.79618" stroke-miterlimit="10"/>
<path d="M77.9182 71.9561C75.7638 74.7242 73.006 76.9642 69.855 78.5055C66.7039 80.0468 63.2427 80.8486 59.735 80.8501C58.6107 80.8512 57.4879 80.7719 56.375 80.6129" stroke="#D8D8D8" stroke-width="3.79618" stroke-linecap="round" stroke-linejoin="round"/>
<path d="M54.9844 60.4219C56.4471 60.4219 57.6328 59.2361 57.6328 57.7734C57.6328 56.3107 56.4471 55.125 54.9844 55.125C53.5217 55.125 52.3359 56.3107 52.3359 57.7734C52.3359 59.2361 53.5217 60.4219 54.9844 60.4219Z" fill="#D8D8D8"/>
<path d="M64.3711 60.4219C65.8338 60.4219 67.0195 59.2361 67.0195 57.7734C67.0195 56.3107 65.8338 55.125 64.3711 55.125C62.9084 55.125 61.7227 56.3107 61.7227 57.7734C61.7227 59.2361 62.9084 60.4219 64.3711 60.4219Z" fill="#D8D8D8"/>
</svg>
