<svg width="362" height="75" viewBox="0 0 362 75" fill="none" xmlns="http://www.w3.org/2000/svg">
<rect width="362" height="75" rx="15" fill="#FFD86B"/>
<path d="M164.323 36.908H161.785V45.404H159.931V29.114H161.785V35.378H164.323V36.908ZM151.705 39.86C153.001 39.86 154.189 39.824 155.269 39.752C156.349 39.668 157.453 39.53 158.581 39.338L158.779 40.868C158.167 40.976 157.561 41.066 156.961 41.138C156.373 41.21 155.773 41.264 155.161 41.3C154.549 41.336 153.913 41.366 153.253 41.39C152.605 41.402 151.915 41.408 151.183 41.408H149.851V30.662H157.411V32.174H151.705V39.86ZM173.106 36.116C172.23 36.116 171.438 36.038 170.73 35.882C170.022 35.726 169.416 35.504 168.912 35.216C168.408 34.928 168.018 34.58 167.742 34.172C167.478 33.764 167.346 33.308 167.346 32.804C167.346 32.3 167.478 31.844 167.742 31.436C168.018 31.028 168.408 30.68 168.912 30.392C169.416 30.104 170.022 29.882 170.73 29.726C171.438 29.57 172.23 29.492 173.106 29.492C173.97 29.492 174.756 29.57 175.464 29.726C176.172 29.882 176.778 30.104 177.282 30.392C177.786 30.68 178.176 31.028 178.452 31.436C178.728 31.844 178.866 32.3 178.866 32.804C178.866 33.308 178.728 33.764 178.452 34.172C178.176 34.58 177.786 34.928 177.282 35.216C176.778 35.504 176.172 35.726 175.464 35.882C174.756 36.038 173.97 36.116 173.106 36.116ZM173.106 30.986C171.942 30.986 171.018 31.148 170.334 31.472C169.65 31.784 169.308 32.228 169.308 32.804C169.308 33.38 169.65 33.83 170.334 34.154C171.018 34.466 171.942 34.622 173.106 34.622C174.258 34.622 175.176 34.466 175.86 34.154C176.544 33.83 176.886 33.38 176.886 32.804C176.886 32.228 176.544 31.784 175.86 31.472C175.176 31.148 174.258 30.986 173.106 30.986ZM180.486 37.214V38.726H174.186V41.804H172.296V38.726H165.744V37.214H180.486ZM169.434 43.568H178.866V45.08H167.562V40.274H169.434V43.568ZM197.044 41.948V43.478H182.32V41.948H188.728V39.176H184.102V33.938H193.462V31.76H184.066V30.266H195.298V35.414H185.92V37.682H195.658V39.176H190.582V41.948H197.044ZM211.947 38.294H200.679V30.554H211.821V32.066H202.533V36.8H211.947V38.294ZM213.621 41.768V43.298H198.879V41.768H213.621Z" fill="#3C3C3C"/>
</svg>
