<svg width="428" height="105" viewBox="0 0 428 105" fill="none" xmlns="http://www.w3.org/2000/svg">
<rect width="428" height="105" fill="#EAB463"/>
<path d="M43.13 35.648V26.45H41.688V35.648H43.13ZM39.784 33.954L40.512 32.82C38.566 32.19 37.418 30.664 37.418 29.04V28.578H40.12V27.416H33.204V28.578H35.948V29.04C35.948 30.734 34.814 32.386 32.812 33.058L33.568 34.178C35.08 33.674 36.144 32.596 36.704 31.252C37.264 32.498 38.328 33.464 39.784 33.954ZM43.494 37.664H36.326V34.808H34.87V38.84H43.494V37.664ZM53.6009 33.982V30.916H54.9169V34.402H56.2889V26.422H54.9169V29.726H53.6009V26.66H52.2569V33.982H53.6009ZM51.8229 28.984V27.85H49.3869V26.548H47.9729V27.85H45.5229V28.984H51.8229ZM51.4029 31.714C51.4029 30.426 50.2829 29.53 48.6869 29.53C47.1189 29.53 45.9849 30.426 45.9849 31.714C45.9849 33.03 47.1189 33.898 48.6869 33.898C50.2829 33.898 51.4029 33.03 51.4029 31.714ZM47.2729 31.714C47.2729 31.028 47.8329 30.58 48.6869 30.58C49.5269 30.58 50.1149 31.028 50.1149 31.714C50.1149 32.4 49.5269 32.848 48.6869 32.848C47.8329 32.848 47.2729 32.4 47.2729 31.714ZM52.0889 34.584C49.3449 34.584 47.8049 35.368 47.8049 36.824C47.8049 38.28 49.3449 39.078 52.0889 39.078C54.8329 39.078 56.3589 38.28 56.3589 36.824C56.3589 35.368 54.8329 34.584 52.0889 34.584ZM52.0889 37.986C50.2829 37.986 49.2469 37.608 49.2469 36.824C49.2469 36.04 50.2829 35.676 52.0889 35.676C53.9789 35.676 54.9169 36.054 54.9169 36.824C54.9169 37.594 53.9789 37.986 52.0889 37.986ZM59.0318 30.496L59.5498 31.63C61.8038 31.392 63.4978 30.482 64.1838 29.18C64.8558 30.454 66.6058 31.406 68.8178 31.63L69.3218 30.496C66.9838 30.272 65.3458 29.25 65.1638 28.144H68.8598V26.982H59.5218V28.144H63.1898C63.0078 29.25 61.3698 30.272 59.0318 30.496ZM64.8978 33.422H69.8958V32.274H58.4578V33.422H63.4558V34.584C61.0898 34.738 59.8018 35.494 59.8018 36.838C59.8018 38.294 61.3698 39.078 64.1558 39.078C66.9558 39.078 68.5098 38.294 68.5098 36.838C68.5098 35.494 67.2498 34.752 64.8978 34.598V33.422ZM67.0538 36.838C67.0538 37.566 66.0178 37.972 64.1558 37.972C62.2938 37.972 61.2718 37.566 61.2718 36.838C61.2718 36.054 62.2938 35.69 64.1558 35.69C66.0178 35.69 67.0538 36.054 67.0538 36.838ZM88.0144 26.422H86.5584V39.106H88.0144V26.422ZM81.2804 27.36C79.4184 27.36 78.0324 29.096 78.0324 31.812C78.0324 34.556 79.4184 36.278 81.2804 36.278C83.1704 36.278 84.5424 34.556 84.5424 31.812C84.5424 29.096 83.1704 27.36 81.2804 27.36ZM81.2804 28.662C82.4004 28.662 83.1564 29.838 83.1564 31.812C83.1564 33.842 82.4004 34.99 81.2804 34.99C80.1604 34.99 79.4184 33.842 79.4184 31.812C79.4184 29.838 80.1604 28.662 81.2804 28.662ZM101.187 36.012V26.436H99.8153V36.012H101.187ZM95.9373 33.716V31.196H97.3653V35.634H98.7233V26.674H97.3653V30.02H95.9373V27.43H94.5933V29.474H92.3533V27.43H90.9953V33.716H95.9373ZM94.5933 30.594V32.568H92.3533V30.594H94.5933ZM101.537 37.664H94.2853V34.752H92.8293V38.84H101.537V37.664ZM113.548 34.276V33.114H106.254V31.378H113.17V30.244H106.254V28.62H113.45V27.458H104.784V34.276H113.548ZM114.836 36.348H103.37V37.524H114.836V36.348Z" fill="#3C3C3C"/>
<path d="M41.312 60.576H43.088L42.512 65.256H44.528V67.08H42.296L41.816 70.92H44V72.744H41.648L41 78H39.176L39.8 72.744H36.752L36.128 78H34.304L34.928 72.744H32.96V70.92H35.168L35.624 67.08H33.488V65.256H35.864L36.44 60.576H38.264L37.688 65.256H40.712L41.312 60.576ZM37.448 67.08L36.992 70.92H40.04L40.52 67.08H37.448ZM63.6239 66.816H49.0799V58.728H51.5279V60.864H61.1759V58.728H63.6239V66.816ZM61.1759 62.76H51.5279V64.848H61.1759V62.76ZM57.5759 70.464V72.264C59.6079 72.392 61.1439 72.776 62.1839 73.416C63.2399 74.056 63.7679 74.928 63.7679 76.032C63.7679 77.28 63.1279 78.224 61.8479 78.864C60.5679 79.52 58.7199 79.848 56.3039 79.848C53.9039 79.848 52.0639 79.52 50.7839 78.864C49.5039 78.224 48.8639 77.28 48.8639 76.032C48.8639 74.928 49.3919 74.056 50.4479 73.416C51.5039 72.76 53.0479 72.368 55.0799 72.24V70.464H46.5359V68.472H66.1439V70.464H57.5759ZM61.2719 76.032C61.2719 75.392 60.8399 74.912 59.9759 74.592C59.1279 74.256 57.9039 74.088 56.3039 74.088C54.7039 74.088 53.4799 74.256 52.6319 74.592C51.7839 74.912 51.3599 75.392 51.3599 76.032C51.3599 76.672 51.7839 77.16 52.6319 77.496C53.4799 77.816 54.7039 77.976 56.3039 77.976C57.9039 77.976 59.1279 77.816 59.9759 77.496C60.8399 77.16 61.2719 76.672 61.2719 76.032ZM86.6381 58.152V79.896H84.1421V68.256H79.9421C79.8781 69.312 79.6941 70.256 79.3901 71.088C79.0861 71.92 78.6941 72.632 78.2141 73.224C77.7341 73.816 77.1741 74.272 76.5341 74.592C75.8941 74.896 75.2061 75.048 74.4701 75.048C73.6701 75.048 72.9341 74.872 72.2621 74.52C71.5901 74.152 71.0141 73.64 70.5341 72.984C70.0541 72.328 69.6781 71.528 69.4061 70.584C69.1341 69.624 68.9981 68.56 68.9981 67.392C68.9981 66.224 69.1341 65.176 69.4061 64.248C69.6781 63.304 70.0541 62.504 70.5341 61.848C71.0141 61.176 71.5901 60.664 72.2621 60.312C72.9341 59.944 73.6701 59.76 74.4701 59.76C75.1901 59.76 75.8621 59.912 76.4861 60.216C77.1261 60.52 77.6861 60.952 78.1661 61.512C78.6461 62.072 79.0381 62.752 79.3421 63.552C79.6461 64.352 79.8381 65.248 79.9181 66.24H84.1421V58.152H86.6381ZM74.4701 72.84C75.4301 72.84 76.1901 72.368 76.7501 71.424C77.3261 70.48 77.6141 69.136 77.6141 67.392C77.6141 65.696 77.3261 64.376 76.7501 63.432C76.1901 62.472 75.4301 61.992 74.4701 61.992C73.5421 61.992 72.7901 62.472 72.2141 63.432C71.6381 64.376 71.3501 65.696 71.3501 67.392C71.3501 69.136 71.6381 70.48 72.2141 71.424C72.7901 72.368 73.5421 72.84 74.4701 72.84ZM110.732 63.528V65.568H108.308V71.352H105.884V58.176H108.308V63.528H110.732ZM104.3 69.816H98.3002V59.712H100.34V62.808H102.236V59.712H104.3V69.816ZM97.1722 69.816H91.1242V59.712H93.1642V62.808H95.1322V59.712H97.1722V69.816ZM102.236 64.752H100.34V67.824H102.236V64.752ZM95.1322 64.752H93.1642V67.824H95.1322V64.752ZM101.06 71.736C102.212 71.736 103.244 71.832 104.156 72.024C105.084 72.2 105.86 72.464 106.484 72.816C107.124 73.152 107.612 73.576 107.948 74.088C108.3 74.584 108.476 75.152 108.476 75.792C108.476 76.432 108.3 77.008 107.948 77.52C107.612 78.016 107.124 78.432 106.484 78.768C105.86 79.12 105.084 79.384 104.156 79.56C103.244 79.752 102.212 79.848 101.06 79.848C98.7562 79.848 96.9482 79.488 95.6362 78.768C94.3242 78.064 93.6682 77.072 93.6682 75.792C93.6682 74.512 94.3242 73.52 95.6362 72.816C96.9482 72.096 98.7562 71.736 101.06 71.736ZM101.06 77.928C102.66 77.928 103.876 77.744 104.708 77.376C105.54 77.008 105.956 76.48 105.956 75.792C105.956 75.072 105.54 74.536 104.708 74.184C103.876 73.832 102.66 73.656 101.06 73.656C99.4602 73.656 98.2442 73.832 97.4122 74.184C96.5802 74.536 96.1642 75.072 96.1642 75.792C96.1642 76.48 96.5802 77.008 97.4122 77.376C98.2442 77.744 99.4602 77.928 101.06 77.928ZM129.714 63.072V65.544H132.738V67.584H129.714V70.416H127.242V58.176H129.714V61.032H132.738V63.072H129.714ZM125.562 68.064C123.722 68.432 121.986 68.68 120.354 68.808C118.722 68.936 117.106 69 115.506 69H113.754V59.232H116.226V66.96C117.682 66.928 119.146 66.856 120.618 66.744C122.106 66.616 123.65 66.392 125.25 66.072L125.562 68.064ZM115.866 71.52H129.714V79.584H115.866V71.52ZM118.29 77.592H127.29V73.488H118.29V77.592ZM151.792 63.072V65.544H154.816V67.584H151.792V70.416H149.32V58.176H151.792V61.032H154.816V63.072H151.792ZM147.64 68.064C145.8 68.432 144.064 68.68 142.432 68.808C140.8 68.936 139.184 69 137.584 69H135.832V59.232H138.304V66.96C139.76 66.928 141.224 66.856 142.696 66.744C144.184 66.616 145.728 66.392 147.328 66.072L147.64 68.064ZM137.944 71.52H151.792V79.584H137.944V71.52ZM140.368 77.592H149.368V73.488H140.368V77.592Z" fill="#3C3C3C"/>
<circle cx="384" cy="53" r="12" transform="rotate(-90 384 53)" fill="#FF7775"/>
<path d="M382.963 59C383.229 59 383.453 58.9087 383.635 58.7261L388.607 53.8037C388.84 53.5796 388.948 53.3389 388.948 53.0483C388.948 52.7578 388.84 52.5088 388.616 52.293L383.635 47.3706C383.453 47.188 383.229 47.0967 382.963 47.0967C382.432 47.0967 382 47.52 382 48.0513C382 48.3169 382.108 48.5576 382.299 48.7568L386.665 53.0566L382.299 57.3481C382.108 57.5391 382 57.7798 382 58.0454C382 58.5767 382.432 59 382.963 59Z" fill="white"/>
<mask id="mask0_2254_4534" style="mask-type:alpha" maskUnits="userSpaceOnUse" x="0" y="0" width="428" height="105">
<rect width="428" height="105" fill="#EAB463"/>
</mask>
<g mask="url(#mask0_2254_4534)">
<g clip-path="url(#clip0_2254_4534)">
<path d="M312.468 71.9738C312.468 71.9738 344.002 58.5748 340.717 70.897C337.433 83.2192 329.922 94.1739 332.036 103.465C334.149 112.756 328 136.945 298.749 106.195" fill="#F8D174"/>
<path d="M312.468 71.9738C312.468 71.9738 344.002 58.5748 340.717 70.897C337.433 83.2192 329.922 94.1739 332.036 103.465C334.149 112.756 328 136.945 298.749 106.195" stroke="#DE8A32" stroke-width="2.22012" stroke-miterlimit="10"/>
<path d="M249.03 102.718C249.03 102.718 252.317 116.218 268.585 120.974C279.466 124.156 284.624 124.182 285.435 118.987C286.246 113.792 285.024 112.026 285.024 112.026" fill="#F8D174"/>
<path d="M249.03 102.718C249.03 102.718 252.317 116.218 268.585 120.974C279.466 124.156 284.624 124.182 285.435 118.987C286.246 113.792 285.024 112.026 285.024 112.026" stroke="#DE8A32" stroke-width="2.22012" stroke-miterlimit="10"/>
<path d="M256.822 36.6082C256.822 36.6082 264.634 24.8217 272.813 26.4282C280.992 28.0346 301.423 37.4975 306.395 45.7089C311.367 53.9202 312.131 64.6188 312.131 64.6188" fill="#F8D174"/>
<path d="M256.822 36.6082C256.822 36.6082 264.634 24.8217 272.813 26.4282C280.992 28.0346 301.423 37.4975 306.395 45.7089C311.367 53.9202 312.131 64.6188 312.131 64.6188" stroke="#DE8A32" stroke-width="2.22012" stroke-miterlimit="10"/>
<path d="M314.748 88.6768C309.149 109.684 285.142 115.788 259.426 108.932C233.71 102.077 215.928 84.8335 221.528 63.8267C227.128 42.82 252.562 31.3584 278.278 38.2136C303.994 45.0688 320.348 67.6701 314.748 88.6768Z" fill="#F8D174" stroke="#DE8A32" stroke-width="2.22012" stroke-miterlimit="10"/>
<path d="M241.399 65.6806C243.914 66.351 246.497 64.8557 247.167 62.3406C247.838 59.8256 246.342 57.2433 243.827 56.5728C241.312 55.9024 238.73 57.3977 238.059 59.9128C237.389 62.4278 238.884 65.0101 241.399 65.6806Z" fill="#DE8A32"/>
<path d="M216.678 69.9471C216.678 69.9471 211.058 77.2972 219.309 79.6862C227.561 82.0753 231.534 73.9074 231.534 73.9074" fill="#F8D174"/>
<path d="M216.678 69.9471C216.678 69.9471 211.058 77.2972 219.309 79.6862C227.561 82.0753 231.534 73.9074 231.534 73.9074" stroke="#DE8A32" stroke-width="2.22012" stroke-linecap="round" stroke-linejoin="round"/>
<path d="M230.024 70.6834C230.024 70.6834 222.98 60.7721 217.269 62.6927C211.559 64.6133 217.095 71.8274 223.56 71.2554" fill="#F8D174"/>
<path d="M230.024 70.6834C230.024 70.6834 222.98 60.7721 217.269 62.6927C211.559 64.6133 217.095 71.8274 223.56 71.2554" stroke="#DE8A32" stroke-width="2.22012" stroke-linecap="round" stroke-linejoin="round"/>
<path d="M256.488 63.9663C256.488 63.9663 265.477 77.6036 251.233 83.6819L256.488 63.9663Z" fill="#F8D174"/>
<path d="M256.488 63.9663C256.488 63.9663 265.477 77.6036 251.233 83.6819" stroke="#DE8A32" stroke-width="2.22012" stroke-linecap="round" stroke-linejoin="round"/>
<path d="M274.048 61.0371C276.27 61.3137 277.72 63.8176 277.667 65.8866C277.601 68.5256 275.55 70.6873 273.318 71.8254C273.001 72.0098 272.77 72.3124 272.675 72.6669C272.581 73.0214 272.631 73.3988 272.814 73.7166C274.447 76.1358 275.287 79.0027 275.218 81.9203C275.192 82.9232 275.221 84.3829 274.131 84.7291C273.567 84.906 272.961 84.9396 272.39 85.08C271.685 85.2443 271.032 85.5807 270.488 86.0591C270.277 86.2757 270.142 86.5545 270.102 86.8542C270.063 87.1538 270.121 87.4582 270.269 87.7221C270.755 88.8277 270.876 90.0601 270.612 91.2391C270.348 92.418 269.714 93.4817 268.803 94.2746C267.849 95.0188 266.696 95.4626 265.49 95.5497C264.283 95.6368 263.078 95.3633 262.028 94.7638C260.473 93.8789 259.072 96.2713 260.627 97.1562C262.207 98.0546 264.024 98.4479 265.835 98.2832C267.645 98.1185 269.361 97.4037 270.754 96.2349C272.097 95.0092 273.009 93.3825 273.354 91.5969C273.699 89.8112 273.458 87.962 272.667 86.3243L272.453 87.9887C272.932 87.7262 273.464 87.5759 274.01 87.5489C274.733 87.4558 275.43 87.2158 276.057 86.8437C277.644 85.7978 277.917 83.8277 277.993 82.0804C278.118 78.6087 277.15 75.1852 275.225 72.2935L274.721 74.1847C277.927 72.5547 280.611 69.179 280.456 65.4363C280.408 63.6722 279.739 61.9816 278.566 60.663C277.392 59.3445 275.791 58.4828 274.045 58.2302C273.677 58.2368 273.328 58.3872 273.07 58.649C272.812 58.9107 272.668 59.2631 272.667 59.6304C272.68 59.9943 272.832 60.3396 273.091 60.5947C273.351 60.8498 273.699 60.9953 274.063 61.001L274.048 61.0371Z" fill="#DE8A32"/>
<path d="M292.717 68.0918C295.211 69.8641 294.535 73.8211 291.674 74.78C291.39 74.8705 291.142 75.0494 290.966 75.2908C290.79 75.5321 290.696 75.8232 290.697 76.1218C290.698 76.4203 290.794 76.7108 290.972 76.9508C291.149 77.1909 291.399 77.3681 291.684 77.4565C292.762 77.87 293.468 78.9018 293.974 79.8861C294.617 81.066 295.024 82.3595 295.174 83.6947C295.358 86.3202 292.346 86.9001 290.329 87.2749C290.125 87.3327 289.938 87.4359 289.78 87.5768C289.622 87.7178 289.498 87.8927 289.418 88.0885C289.337 88.2842 289.303 88.4957 289.316 88.7069C289.329 88.918 289.39 89.1235 289.495 89.3076C289.984 90.1195 290.235 91.0528 290.219 92.0007C290.203 92.9487 289.921 93.873 289.404 94.6679C288.887 95.4628 288.158 96.0963 287.298 96.496C286.438 96.8956 285.483 97.0452 284.543 96.9276C284.188 96.8446 283.815 96.9 283.5 97.0825C283.184 97.2651 282.951 97.561 282.846 97.9099C282.753 98.2651 282.804 98.6427 282.988 98.9605C283.172 99.2782 283.474 99.5104 283.828 99.6064C285.28 99.828 286.765 99.6491 288.123 99.0888C289.481 98.5285 290.66 97.6081 291.533 96.427C292.392 95.188 292.882 93.7307 292.947 92.2244C293.011 90.7181 292.647 89.2244 291.897 87.9166L291.062 89.9493C292.671 89.7302 294.217 89.179 295.602 88.3306C296.373 87.8275 296.996 87.1292 297.409 86.3069C297.821 85.4845 298.009 84.5675 297.952 83.6491C297.778 81.7658 297.209 79.9403 296.281 78.2919C295.466 76.6778 294.086 75.4196 292.404 74.7564L292.415 77.4276C293.605 77.0639 294.667 76.3694 295.477 75.4252C296.288 74.4809 296.813 73.3258 296.993 72.0943C297.172 70.8629 296.997 69.6059 296.489 68.4699C295.981 67.3339 295.161 66.3656 294.124 65.678C293.806 65.4942 293.429 65.4429 293.074 65.535C292.718 65.6271 292.414 65.8553 292.225 66.1703C292.049 66.4904 292.002 66.8661 292.094 67.2198C292.187 67.5734 292.412 67.8779 292.723 68.0703L292.717 68.0918Z" fill="#DE8A32"/>
<path d="M321.05 84.3738C323.203 83.169 325.411 82.0629 327.672 81.0552C327.99 80.8701 328.222 80.5666 328.316 80.2113C328.411 79.8559 328.361 79.4775 328.178 79.1587C327.987 78.849 327.684 78.6243 327.333 78.5305C326.981 78.4368 326.607 78.4812 326.287 78.6545C324.038 79.6695 321.831 80.7757 319.664 81.9731C319.345 82.1576 319.113 82.461 319.018 82.8167C318.924 83.1724 318.974 83.5511 319.158 83.8697C319.343 84.1882 319.646 84.4204 320.002 84.5152C320.358 84.61 320.736 84.5597 321.055 84.3752L321.05 84.3738Z" fill="#DE8A32"/>
<path d="M319.328 93.8297C319.427 93.8321 319.526 93.8431 319.624 93.8626C319.243 93.7612 319.624 93.8626 319.693 93.8811L320.281 93.9804C320.684 94.0593 321.084 94.1542 321.484 94.2667C321.884 94.3792 322.25 94.4709 322.615 94.6312L322.892 94.7337L323.079 94.7837L322.913 94.7394C323.133 94.798 323.345 94.929 323.549 95.0237C323.873 95.2046 324.254 95.2548 324.613 95.1639C324.876 95.0921 325.112 94.9443 325.292 94.7389C325.471 94.5335 325.586 94.2797 325.622 94.0094C325.658 93.739 325.613 93.464 325.494 93.2189C325.374 92.9738 325.185 92.7694 324.95 92.6313C323.17 91.7917 321.26 91.2613 319.303 91.0628C318.94 91.065 318.592 91.2092 318.335 91.4647C318.075 91.7246 317.929 92.0765 317.928 92.4438C317.927 92.8111 318.071 93.164 318.329 93.4255C318.605 93.6722 318.957 93.8167 319.327 93.8351L319.328 93.8297Z" fill="#DE8A32"/>
<path d="M312.925 104.481C314.552 106.346 316.439 107.966 318.529 109.292C318.846 109.475 319.222 109.526 319.577 109.434C319.931 109.341 320.235 109.113 320.422 108.798C320.6 108.479 320.648 108.103 320.557 107.75C320.465 107.396 320.24 107.092 319.93 106.899C319.438 106.59 318.951 106.265 318.514 105.948C318.389 105.857 318.264 105.766 318.151 105.673L317.986 105.538C317.763 105.363 317.542 105.178 317.329 104.989C316.453 104.23 315.632 103.41 314.873 102.533C314.613 102.275 314.261 102.129 313.894 102.128C313.527 102.127 313.175 102.27 312.913 102.527C312.661 102.79 312.519 103.14 312.517 103.504C312.514 103.869 312.652 104.22 312.901 104.486L312.925 104.481Z" fill="#DE8A32"/>
<path d="M281.891 30.4155L280.469 31.9818C280.211 32.2506 280.065 32.6074 280.06 32.9801C280.052 33.161 280.093 33.3406 280.179 33.4997C280.234 33.6707 280.331 33.825 280.462 33.948C280.722 34.2075 281.073 34.3539 281.441 34.355C281.808 34.3562 282.161 34.2121 282.422 33.9542L283.846 32.3826C284.104 32.1138 284.25 31.757 284.255 31.3843C284.26 31.2038 284.218 31.0251 284.135 30.8646C284.08 30.6952 283.983 30.5428 283.852 30.4218C283.592 30.1622 283.24 30.0159 282.873 30.0147C282.505 30.0135 282.153 30.1576 281.891 30.4155Z" fill="#DE8A32"/>
<path d="M292.936 36.0212L292.325 38.3142C292.231 38.6694 292.282 39.047 292.466 39.3647C292.65 39.6825 292.953 39.9146 293.307 40.0106C293.664 40.1023 294.042 40.0508 294.361 39.8669C294.674 39.6792 294.904 39.3793 295.003 39.0283L295.615 36.7353C295.705 36.3796 295.655 36.003 295.476 35.6827C295.291 35.365 294.988 35.1334 294.632 35.0387C294.277 34.9439 293.899 34.9937 293.58 35.1772C293.267 35.368 293.037 35.6692 292.936 36.0212Z" fill="#DE8A32"/>
</g>
</g>
<defs>
<clipPath id="clip0_2254_4534">
<rect width="127.625" height="95.023" fill="white" transform="translate(227.477 13) rotate(14.9264)"/>
</clipPath>
</defs>
</svg>
