<svg width="428" height="105" viewBox="0 0 428 105" fill="none" xmlns="http://www.w3.org/2000/svg">
<g clip-path="url(#clip0_2524_5140)">
<rect width="428" height="105" fill="#007042"/>
<rect width="428" height="105" fill="#FFE39B"/>
<rect width="428" height="105" fill="#FFE089"/>
<path d="M363.089 67.1905C426.533 94.6122 452.925 58.1523 465 35.818L465 -8.99995L-76.9676 -9L-76.9676 6.4622C-77.4299 30.2904 -73.12 71.7171 -52.183 46.7983C-26.0119 15.6499 57.0077 24.8376 103.11 41.6443C149.213 58.451 170.185 67.1905 218.541 41.6443C266.897 16.0981 293.301 37.0275 363.089 67.1905Z" fill="#FFD86B"/>
<path d="M51.44 56.936V79.04H48.248V56.936H51.44ZM44.864 59.24C44.864 60.92 44.704 62.528 44.384 64.064C44.064 65.6 43.512 67.048 42.728 68.408C41.96 69.752 40.928 71.008 39.632 72.176C38.336 73.328 36.704 74.376 34.736 75.32L33.08 72.824C34.488 72.152 35.704 71.432 36.728 70.664C37.752 69.88 38.608 69.032 39.296 68.12C39.984 67.208 40.512 66.224 40.88 65.168C41.264 64.112 41.512 62.976 41.624 61.76H34.256V59.24H44.864ZM59.6701 61.4H56.6701V58.88H73.4701V61.4H70.4701V68.024H73.3981V70.544H56.7901V68.024H59.6701V61.4ZM67.3261 61.4H62.8141V68.024H67.3261V61.4ZM75.1261 73.928V76.496H55.1101V73.928H75.1261ZM95.5963 56.96V79.088H92.4043V56.96H95.5963ZM81.5323 71.528C83.1803 71.528 84.7083 71.488 86.1163 71.408C87.5403 71.312 89.0043 71.152 90.5083 70.928L90.7963 73.448C89.9323 73.576 89.0843 73.68 88.2523 73.76C87.4203 73.84 86.5803 73.904 85.7323 73.952C84.8843 74 84.0123 74.032 83.1163 74.048C82.2203 74.064 81.2763 74.072 80.2843 74.072H78.3643V58.784H89.5483V61.352H81.5323V64.952H88.6363V67.424H81.5323V71.528ZM113.81 61.928C113.826 61.656 113.834 61.392 113.834 61.136C113.834 60.864 113.834 60.592 113.834 60.32H101.522V57.8H116.978V59.888C116.978 60.992 116.946 62.12 116.882 63.272C116.834 64.408 116.658 65.704 116.354 67.16L113.234 66.944C113.33 66.448 113.41 65.984 113.474 65.552C113.554 65.104 113.618 64.672 113.666 64.256L101.306 64.808L100.946 62.192L113.81 61.928ZM119.21 68.288V70.784H99.3144V68.288H106.682V65.6H109.85V68.288H119.21ZM104.786 76.208H117.338V78.752H101.618V72.176H104.786V76.208Z" fill="#FF7775"/>
<path d="M146.896 62.264V64.304H143.824V69.848H141.352V57.176H143.824V62.264H146.896ZM137.872 68.6H127.648V58.376H130.12V61.448H135.424V58.376H137.872V68.6ZM135.424 63.392H130.12V66.632H135.424V63.392ZM132.496 76.592H144.4V78.56H130.024V70.928H143.992V72.896H132.496V76.592ZM169.142 67.688H165.758V78.872H163.286V57.176H165.758V65.648H169.142V67.688ZM154.742 58.76C155.558 58.76 156.302 58.944 156.974 59.312C157.662 59.664 158.246 60.176 158.726 60.848C159.222 61.504 159.606 62.304 159.878 63.248C160.166 64.192 160.31 65.248 160.31 66.416C160.31 67.584 160.166 68.64 159.878 69.584C159.606 70.528 159.222 71.328 158.726 71.984C158.246 72.64 157.662 73.152 156.974 73.52C156.302 73.872 155.558 74.048 154.742 74.048C153.926 74.048 153.174 73.872 152.486 73.52C151.814 73.152 151.23 72.64 150.734 71.984C150.254 71.328 149.87 70.528 149.582 69.584C149.31 68.64 149.174 67.584 149.174 66.416C149.174 65.248 149.31 64.192 149.582 63.248C149.87 62.304 150.254 61.504 150.734 60.848C151.23 60.176 151.814 59.664 152.486 59.312C153.174 58.944 153.926 58.76 154.742 58.76ZM154.742 71.84C155.702 71.84 156.47 71.36 157.046 70.4C157.638 69.44 157.934 68.112 157.934 66.416C157.934 64.72 157.638 63.392 157.046 62.432C156.47 61.472 155.702 60.992 154.742 60.992C153.782 60.992 153.006 61.472 152.414 62.432C151.838 63.392 151.55 64.72 151.55 66.416C151.55 68.112 151.838 69.44 152.414 70.4C153.006 71.36 153.782 71.84 154.742 71.84ZM191.124 67.784H187.836V78.824H185.364V57.152H187.836V65.72H191.124V67.784ZM182.172 59.456C182.172 61.024 181.996 62.544 181.644 64.016C181.292 65.488 180.724 66.88 179.94 68.192C179.156 69.504 178.148 70.728 176.916 71.864C175.684 72.984 174.18 73.992 172.404 74.888L171.036 72.992C176.316 70.272 179.204 66.432 179.7 61.472H172.116V59.456H182.172ZM213.298 67.76H209.914V78.848H207.442V57.176H209.914V65.72H213.298V67.76ZM200.722 63.464C200.722 64.296 200.85 65.152 201.106 66.032C201.362 66.896 201.722 67.728 202.186 68.528C202.666 69.312 203.242 70.032 203.914 70.688C204.586 71.328 205.33 71.84 206.146 72.224L204.778 74.168C203.562 73.592 202.506 72.752 201.61 71.648C200.714 70.544 200.018 69.288 199.522 67.88C199.042 69.4 198.338 70.768 197.41 71.984C196.498 73.2 195.41 74.112 194.146 74.72L192.73 72.752C193.562 72.352 194.314 71.816 194.986 71.144C195.674 70.456 196.258 69.696 196.738 68.864C197.218 68.016 197.586 67.128 197.842 66.2C198.114 65.272 198.25 64.36 198.25 63.464V61.376H193.522V59.336H205.306V61.376H200.722V63.464ZM219.032 72.056H217.184L216.8 61.76L216.728 58.928H219.512L219.032 72.056ZM216.704 77.312V74.336H219.536V77.312H216.704Z" fill="#3B3B3B"/>
<path d="M41.744 28.698H39.182V27.536H41.744V25.422H43.186V31.918H41.744V28.698ZM39.42 31.708C38.72 31.4747 38.1273 31.134 37.642 30.686C37.1567 30.238 36.7787 29.72 36.508 29.132C36.228 29.804 35.8313 30.3827 35.318 30.868C34.8047 31.3533 34.17 31.7267 33.414 31.988L32.672 30.854C33.1667 30.6953 33.6053 30.4807 33.988 30.21C34.3707 29.9393 34.6927 29.6313 34.954 29.286C35.2153 28.9407 35.4113 28.5627 35.542 28.152C35.682 27.7413 35.752 27.3213 35.752 26.892V25.828H37.194V26.892C37.194 27.2933 37.2593 27.6853 37.39 28.068C37.53 28.4413 37.726 28.7913 37.978 29.118C38.23 29.4353 38.538 29.72 38.902 29.972C39.2753 30.224 39.7 30.4293 40.176 30.588L39.42 31.708ZM43.62 36.79V37.924H34.982V34.648H41.758V33.64H34.954V32.52H43.186V35.712H36.41V36.79H43.62ZM55.5609 30.56H47.0349V25.996H55.5609V30.56ZM54.1469 27.144H48.4489V29.412H54.1469V27.144ZM57.0449 31.806V32.968H52.1449V35.334H50.7029V32.968H45.5789V31.806H57.0449ZM48.4209 36.664H55.7709V37.84H46.9789V34.186H48.4209V36.664ZM58.9618 31.736C59.5778 31.6333 60.1565 31.456 60.6978 31.204C61.2391 30.952 61.7105 30.644 62.1118 30.28C62.5225 29.916 62.8445 29.5147 63.0778 29.076C63.3111 28.628 63.4278 28.166 63.4278 27.69V27.662H59.4098V26.5H68.9578V27.662H64.9398V27.69C64.9398 28.166 65.0565 28.6233 65.2898 29.062C65.5325 29.5007 65.8545 29.902 66.2558 30.266C66.6665 30.6207 67.1471 30.924 67.6978 31.176C68.2485 31.4187 68.8365 31.5913 69.4618 31.694L68.8738 32.842C67.8005 32.6367 66.8531 32.2633 66.0318 31.722C65.2198 31.1713 64.6038 30.4853 64.1838 29.664C63.7638 30.4853 63.1478 31.176 62.3358 31.736C61.5331 32.296 60.6091 32.6787 59.5638 32.884L58.9618 31.736ZM69.9238 35.348V36.524H58.4718V35.348H63.4698V32.394H64.9258V35.348H69.9238ZM83.1107 31.638H81.1367V38.078H79.6947V25.436H81.1367V30.448H83.1107V31.638ZM75.7747 28.558C75.7747 29.118 75.8447 29.678 75.9847 30.238C76.1341 30.7887 76.3394 31.3067 76.6007 31.792C76.8714 32.2773 77.1934 32.716 77.5667 33.108C77.9494 33.4907 78.3787 33.7987 78.8547 34.032L77.9727 35.18C77.2914 34.8253 76.7034 34.3307 76.2087 33.696C75.7141 33.052 75.3314 32.3053 75.0607 31.456C74.7901 32.3333 74.3934 33.122 73.8707 33.822C73.3574 34.5127 72.7367 35.0447 72.0087 35.418L71.1267 34.256C71.6214 34.0133 72.0647 33.6913 72.4567 33.29C72.8581 32.8793 73.1941 32.422 73.4647 31.918C73.7447 31.414 73.9594 30.8773 74.1087 30.308C74.2581 29.7293 74.3327 29.146 74.3327 28.558V26.486H75.7747V28.558ZM94.1645 32.492C93.4365 32.2773 92.8158 31.9647 92.3025 31.554C91.7892 31.134 91.3972 30.644 91.1265 30.084C90.8372 30.7 90.4312 31.2367 89.9085 31.694C89.3952 32.142 88.7605 32.4827 88.0045 32.716L87.3185 31.582C87.8038 31.442 88.2332 31.2507 88.6065 31.008C88.9892 30.7653 89.3112 30.49 89.5725 30.182C89.8338 29.8647 90.0298 29.524 90.1605 29.16C90.3005 28.796 90.3705 28.4227 90.3705 28.04V27.97H87.7105V26.822H90.3705V25.38H91.8265V26.822H94.4725V27.97H91.8125V28.04C91.8125 28.3947 91.8778 28.7447 92.0085 29.09C92.1485 29.426 92.3445 29.7433 92.5965 30.042C92.8578 30.3313 93.1752 30.5927 93.5485 30.826C93.9218 31.05 94.3465 31.2273 94.8225 31.358L94.1645 32.492ZM99.0225 29.72H97.2305V32.884H95.7885V25.436H97.2305V28.53H99.0225V29.72ZM89.1525 33.444H97.2305V37.924H89.1525V33.444ZM90.5805 36.776H95.8165V34.592H90.5805V36.776ZM110.739 25.422V38.106H109.283V33.304H106.371C106.101 33.9293 105.732 34.4147 105.265 34.76C104.799 35.1053 104.257 35.278 103.641 35.278C103.175 35.278 102.745 35.1753 102.353 34.97C101.961 34.7553 101.625 34.4567 101.345 34.074C101.065 33.6913 100.846 33.2247 100.687 32.674C100.529 32.114 100.449 31.4933 100.449 30.812C100.449 30.1307 100.529 29.5193 100.687 28.978C100.846 28.4273 101.065 27.9607 101.345 27.578C101.625 27.186 101.961 26.8873 102.353 26.682C102.745 26.4673 103.175 26.36 103.641 26.36C104.229 26.36 104.747 26.5187 105.195 26.836C105.643 27.144 106.012 27.5827 106.301 28.152H109.283V25.422H110.739ZM103.641 33.99C104.201 33.99 104.645 33.7147 104.971 33.164C105.307 32.6133 105.475 31.8293 105.475 30.812C105.475 29.8227 105.307 29.0527 104.971 28.502C104.645 27.942 104.201 27.662 103.641 27.662C103.1 27.662 102.657 27.942 102.311 28.502C101.975 29.0527 101.807 29.8227 101.807 30.812C101.807 31.8293 101.975 32.6133 102.311 33.164C102.657 33.7147 103.1 33.99 103.641 33.99ZM109.283 32.114V29.342H106.693C106.74 29.5753 106.777 29.8133 106.805 30.056C106.833 30.2893 106.847 30.5413 106.847 30.812C106.847 31.0547 106.838 31.2833 106.819 31.498C106.801 31.7033 106.773 31.9087 106.735 32.114H109.283ZM124.878 31.722H122.932V38.092H121.476V25.436H122.932V30.518H124.878V31.722ZM117.5 27.382H120.454V28.558H113.048V27.382H116.058V25.618H117.5V27.382ZM116.8 29.454C117.248 29.454 117.664 29.5287 118.046 29.678C118.429 29.818 118.76 30.0187 119.04 30.28C119.32 30.5413 119.54 30.854 119.698 31.218C119.857 31.5727 119.936 31.9693 119.936 32.408C119.936 32.8373 119.857 33.234 119.698 33.598C119.54 33.962 119.32 34.2747 119.04 34.536C118.76 34.7973 118.429 35.0027 118.046 35.152C117.664 35.292 117.248 35.362 116.8 35.362C116.343 35.362 115.923 35.292 115.54 35.152C115.158 35.0027 114.826 34.7973 114.546 34.536C114.266 34.2747 114.047 33.962 113.888 33.598C113.739 33.234 113.664 32.8373 113.664 32.408C113.664 31.9693 113.739 31.5727 113.888 31.218C114.047 30.854 114.266 30.5413 114.546 30.28C114.826 30.0187 115.158 29.818 115.54 29.678C115.923 29.5287 116.343 29.454 116.8 29.454ZM116.8 34.172C117.314 34.172 117.734 34.0133 118.06 33.696C118.396 33.3693 118.564 32.94 118.564 32.408C118.564 31.876 118.396 31.4513 118.06 31.134C117.734 30.8073 117.314 30.644 116.8 30.644C116.287 30.644 115.862 30.8073 115.526 31.134C115.2 31.4513 115.036 31.876 115.036 32.408C115.036 32.94 115.2 33.3693 115.526 33.696C115.862 34.0133 116.287 34.172 116.8 34.172ZM134.733 27.788H127.187V26.612H136.189V27.858C136.189 28.25 136.185 28.656 136.175 29.076C136.175 29.496 136.157 29.9487 136.119 30.434C136.091 30.91 136.045 31.428 135.979 31.988C135.914 32.5387 135.821 33.1407 135.699 33.794L134.243 33.64C134.486 32.3987 134.626 31.3113 134.663 30.378C134.71 29.4447 134.733 28.6047 134.733 27.858V27.788ZM137.421 35.236V36.426H125.997V35.236H130.253V30.784H131.709V35.236H137.421ZM138.974 35.222H140.626L139.73 38.134H138.442L138.974 35.222Z" fill="#3B3B3B"/>
<path d="M337.009 57.5368C334.34 60.292 331.428 59.275 329.212 57.1294C326.995 54.9838 325.753 52.3623 328.422 49.6072C331.091 46.852 337.272 48.5041 337.272 48.5041C337.272 48.5041 339.678 54.7817 337.009 57.5368Z" fill="#FFD86B" stroke="#FF7775" stroke-width="3.4948" stroke-miterlimit="10"/>
<path d="M285.918 42.6848C286.694 46.4415 289.138 46.9816 292.16 46.3588C295.181 45.7361 297.635 44.1893 296.859 40.4327C296.084 36.676 289.98 34.7565 289.98 34.7565C289.98 34.7565 285.143 38.9281 285.918 42.6848Z" fill="#FFD86B" stroke="#FF7775" stroke-width="3.4948" stroke-miterlimit="10"/>
<path d="M331.903 102.309L340.014 74.4134C340.472 72.8389 340.507 71.1715 340.117 69.5789C339.727 67.9862 338.924 66.5243 337.79 65.3399L317.692 44.3741C316.557 43.1892 315.13 42.3242 313.555 41.8661C311.98 41.4081 310.312 41.3733 308.719 41.7651L280.512 48.687C278.92 49.0786 277.459 49.8823 276.275 51.0175C275.092 52.1526 274.228 53.5791 273.771 55.1538L265.66 83.0494C265.201 84.6238 265.165 86.2914 265.556 87.8842C265.946 89.4771 266.749 90.939 267.884 92.1229L287.982 113.089C289.116 114.274 290.543 115.139 292.119 115.597C293.694 116.055 295.362 116.09 296.955 115.698L325.161 108.776C326.754 108.385 328.216 107.581 329.399 106.446C330.583 105.311 331.446 103.884 331.903 102.309Z" fill="#FFD86B" stroke="#FF7775" stroke-width="3.4948" stroke-miterlimit="10"/>
<path d="M300.831 85.6494C307.685 87.6422 314.856 83.7013 316.849 76.8473C318.842 69.9933 314.901 62.8216 308.047 60.8289C301.193 58.8361 294.021 62.777 292.029 69.631C290.036 76.485 293.977 83.6567 300.831 85.6494Z" fill="white" stroke="#FF7775" stroke-width="3.4948" stroke-miterlimit="10"/>
<path d="M318.447 92.6132C315.503 94.7438 312.111 96.1745 308.531 96.7964C304.951 97.4183 301.276 97.2149 297.786 96.2017C296.667 95.8777 295.573 95.4741 294.512 94.994" stroke="#FF7775" stroke-width="3.4948" stroke-linecap="round" stroke-linejoin="round"/>
<path d="M298.97 74.5064C300.425 74.9295 301.947 74.0929 302.37 72.6378C302.793 71.1827 301.957 69.6602 300.502 69.2372C299.047 68.8141 297.524 69.6508 297.101 71.1058C296.678 72.5609 297.515 74.0834 298.97 74.5064Z" fill="#FF7775"/>
<path d="M308.306 77.2203C309.761 77.6434 311.283 76.8067 311.706 75.3517C312.129 73.8966 311.293 72.3741 309.838 71.9511C308.383 71.528 306.86 72.3646 306.437 73.8197C306.014 75.2747 306.851 76.7973 308.306 77.2203Z" fill="#FF7775"/>
<circle cx="384" cy="53" r="12" transform="rotate(-90 384 53)" fill="#FF7775"/>
<path d="M382.963 59C383.229 59 383.453 58.9087 383.635 58.7261L388.607 53.8037C388.84 53.5796 388.948 53.3389 388.948 53.0483C388.948 52.7578 388.84 52.5088 388.616 52.293L383.635 47.3706C383.453 47.188 383.229 47.0967 382.963 47.0967C382.432 47.0967 382 47.52 382 48.0513C382 48.3169 382.108 48.5576 382.299 48.7568L386.665 53.0566L382.299 57.3481C382.108 57.5391 382 57.7798 382 58.0454C382 58.5767 382.432 59 382.963 59Z" fill="white"/>
</g>
<defs>
<clipPath id="clip0_2524_5140">
<rect width="428" height="105" fill="white"/>
</clipPath>
</defs>
</svg>
