<svg width="428" height="105" viewBox="0 0 428 105" fill="none" xmlns="http://www.w3.org/2000/svg">
<rect width="428" height="105" fill="#FFE39B"/>
<rect width="428" height="105" fill="#FFE397"/>
<circle cx="384" cy="53" r="12" transform="rotate(-90 384 53)" fill="#FF7775"/>
<path d="M382.963 59C383.229 59 383.453 58.9087 383.635 58.7261L388.607 53.8037C388.84 53.5796 388.948 53.3389 388.948 53.0483C388.948 52.7578 388.84 52.5088 388.616 52.293L383.635 47.3706C383.453 47.188 383.229 47.0967 382.963 47.0967C382.432 47.0967 382 47.52 382 48.0513C382 48.3169 382.108 48.5576 382.299 48.7568L386.665 53.0566L382.299 57.3481C382.108 57.5391 382 57.7798 382 58.0454C382 58.5767 382.432 59 382.963 59Z" fill="white"/>
<path d="M43.13 26.45V35.648H41.688V26.45H43.13ZM40.512 32.82L39.784 33.954C39.056 33.7113 38.4307 33.3567 37.908 32.89C37.3853 32.4233 36.984 31.8773 36.704 31.252C36.424 31.924 36.018 32.5167 35.486 33.03C34.9633 33.5433 34.324 33.926 33.568 34.178L32.812 33.058C33.316 32.89 33.7593 32.666 34.142 32.386C34.534 32.106 34.8607 31.7887 35.122 31.434C35.3927 31.0793 35.598 30.6967 35.738 30.286C35.878 29.8753 35.948 29.46 35.948 29.04V28.578H33.204V27.416H40.12V28.578H37.418V29.04C37.418 29.4413 37.488 29.838 37.628 30.23C37.768 30.6127 37.9687 30.972 38.23 31.308C38.5007 31.6347 38.8273 31.9287 39.21 32.19C39.5927 32.4513 40.0267 32.6613 40.512 32.82ZM36.326 37.664H43.494V38.84H34.87V34.808H36.326V37.664ZM53.6009 30.916V33.982H52.2569V26.66H53.6009V29.726H54.9169V26.422H56.2889V34.402H54.9169V30.916H53.6009ZM51.8229 27.85V28.984H45.5229V27.85H47.9729V26.548H49.3869V27.85H51.8229ZM51.4029 31.714C51.4029 32.0407 51.3329 32.3393 51.1929 32.61C51.0622 32.8807 50.8756 33.114 50.6329 33.31C50.3996 33.4967 50.1149 33.6413 49.7789 33.744C49.4522 33.8467 49.0882 33.898 48.6869 33.898C48.2949 33.898 47.9309 33.8467 47.5949 33.744C47.2682 33.6413 46.9836 33.4967 46.7409 33.31C46.5076 33.114 46.3209 32.8807 46.1809 32.61C46.0502 32.3393 45.9849 32.0407 45.9849 31.714C45.9849 31.3873 46.0502 31.0933 46.1809 30.832C46.3209 30.5613 46.5076 30.3327 46.7409 30.146C46.9836 29.95 47.2682 29.8007 47.5949 29.698C47.9309 29.586 48.2949 29.53 48.6869 29.53C49.0882 29.53 49.4522 29.586 49.7789 29.698C50.1149 29.8007 50.3996 29.95 50.6329 30.146C50.8756 30.3327 51.0622 30.5613 51.1929 30.832C51.3329 31.0933 51.4029 31.3873 51.4029 31.714ZM47.2729 31.714C47.2729 32.0593 47.3989 32.3347 47.6509 32.54C47.9122 32.7453 48.2576 32.848 48.6869 32.848C49.1069 32.848 49.4476 32.7453 49.7089 32.54C49.9796 32.3347 50.1149 32.0593 50.1149 31.714C50.1149 31.3687 49.9796 31.0933 49.7089 30.888C49.4476 30.6827 49.1069 30.58 48.6869 30.58C48.2576 30.58 47.9122 30.6827 47.6509 30.888C47.3989 31.0933 47.2729 31.3687 47.2729 31.714ZM52.0889 34.584C53.4702 34.584 54.5249 34.7753 55.2529 35.158C55.9902 35.5407 56.3589 36.096 56.3589 36.824C56.3589 37.552 55.9902 38.1073 55.2529 38.49C54.5249 38.882 53.4702 39.078 52.0889 39.078C50.7076 39.078 49.6482 38.882 48.9109 38.49C48.1736 38.1073 47.8049 37.552 47.8049 36.824C47.8049 36.096 48.1736 35.5407 48.9109 35.158C49.6482 34.7753 50.7076 34.584 52.0889 34.584ZM52.0889 37.986C53.9742 37.986 54.9169 37.5987 54.9169 36.824C54.9169 36.0587 53.9742 35.676 52.0889 35.676C51.1836 35.676 50.4836 35.7693 49.9889 35.956C49.4942 36.1427 49.2469 36.432 49.2469 36.824C49.2469 37.216 49.4942 37.51 49.9889 37.706C50.4836 37.8927 51.1836 37.986 52.0889 37.986ZM59.5498 31.63L59.0318 30.496C59.6198 30.44 60.1565 30.3373 60.6418 30.188C61.1271 30.0387 61.5518 29.8613 61.9158 29.656C62.2798 29.4413 62.5691 29.208 62.7838 28.956C63.0078 28.6947 63.1431 28.424 63.1898 28.144H59.5218V26.982H68.8598V28.144H65.1638C65.2105 28.424 65.3411 28.6947 65.5558 28.956C65.7798 29.208 66.0738 29.4413 66.4378 29.656C66.8018 29.8613 67.2265 30.0387 67.7118 30.188C68.1971 30.3373 68.7338 30.44 69.3218 30.496L68.8178 31.63C68.2671 31.574 67.7445 31.476 67.2498 31.336C66.7645 31.1867 66.3211 31.0093 65.9198 30.804C65.5278 30.5893 65.1825 30.3467 64.8838 30.076C64.5851 29.796 64.3518 29.4973 64.1838 29.18C63.8385 29.8333 63.2598 30.3747 62.4478 30.804C61.6451 31.2333 60.6791 31.5087 59.5498 31.63ZM69.8958 33.422H64.8978V34.598C66.0831 34.6727 66.9791 34.8967 67.5858 35.27C68.2018 35.6433 68.5098 36.166 68.5098 36.838C68.5098 37.566 68.1365 38.1213 67.3898 38.504C66.6431 38.8867 65.5651 39.078 64.1558 39.078C62.7558 39.078 61.6778 38.8867 60.9218 38.504C60.1751 38.1213 59.8018 37.566 59.8018 36.838C59.8018 36.166 60.1098 35.6433 60.7258 35.27C61.3511 34.8873 62.2611 34.6587 63.4558 34.584V33.422H58.4578V32.274H69.8958V33.422ZM67.0538 36.838C67.0538 36.446 66.8018 36.1567 66.2978 35.97C65.8031 35.7833 65.0891 35.69 64.1558 35.69C63.2225 35.69 62.5085 35.7833 62.0138 35.97C61.5191 36.1567 61.2718 36.446 61.2718 36.838C61.2718 37.202 61.5191 37.482 62.0138 37.678C62.5085 37.874 63.2225 37.972 64.1558 37.972C65.0891 37.972 65.8031 37.874 66.2978 37.678C66.8018 37.482 67.0538 37.202 67.0538 36.838ZM83.4276 26.422H84.8836V39.106H83.4276V26.422ZM78.1496 27.36C78.6256 27.36 79.0596 27.4673 79.4516 27.682C79.8529 27.8873 80.1982 28.186 80.4876 28.578C80.7769 28.9607 81.0009 29.4273 81.1596 29.978C81.3276 30.5193 81.4116 31.1307 81.4116 31.812C81.4116 32.4933 81.3276 33.114 81.1596 33.674C81.0009 34.2247 80.7769 34.6913 80.4876 35.074C80.1982 35.4567 79.8529 35.7553 79.4516 35.97C79.0596 36.1753 78.6256 36.278 78.1496 36.278C77.6829 36.278 77.2489 36.1753 76.8476 35.97C76.4556 35.7553 76.1149 35.4567 75.8256 35.074C75.5362 34.6913 75.3076 34.2247 75.1396 33.674C74.9809 33.114 74.9016 32.4933 74.9016 31.812C74.9016 31.1307 74.9809 30.5193 75.1396 29.978C75.3076 29.4273 75.5362 28.9607 75.8256 28.578C76.1149 28.186 76.4556 27.8873 76.8476 27.682C77.2489 27.4673 77.6829 27.36 78.1496 27.36ZM78.1496 28.662C77.5896 28.662 77.1369 28.942 76.7916 29.502C76.4556 30.0527 76.2876 30.8227 76.2876 31.812C76.2876 32.8293 76.4556 33.6133 76.7916 34.164C77.1369 34.7147 77.5896 34.99 78.1496 34.99C78.7096 34.99 79.1622 34.7147 79.5076 34.164C79.8529 33.6133 80.0256 32.8293 80.0256 31.812C80.0256 30.8227 79.8529 30.0527 79.5076 29.502C79.1622 28.942 78.7096 28.662 78.1496 28.662ZM98.0565 26.436V36.012H96.6845V26.436H98.0565ZM92.8065 31.196V33.716H87.8645V27.43H89.2225V29.474H91.4625V27.43H92.8065V30.02H94.2345V26.674H95.5925V35.634H94.2345V31.196H92.8065ZM91.4625 32.568V30.594H89.2225V32.568H91.4625ZM91.1545 37.664H98.4065V38.84H89.6985V34.752H91.1545V37.664ZM110.417 33.114V34.276H101.653V27.458H110.319V28.62H103.123V30.244H110.039V31.378H103.123V33.114H110.417ZM100.239 36.348H111.705V37.524H100.239V36.348Z" fill="#3C3C3C"/>
<path d="M40.712 65.256L41.312 60.576H43.088L42.512 65.256H44.528V67.08H42.296L41.816 70.92H44V72.744H41.648L41 78H39.176L39.8 72.744H36.752L36.128 78H34.304L34.928 72.744H32.96V70.92H35.168L35.624 67.08H33.488V65.256H35.864L36.44 60.576H38.264L37.688 65.256H40.712ZM40.52 67.08H37.448L36.992 70.92H40.04L40.52 67.08ZM66.7199 66.6V68.664H63.3839V79.872H60.8879V58.128H63.3839V66.6H66.7199ZM49.8719 68.16V72.696C50.7679 72.696 51.6079 72.688 52.3919 72.672C53.1919 72.64 53.9679 72.6 54.7199 72.552C55.4719 72.504 56.2079 72.432 56.9279 72.336C57.6639 72.24 58.4159 72.12 59.1839 71.976L59.4479 73.992C58.6159 74.136 57.7999 74.256 56.9999 74.352C56.1999 74.448 55.3919 74.528 54.5759 74.592C53.7599 74.64 52.9119 74.68 52.0319 74.712C51.1519 74.728 50.2079 74.736 49.1999 74.736H47.4239V66.168H54.8399V62.112H47.3759V60.096H57.2879V68.16H49.8719ZM79.6061 68.448V70.344H69.5741V59.976H79.6061V61.8H84.1181V58.176H86.5901V73.992H84.1181V68.448H79.6061ZM77.2061 68.376V61.944H71.9981V68.376H77.2061ZM84.1181 63.816H79.6061V66.456H84.1181V63.816ZM74.9741 77.424H87.0941V79.44H72.4781V72.552H74.9741V77.424ZM110.66 63.072H107.636V65.544H110.66V67.584H107.636V70.416H105.164V58.176H107.636V61.032H110.66V63.072ZM103.172 66.072L103.484 68.064C101.644 68.432 99.9082 68.68 98.2762 68.808C96.6442 68.936 95.0282 69 93.4282 69H91.6762V59.232H94.1482V66.96C95.6042 66.928 97.0682 66.856 98.5402 66.744C100.028 66.616 101.572 66.392 103.172 66.072ZM93.7882 79.584V71.52H107.636V79.584H93.7882ZM96.2122 73.488V77.592H105.212V73.488H96.2122ZM132.738 63.072H129.714V65.544H132.738V67.584H129.714V70.416H127.242V58.176H129.714V61.032H132.738V63.072ZM125.25 66.072L125.562 68.064C123.722 68.432 121.986 68.68 120.354 68.808C118.722 68.936 117.106 69 115.506 69H113.754V59.232H116.226V66.96C117.682 66.928 119.146 66.856 120.618 66.744C122.106 66.616 123.65 66.392 125.25 66.072ZM115.866 79.584V71.52H129.714V79.584H115.866ZM118.29 73.488V77.592H127.29V73.488H118.29Z" fill="#3C3C3C"/>
<g clip-path="url(#clip0_2524_5184)">
<mask id="mask0_2524_5184" style="mask-type:alpha" maskUnits="userSpaceOnUse" x="-2" y="-2" width="428" height="105">
<rect x="-2" y="-2" width="428" height="105" fill="#FFE39B"/>
</mask>
<g mask="url(#mask0_2524_5184)">
<path d="M308.272 39.8455C308.272 39.8455 289.658 28.9821 268.31 33.4649C246.962 37.9477 234.431 40.7794 228.862 55.427C223.293 70.0747 275.354 60.1265 275.354 60.1265L316.584 57.3733L308.272 39.8455Z" fill="#F9B72D" stroke="#8E4700" stroke-width="2.08839" stroke-miterlimit="10"/>
<path d="M252.984 36.9798C252.984 36.9798 274.597 33.1993 284.078 36.2326C293.559 39.266 296.905 40.0094 296.905 40.0094" fill="#F9B72D"/>
<path d="M252.984 36.9798C252.984 36.9798 274.597 33.1993 284.078 36.2326C293.559 39.266 296.905 40.0094 296.905 40.0094" stroke="#8E4700" stroke-width="2.08839" stroke-miterlimit="10"/>
<path d="M289.631 42.6737C289.631 42.6737 284.275 37.0701 265.73 37.9779C247.185 38.8857 248.768 42.6737 248.768 42.6737" fill="#F9B72D"/>
<path d="M289.631 42.6737C289.631 42.6737 284.275 37.0701 265.73 37.9779C247.185 38.8857 248.768 42.6737 248.768 42.6737" stroke="#8E4700" stroke-width="2.08839" stroke-miterlimit="10"/>
<path d="M284.739 44.2574C284.739 44.2574 281.128 40.6599 271.113 41.0783L284.739 44.2574Z" fill="#F9B72D"/>
<path d="M284.739 44.2574C284.739 44.2574 281.128 40.6599 271.113 41.0783" stroke="#8E4700" stroke-width="2.08839" stroke-miterlimit="10"/>
<path d="M330.027 43.9699C330.027 43.9699 324.249 31.9634 303.816 37.8508C283.382 43.7383 281.103 48.4041 268.322 47.5636C255.542 46.7231 294.181 53.7275 294.181 53.7275C294.181 53.7275 323.303 53.5594 330.027 43.9699Z" fill="#F9B72D" stroke="#8E4700" stroke-width="2.08839" stroke-miterlimit="10"/>
<path d="M292.766 52.255C277.09 51.4332 276.426 49.7147 272.249 44.8583C268.072 40.002 259.719 40.002 259.719 40.002" fill="#F9B72D"/>
<path d="M292.766 52.255C277.09 51.4332 276.426 49.7147 272.249 44.8583C268.072 40.002 259.719 40.002 259.719 40.002" stroke="#8E4700" stroke-width="2.08839" stroke-miterlimit="10"/>
<path d="M337.537 48.2803C337.537 48.2803 331.713 40.2261 316.593 44.9705C301.473 49.7148 300.35 53.6298 294.178 53.7269C288.005 53.824 309.831 54.5712 309.831 54.5712L337.537 48.2803Z" fill="#F9B72D" stroke="#8E4700" stroke-width="2.08839" stroke-miterlimit="10"/>
<path d="M342.068 56.2532C342.068 56.2532 338.081 40.6754 324.191 46.1295C310.301 51.5836 312.097 54.7589 303.539 55.5995C294.982 56.44 286.633 60.1271 286.633 60.1271L342.068 56.2532Z" fill="#F9B72D" stroke="#8E4700" stroke-width="2.08839" stroke-miterlimit="10"/>
<path d="M340.935 52.7038C340.935 52.7038 329.797 47.4738 321.908 51.2095C314.018 54.9452 303.809 57.9338 303.809 57.9338" fill="#F9B72D"/>
<path d="M340.935 52.7038C340.935 52.7038 329.797 47.4738 321.908 51.2095C314.018 54.9452 303.809 57.9338 303.809 57.9338" stroke="#8E4700" stroke-width="2.08839" stroke-miterlimit="10"/>
<path d="M342.076 56.2527C342.076 56.2527 333.977 51.9566 327.016 54.5716C322.391 56.2749 317.654 57.7714 312.824 59.0544" fill="#F9B72D"/>
<path d="M342.076 56.2527C342.076 56.2527 333.977 51.9566 327.016 54.5716C322.391 56.2749 317.654 57.7714 312.824 59.0544" stroke="#8E4700" stroke-width="2.08839" stroke-miterlimit="10"/>
<path d="M228.799 55.9125C228.831 55.5959 228.979 55.2941 229.226 55.0459C242.485 41.758 263.986 35.9565 274.562 42.6172C285.236 49.3415 286.628 52.7036 299.623 52.7036C311.912 52.7036 317.56 54.1979 319.903 56.8128C320.146 57.0852 320.275 57.4118 320.275 57.7468V59.1813C320.273 59.6047 320.064 60.0104 319.691 60.3094C319.319 60.6085 318.814 60.7764 318.288 60.7764H230.441C230.167 60.7767 229.895 60.731 229.643 60.6421C229.391 60.5532 229.165 60.4231 228.979 60.2601C228.793 60.097 228.651 59.9046 228.563 59.6951C228.474 59.4856 228.441 59.2635 228.464 59.043L228.799 55.9125Z" fill="#F9B72D" stroke="#8E4700" stroke-width="2.08839" stroke-miterlimit="10"/>
<path d="M244.285 44.5527C244.285 44.5527 258.171 40.7498 265.67 45.6062C273.17 50.4626 271.782 54.5719 283.848 54.9454C295.915 55.319 301.948 56.8133 301.948 57.934" fill="#F9B72D"/>
<path d="M244.285 44.5527C244.285 44.5527 258.171 40.7498 265.67 45.6062C273.17 50.4626 271.782 54.5719 283.849 54.9454C295.915 55.319 301.948 56.8133 301.948 57.934" stroke="#8E4700" stroke-width="2.08839" stroke-miterlimit="10"/>
<path d="M237.758 48.1724C237.758 48.1724 248.102 45.2325 255.528 46.7267C262.953 48.221 263.881 49.3417 266.666 53.0774C269.45 56.8131 275.483 59.0545 281.517 59.0545" fill="#F9B72D"/>
<path d="M237.758 48.1724C237.758 48.1724 248.102 45.2325 255.528 46.7267C262.953 48.221 263.881 49.3417 266.666 53.0774C269.45 56.8131 275.483 59.0545 281.517 59.0545" stroke="#8E4700" stroke-width="2.08839" stroke-miterlimit="10"/>
<path d="M232.387 52.1518C232.387 52.1518 245.794 48.0612 252.987 51.5055C260.181 54.9498 255.053 61.2183 264.126 61.0726" fill="#F9B72D"/>
<path d="M232.387 52.1518C232.387 52.1518 245.794 48.0612 252.987 51.5055C260.181 54.9498 255.053 61.2183 264.126 61.0726" stroke="#8E4700" stroke-width="2.08839" stroke-miterlimit="10"/>
<path d="M325.644 39.3643C325.644 39.3643 318.65 35.9574 310.065 39.8537C301.479 43.75 301.201 47.2541 286.953 50.5453" fill="#F9B72D"/>
<path d="M325.644 39.3643C325.644 39.3643 318.65 35.9574 310.065 39.8537C301.479 43.75 301.201 47.2541 286.953 50.5453" stroke="#8E4700" stroke-width="2.08839" stroke-miterlimit="10"/>
<path d="M320.277 86.6987C320.277 99.5869 305.213 104.159 286.631 104.159C268.049 104.159 252.984 99.5869 252.984 86.6987H320.277Z" fill="black" stroke="#303030" stroke-width="2.08839" stroke-miterlimit="10"/>
<path d="M342.063 56.2525C342.495 56.2511 342.922 56.3214 343.318 56.4589C343.714 56.5964 344.071 56.7982 344.366 57.0517C344.66 57.3052 344.887 57.6049 345.032 57.9321C345.176 58.2593 345.235 58.607 345.205 58.9534C343.205 80.1833 317.741 96.9715 286.628 96.9715C255.516 96.9715 230.052 80.1833 228.047 58.9534C228.017 58.607 228.076 58.2593 228.22 57.9321C228.365 57.6049 228.591 57.3052 228.886 57.0517C229.181 56.7982 229.538 56.5964 229.934 56.4589C230.33 56.3214 230.757 56.2511 231.189 56.2525H342.063Z" fill="black" stroke="#303030" stroke-width="2.08839" stroke-miterlimit="10"/>
<path d="M309.061 45.2046C310.058 44.776 310.485 43.8546 310.016 43.1465C309.546 42.4384 308.357 42.2118 307.36 42.6404C306.363 43.069 305.936 43.9905 306.405 44.6986C306.875 45.4067 308.064 45.6332 309.061 45.2046Z" stroke="#86A71B" stroke-width="1.81957" stroke-miterlimit="10"/>
<path d="M251.594 48.4074C252.875 48.4074 253.914 47.9057 253.914 47.2867C253.914 46.6678 252.875 46.166 251.594 46.166C250.312 46.166 249.273 46.6678 249.273 47.2867C249.273 47.9057 250.312 48.4074 251.594 48.4074Z" stroke="#86A71B" stroke-width="1.82386" stroke-miterlimit="10"/>
<path d="M325.849 49.902C326.874 49.902 327.705 49.4839 327.705 48.9681C327.705 48.4523 326.874 48.0342 325.849 48.0342C324.823 48.0342 323.992 48.4523 323.992 48.9681C323.992 49.4839 324.823 49.902 325.849 49.902Z" stroke="#86A71B" stroke-width="1.82386" stroke-miterlimit="10"/>
<path d="M304.716 39.69C306.843 37.7948 306.923 35.0621 304.893 33.5862C302.864 32.1103 299.495 32.4502 297.367 34.3454C295.24 36.2405 295.161 38.9733 297.19 40.4492C299.219 41.925 302.588 41.5851 304.716 39.69Z" fill="white" stroke="#FF895A" stroke-width="1.39226" stroke-miterlimit="10"/>
<path d="M303.805 36.0571C303.805 36.0571 302.223 34.1444 300.241 35.1008C298.259 36.0571 297.865 38.6086 299.847 38.9261C301.828 39.2437 302.631 37.6523 302.413 37.0135C302.195 36.3747 301.062 35.5192 300.455 36.9014C299.847 38.2836 300.636 37.9698 300.636 37.9698" fill="white"/>
<path d="M303.805 36.0571C303.805 36.0571 302.223 34.1444 300.241 35.1008C298.259 36.0571 297.865 38.6086 299.847 38.9261C301.828 39.2437 302.631 37.6523 302.413 37.0135C302.195 36.3747 301.062 35.5192 300.455 36.9014C299.847 38.2836 300.636 37.9698 300.636 37.9698" stroke="#FF9779" stroke-width="0.394473" stroke-miterlimit="10"/>
<path d="M298.318 43.8115C300.353 41.8195 299.675 38.6644 296.805 36.7643C293.934 34.8643 289.958 34.9388 287.923 36.9308C285.888 38.9228 286.565 42.0779 289.436 43.978C292.307 45.878 296.283 45.8035 298.318 43.8115Z" fill="white" stroke="#FF895A" stroke-width="1.39226" stroke-miterlimit="10"/>
<path d="M294.674 42.935C294.674 42.935 297.371 41.3398 295.872 39.5243C294.373 37.7087 290.642 37.4771 290.303 39.3599C289.964 41.2427 292.308 41.8927 293.227 41.6761C294.145 41.4594 295.333 40.32 293.282 39.8082C291.231 39.2964 291.737 40.0398 291.737 40.0398" fill="white"/>
<path d="M294.674 42.935C294.674 42.935 297.371 41.3398 295.872 39.5243C294.373 37.7087 290.642 37.4771 290.303 39.3599C289.964 41.2427 292.308 41.8927 293.227 41.6761C294.145 41.4594 295.333 40.32 293.282 39.8082C291.231 39.2964 291.737 40.0398 291.737 40.0398" stroke="#FF9779" stroke-width="0.464086" stroke-miterlimit="10"/>
<path d="M278.414 48.8055C279.298 47.9217 278.556 46.259 276.755 45.0917C274.955 43.9243 272.778 43.6944 271.894 44.5781C271.01 45.4618 271.753 47.1246 273.553 48.2919C275.354 49.4593 277.53 49.6892 278.414 48.8055Z" stroke="#86A71B" stroke-width="1.82386" stroke-miterlimit="10"/>
<path d="M272.643 39.543C275.304 36.1886 272.642 30.9923 266.697 27.9366C260.752 24.8808 253.776 25.1229 251.115 28.4773C248.454 31.8316 251.116 37.0279 257.061 40.0836C263.006 43.1393 269.983 42.8973 272.643 39.543Z" fill="white" stroke="#A5A5A5" stroke-width="2.08839" stroke-miterlimit="10"/>
<path d="M274.277 37.7626C276.47 34.9978 273.429 30.2793 267.484 27.2236C261.539 24.1679 254.942 23.9321 252.749 26.6969C250.555 29.4618 253.597 34.1803 259.542 37.236C265.487 40.2917 272.084 40.5275 274.277 37.7626Z" fill="white" stroke="#A5A5A5" stroke-width="2.08839" stroke-miterlimit="10"/>
<path d="M271.787 35.1554C272.773 33.9121 271.405 31.7899 268.73 30.4153C266.056 29.0406 263.088 28.9342 262.102 30.1775C261.116 31.4208 262.484 33.5431 265.159 34.9177C267.833 36.2923 270.801 36.3988 271.787 35.1554Z" fill="#F9E100" stroke="#A5A5A5" stroke-width="2.08839" stroke-miterlimit="10"/>
<path d="M230.711 65.5923L234.275 67.9719C234.968 68.3345 235.757 68.561 236.578 68.633C237.4 68.705 238.231 68.6206 239.004 68.3866L240.257 68.013C240.995 67.7886 241.786 67.7006 242.572 67.7555C243.357 67.8105 244.117 68.007 244.796 68.3305L248.142 69.9257C248.853 70.264 249.652 70.4629 250.476 70.5064C251.3 70.5499 252.125 70.4367 252.885 70.176L256.25 69.0216C256.974 68.7746 257.758 68.6608 258.544 68.6885C259.33 68.7163 260.098 68.885 260.793 69.1823L265.972 71.4237C266.759 71.7649 267.64 71.9388 268.534 71.929C269.427 71.9192 270.303 71.726 271.077 71.3677L273.37 70.3179C274.235 69.9207 275.223 69.7295 276.217 69.7666C277.212 69.8036 278.174 70.0674 278.99 70.5271L281.199 71.7674C282 72.2199 282.943 72.4831 283.921 72.5273C284.898 72.5715 285.871 72.395 286.731 72.0177L290.081 70.5495C290.902 70.1897 291.827 70.0121 292.76 70.0351C293.694 70.0581 294.604 70.2808 295.395 70.6803L297.813 71.8981C298.633 72.3128 299.579 72.5372 300.547 72.5464C301.515 72.5556 302.467 72.3494 303.299 71.9504L306.547 70.3889C307.218 70.068 307.969 69.8714 308.746 69.8132C309.523 69.7551 310.307 69.8369 311.04 70.0527L315.954 71.4947C316.66 71.7018 317.412 71.7849 318.16 71.7385C318.909 71.6921 319.636 71.5173 320.293 71.2257L324.684 69.2831C325.527 68.9092 326.481 68.7288 327.443 68.7618C328.404 68.7947 329.336 69.0397 330.137 69.4699V69.4699C330.994 69.9297 332 70.1772 333.03 70.1818C334.06 70.1864 335.07 69.9481 335.933 69.4961L342.542 66.3506" stroke="#A50000" stroke-width="3.71269" stroke-miterlimit="10" stroke-linecap="round"/>
</g>
</g>
<defs>
<clipPath id="clip0_2524_5184">
<rect width="132" height="93" fill="white" transform="translate(227 12)"/>
</clipPath>
</defs>
</svg>
