<svg width="428" height="105" viewBox="0 0 428 105" fill="none" xmlns="http://www.w3.org/2000/svg">
<rect width="428" height="105" fill="#EAB463"/>
<g clip-path="url(#clip0_2526_5218)">
<path d="M33.778 31.602L33.274 30.482C33.862 30.426 34.3987 30.328 34.884 30.188C35.3693 30.0387 35.7893 29.8613 36.144 29.656C36.508 29.4413 36.7973 29.208 37.012 28.956C37.236 28.6947 37.376 28.424 37.432 28.144H33.764V26.982H43.102V28.144H39.406C39.4527 28.424 39.5833 28.6947 39.798 28.956C40.022 29.208 40.316 29.4413 40.68 29.656C41.044 29.8613 41.4687 30.0387 41.954 30.188C42.4487 30.328 42.99 30.426 43.578 30.482L43.06 31.602C41.94 31.49 40.9693 31.2193 40.148 30.79C39.336 30.3513 38.762 29.81 38.426 29.166C38.0807 29.8193 37.502 30.3607 36.69 30.79C35.878 31.21 34.9073 31.4807 33.778 31.602ZM39.126 32.624H44.138V33.786H32.7V32.624H37.684V30.93H39.126V32.624ZM38.398 34.654C39.8073 34.654 40.8853 34.8453 41.632 35.228C42.3787 35.6107 42.752 36.1567 42.752 36.866C42.752 37.5753 42.3787 38.1213 41.632 38.504C40.8853 38.8867 39.8073 39.078 38.398 39.078C36.998 39.078 35.92 38.8867 35.164 38.504C34.4173 38.1213 34.044 37.5753 34.044 36.866C34.044 36.1567 34.4173 35.6107 35.164 35.228C35.92 34.8453 36.998 34.654 38.398 34.654ZM38.398 37.972C39.3313 37.972 40.0453 37.8833 40.54 37.706C41.044 37.5193 41.296 37.2393 41.296 36.866C41.296 36.502 41.044 36.2267 40.54 36.04C40.0453 35.8533 39.3313 35.76 38.398 35.76C37.4647 35.76 36.7507 35.8533 36.256 36.04C35.7613 36.2267 35.514 36.502 35.514 36.866C35.514 37.2393 35.7613 37.5193 36.256 37.706C36.7507 37.8833 37.4647 37.972 38.398 37.972ZM54.1049 36.404H57.0449V37.594H45.5929V36.404H48.6589V34.22H46.9789V30.16H54.2589V28.48H46.9509V27.318H55.6869V31.308H48.3929V33.058H55.9669V34.22H54.1049V36.404ZM50.0869 34.22V36.404H52.6769V34.22H50.0869ZM68.8878 26.422V35.928H67.4458V26.422H68.8878ZM66.5498 32.904L66.6478 33.954C65.9851 34.0473 65.3085 34.1267 64.6178 34.192C63.9271 34.248 63.2411 34.2947 62.5598 34.332C61.8878 34.36 61.2251 34.3787 60.5718 34.388C59.9185 34.3973 59.2978 34.402 58.7098 34.402L58.5138 33.24C59.0458 33.24 59.5965 33.2353 60.1658 33.226C60.7351 33.2167 61.3278 33.2027 61.9438 33.184V31.63H59.6058V27.22H65.6818V28.396H61.0478V30.454H65.7518V31.63H63.3858V33.128C63.9458 33.1093 64.4871 33.0813 65.0098 33.044C65.5325 33.0067 66.0458 32.96 66.5498 32.904ZM61.9998 37.664H69.2798V38.84H60.5578V35.27H61.9998V37.664ZM83.4276 26.422H84.8836V39.106H83.4276V26.422ZM78.1496 27.36C78.6256 27.36 79.0596 27.4673 79.4516 27.682C79.8529 27.8873 80.1982 28.186 80.4876 28.578C80.7769 28.9607 81.0009 29.4273 81.1596 29.978C81.3276 30.5193 81.4116 31.1307 81.4116 31.812C81.4116 32.4933 81.3276 33.114 81.1596 33.674C81.0009 34.2247 80.7769 34.6913 80.4876 35.074C80.1982 35.4567 79.8529 35.7553 79.4516 35.97C79.0596 36.1753 78.6256 36.278 78.1496 36.278C77.6829 36.278 77.2489 36.1753 76.8476 35.97C76.4556 35.7553 76.1149 35.4567 75.8256 35.074C75.5362 34.6913 75.3076 34.2247 75.1396 33.674C74.9809 33.114 74.9016 32.4933 74.9016 31.812C74.9016 31.1307 74.9809 30.5193 75.1396 29.978C75.3076 29.4273 75.5362 28.9607 75.8256 28.578C76.1149 28.186 76.4556 27.8873 76.8476 27.682C77.2489 27.4673 77.6829 27.36 78.1496 27.36ZM78.1496 28.662C77.5896 28.662 77.1369 28.942 76.7916 29.502C76.4556 30.0527 76.2876 30.8227 76.2876 31.812C76.2876 32.8293 76.4556 33.6133 76.7916 34.164C77.1369 34.7147 77.5896 34.99 78.1496 34.99C78.7096 34.99 79.1622 34.7147 79.5076 34.164C79.8529 33.6133 80.0256 32.8293 80.0256 31.812C80.0256 30.8227 79.8529 30.0527 79.5076 29.502C79.1622 28.942 78.7096 28.662 78.1496 28.662ZM98.0565 26.436V36.012H96.6845V26.436H98.0565ZM92.8065 31.196V33.716H87.8645V27.43H89.2225V29.474H91.4625V27.43H92.8065V30.02H94.2345V26.674H95.5925V35.634H94.2345V31.196H92.8065ZM91.4625 32.568V30.594H89.2225V32.568H91.4625ZM91.1545 37.664H98.4065V38.84H89.6985V34.752H91.1545V37.664ZM110.417 33.114V34.276H101.653V27.458H110.319V28.62H103.123V30.244H110.039V31.378H103.123V33.114H110.417ZM100.239 36.348H111.705V37.524H100.239V36.348Z" fill="#3C3C3C"/>
<path d="M41.312 60.576H43.088L42.512 65.256H44.528V67.08H42.296L41.816 70.92H44V72.744H41.648L41 78H39.176L39.8 72.744H36.752L36.128 78H34.304L34.928 72.744H32.96V70.92H35.168L35.624 67.08H33.488V65.256H35.864L36.44 60.576H38.264L37.688 65.256H40.712L41.312 60.576ZM37.448 67.08L36.992 70.92H40.04L40.52 67.08H37.448ZM63.6239 66.816H49.0799V58.728H51.5279V60.864H61.1759V58.728H63.6239V66.816ZM61.1759 62.76H51.5279V64.848H61.1759V62.76ZM57.5759 70.464V72.264C59.6079 72.392 61.1439 72.776 62.1839 73.416C63.2399 74.056 63.7679 74.928 63.7679 76.032C63.7679 77.28 63.1279 78.224 61.8479 78.864C60.5679 79.52 58.7199 79.848 56.3039 79.848C53.9039 79.848 52.0639 79.52 50.7839 78.864C49.5039 78.224 48.8639 77.28 48.8639 76.032C48.8639 74.928 49.3919 74.056 50.4479 73.416C51.5039 72.76 53.0479 72.368 55.0799 72.24V70.464H46.5359V68.472H66.1439V70.464H57.5759ZM61.2719 76.032C61.2719 75.392 60.8399 74.912 59.9759 74.592C59.1279 74.256 57.9039 74.088 56.3039 74.088C54.7039 74.088 53.4799 74.256 52.6319 74.592C51.7839 74.912 51.3599 75.392 51.3599 76.032C51.3599 76.672 51.7839 77.16 52.6319 77.496C53.4799 77.816 54.7039 77.976 56.3039 77.976C57.9039 77.976 59.1279 77.816 59.9759 77.496C60.8399 77.16 61.2719 76.672 61.2719 76.032ZM86.6381 58.152V79.896H84.1421V68.256H79.9421C79.8781 69.312 79.6941 70.256 79.3901 71.088C79.0861 71.92 78.6941 72.632 78.2141 73.224C77.7341 73.816 77.1741 74.272 76.5341 74.592C75.8941 74.896 75.2061 75.048 74.4701 75.048C73.6701 75.048 72.9341 74.872 72.2621 74.52C71.5901 74.152 71.0141 73.64 70.5341 72.984C70.0541 72.328 69.6781 71.528 69.4061 70.584C69.1341 69.624 68.9981 68.56 68.9981 67.392C68.9981 66.224 69.1341 65.176 69.4061 64.248C69.6781 63.304 70.0541 62.504 70.5341 61.848C71.0141 61.176 71.5901 60.664 72.2621 60.312C72.9341 59.944 73.6701 59.76 74.4701 59.76C75.1901 59.76 75.8621 59.912 76.4861 60.216C77.1261 60.52 77.6861 60.952 78.1661 61.512C78.6461 62.072 79.0381 62.752 79.3421 63.552C79.6461 64.352 79.8381 65.248 79.9181 66.24H84.1421V58.152H86.6381ZM74.4701 72.84C75.4301 72.84 76.1901 72.368 76.7501 71.424C77.3261 70.48 77.6141 69.136 77.6141 67.392C77.6141 65.696 77.3261 64.376 76.7501 63.432C76.1901 62.472 75.4301 61.992 74.4701 61.992C73.5421 61.992 72.7901 62.472 72.2141 63.432C71.6381 64.376 71.3501 65.696 71.3501 67.392C71.3501 69.136 71.6381 70.48 72.2141 71.424C72.7901 72.368 73.5421 72.84 74.4701 72.84ZM110.732 63.528V65.568H108.308V71.352H105.884V58.176H108.308V63.528H110.732ZM104.3 69.816H98.3002V59.712H100.34V62.808H102.236V59.712H104.3V69.816ZM97.1722 69.816H91.1242V59.712H93.1642V62.808H95.1322V59.712H97.1722V69.816ZM102.236 64.752H100.34V67.824H102.236V64.752ZM95.1322 64.752H93.1642V67.824H95.1322V64.752ZM101.06 71.736C102.212 71.736 103.244 71.832 104.156 72.024C105.084 72.2 105.86 72.464 106.484 72.816C107.124 73.152 107.612 73.576 107.948 74.088C108.3 74.584 108.476 75.152 108.476 75.792C108.476 76.432 108.3 77.008 107.948 77.52C107.612 78.016 107.124 78.432 106.484 78.768C105.86 79.12 105.084 79.384 104.156 79.56C103.244 79.752 102.212 79.848 101.06 79.848C98.7562 79.848 96.9482 79.488 95.6362 78.768C94.3242 78.064 93.6682 77.072 93.6682 75.792C93.6682 74.512 94.3242 73.52 95.6362 72.816C96.9482 72.096 98.7562 71.736 101.06 71.736ZM101.06 77.928C102.66 77.928 103.876 77.744 104.708 77.376C105.54 77.008 105.956 76.48 105.956 75.792C105.956 75.072 105.54 74.536 104.708 74.184C103.876 73.832 102.66 73.656 101.06 73.656C99.4602 73.656 98.2442 73.832 97.4122 74.184C96.5802 74.536 96.1642 75.072 96.1642 75.792C96.1642 76.48 96.5802 77.008 97.4122 77.376C98.2442 77.744 99.4602 77.928 101.06 77.928ZM129.714 63.072V65.544H132.738V67.584H129.714V70.416H127.242V58.176H129.714V61.032H132.738V63.072H129.714ZM125.562 68.064C123.722 68.432 121.986 68.68 120.354 68.808C118.722 68.936 117.106 69 115.506 69H113.754V59.232H116.226V66.96C117.682 66.928 119.146 66.856 120.618 66.744C122.106 66.616 123.65 66.392 125.25 66.072L125.562 68.064ZM115.866 71.52H129.714V79.584H115.866V71.52ZM118.29 77.592H127.29V73.488H118.29V77.592ZM151.792 63.072V65.544H154.816V67.584H151.792V70.416H149.32V58.176H151.792V61.032H154.816V63.072H151.792ZM147.64 68.064C145.8 68.432 144.064 68.68 142.432 68.808C140.8 68.936 139.184 69 137.584 69H135.832V59.232H138.304V66.96C139.76 66.928 141.224 66.856 142.696 66.744C144.184 66.616 145.728 66.392 147.328 66.072L147.64 68.064ZM137.944 71.52H151.792V79.584H137.944V71.52ZM140.368 77.592H149.368V73.488H140.368V77.592Z" fill="#3C3C3C"/>
<g clip-path="url(#clip1_2526_5218)">
<path d="M323.468 72.9738C323.468 72.9738 355.002 59.5748 351.717 71.897C348.433 84.2192 340.922 95.1739 343.036 104.465C345.149 113.756 339 137.945 309.749 107.195" fill="#F8D174"/>
<path d="M323.468 72.9738C323.468 72.9738 355.002 59.5748 351.717 71.897C348.433 84.2192 340.922 95.1739 343.036 104.465C345.149 113.756 339 137.945 309.749 107.195" stroke="#DE8A32" stroke-width="2.22012" stroke-miterlimit="10"/>
<path d="M260.03 103.718C260.03 103.718 263.317 117.218 279.585 121.974C290.466 125.156 295.624 125.182 296.435 119.987C297.246 114.792 296.024 113.026 296.024 113.026" fill="#F8D174"/>
<path d="M260.03 103.718C260.03 103.718 263.317 117.218 279.585 121.974C290.466 125.156 295.624 125.182 296.435 119.987C297.246 114.792 296.024 113.026 296.024 113.026" stroke="#DE8A32" stroke-width="2.22012" stroke-miterlimit="10"/>
<path d="M267.822 37.6082C267.822 37.6082 275.634 25.8217 283.813 27.4282C291.992 29.0346 312.423 38.4975 317.395 46.7089C322.367 54.9202 323.131 65.6188 323.131 65.6188" fill="#F8D174"/>
<path d="M267.822 37.6082C267.822 37.6082 275.634 25.8217 283.813 27.4282C291.992 29.0346 312.423 38.4975 317.395 46.7089C322.367 54.9202 323.131 65.6188 323.131 65.6188" stroke="#DE8A32" stroke-width="2.22012" stroke-miterlimit="10"/>
<path d="M325.748 89.6768C320.149 110.684 296.142 116.788 270.426 109.932C244.71 103.077 226.928 85.8335 232.528 64.8268C238.128 43.82 263.562 32.3584 289.278 39.2136C314.994 46.0688 331.348 68.6701 325.748 89.6768Z" fill="#F8D174" stroke="#DE8A32" stroke-width="2.22012" stroke-miterlimit="10"/>
<path d="M252.399 66.6806C254.914 67.351 257.497 65.8557 258.167 63.3406C258.838 60.8256 257.342 58.2433 254.827 57.5728C252.312 56.9024 249.73 58.3977 249.059 60.9128C248.389 63.4278 249.884 66.0101 252.399 66.6806Z" fill="#DE8A32"/>
<path d="M227.678 70.9471C227.678 70.9471 222.058 78.2972 230.309 80.6862C238.561 83.0753 242.534 74.9074 242.534 74.9074" fill="#F8D174"/>
<path d="M227.678 70.9471C227.678 70.9471 222.058 78.2972 230.309 80.6862C238.561 83.0753 242.534 74.9074 242.534 74.9074" stroke="#DE8A32" stroke-width="2.22012" stroke-linecap="round" stroke-linejoin="round"/>
<path d="M241.024 71.6834C241.024 71.6834 233.98 61.7721 228.269 63.6927C222.559 65.6133 228.095 72.8274 234.56 72.2554" fill="#F8D174"/>
<path d="M241.024 71.6834C241.024 71.6834 233.98 61.7721 228.269 63.6927C222.559 65.6133 228.095 72.8274 234.56 72.2554" stroke="#DE8A32" stroke-width="2.22012" stroke-linecap="round" stroke-linejoin="round"/>
<path d="M267.488 64.9663C267.488 64.9663 276.477 78.6036 262.233 84.6819Z" fill="#F8D174"/>
<path d="M267.488 64.9663C267.488 64.9663 276.477 78.6036 262.233 84.6819" stroke="#DE8A32" stroke-width="2.22012" stroke-linecap="round" stroke-linejoin="round"/>
<path d="M285.048 62.0371C287.27 62.3137 288.72 64.8176 288.667 66.8866C288.601 69.5256 286.55 71.6873 284.318 72.8254C284.001 73.0098 283.77 73.3124 283.675 73.6669C283.581 74.0214 283.631 74.3988 283.814 74.7166C285.447 77.1358 286.287 80.0027 286.218 82.9203C286.192 83.9232 286.221 85.3829 285.131 85.7291C284.567 85.906 283.961 85.9396 283.39 86.08C282.685 86.2443 282.032 86.5807 281.488 87.0591C281.277 87.2757 281.142 87.5545 281.102 87.8542C281.063 88.1538 281.121 88.4582 281.269 88.7221C281.755 89.8277 281.876 91.0601 281.612 92.2391C281.348 93.418 280.714 94.4817 279.803 95.2746C278.849 96.0188 277.696 96.4626 276.49 96.5497C275.283 96.6368 274.078 96.3633 273.028 95.7638C271.473 94.8789 270.072 97.2713 271.627 98.1562C273.207 99.0546 275.024 99.4479 276.835 99.2832C278.645 99.1185 280.361 98.4037 281.754 97.2349C283.097 96.0092 284.009 94.3825 284.354 92.5969C284.699 90.8112 284.458 88.962 283.667 87.3243L283.453 88.9887C283.932 88.7262 284.464 88.5759 285.01 88.5489C285.733 88.4558 286.43 88.2158 287.057 87.8437C288.644 86.7978 288.917 84.8277 288.993 83.0804C289.118 79.6087 288.15 76.1852 286.225 73.2935L285.721 75.1847C288.927 73.5547 291.611 70.179 291.456 66.4363C291.408 64.6722 290.739 62.9816 289.566 61.663C288.392 60.3445 286.791 59.4828 285.045 59.2302C284.677 59.2368 284.328 59.3872 284.07 59.649C283.812 59.9107 283.668 60.2631 283.667 60.6304C283.68 60.9943 283.832 61.3396 284.091 61.5947C284.351 61.8498 284.699 61.9953 285.063 62.001L285.048 62.0371Z" fill="#DE8A32"/>
<path d="M303.717 69.0918C306.211 70.8641 305.535 74.8211 302.674 75.78C302.39 75.8705 302.142 76.0494 301.966 76.2908C301.79 76.5321 301.696 76.8232 301.697 77.1218C301.698 77.4203 301.794 77.7108 301.972 77.9508C302.149 78.1909 302.399 78.3681 302.684 78.4565C303.762 78.87 304.468 79.9018 304.974 80.8861C305.617 82.066 306.024 83.3595 306.174 84.6947C306.358 87.3202 303.346 87.9001 301.329 88.2749C301.125 88.3327 300.938 88.4359 300.78 88.5768C300.622 88.7178 300.498 88.8927 300.418 89.0885C300.337 89.2842 300.303 89.4957 300.316 89.7069C300.329 89.918 300.39 90.1235 300.495 90.3076C300.984 91.1195 301.235 92.0528 301.219 93.0007C301.203 93.9487 300.921 94.873 300.404 95.6679C299.887 96.4628 299.158 97.0963 298.298 97.496C297.438 97.8956 296.483 98.0452 295.543 97.9276C295.188 97.8446 294.815 97.9 294.5 98.0825C294.184 98.2651 293.951 98.561 293.846 98.9099C293.753 99.2651 293.804 99.6427 293.988 99.9605C294.172 100.278 294.474 100.51 294.828 100.606C296.28 100.828 297.765 100.649 299.123 100.089C300.481 99.5285 301.66 98.6081 302.533 97.427C303.392 96.188 303.882 94.7307 303.947 93.2244C304.011 91.7181 303.647 90.2244 302.897 88.9166L302.062 90.9493C303.671 90.7302 305.217 90.179 306.602 89.3306C307.373 88.8275 307.996 88.1292 308.409 87.3069C308.821 86.4845 309.009 85.5675 308.952 84.6491C308.778 82.7658 308.209 80.9403 307.281 79.2919C306.466 77.6778 305.086 76.4196 303.404 75.7564L303.415 78.4276C304.605 78.0639 305.667 77.3694 306.477 76.4252C307.288 75.4809 307.813 74.3258 307.993 73.0943C308.172 71.8629 307.997 70.6059 307.489 69.4699C306.981 68.3339 306.161 67.3656 305.124 66.678C304.806 66.4942 304.429 66.4429 304.074 66.535C303.718 66.6271 303.414 66.8553 303.225 67.1703C303.049 67.4904 303.002 67.8661 303.094 68.2198C303.187 68.5734 303.412 68.8779 303.723 69.0703L303.717 69.0918Z" fill="#DE8A32"/>
<path d="M332.05 85.3738C334.203 84.169 336.411 83.0629 338.672 82.0552C338.99 81.8701 339.222 81.5666 339.316 81.2113C339.411 80.8559 339.361 80.4775 339.178 80.1587C338.987 79.849 338.684 79.6243 338.333 79.5305C337.981 79.4368 337.607 79.4812 337.287 79.6545C335.038 80.6695 332.831 81.7757 330.664 82.9731C330.345 83.1576 330.113 83.461 330.018 83.8167C329.924 84.1724 329.974 84.5511 330.158 84.8697C330.343 85.1882 330.646 85.4204 331.002 85.5152C331.358 85.61 331.736 85.5597 332.055 85.3752L332.05 85.3738Z" fill="#DE8A32"/>
<path d="M330.328 94.8297C330.427 94.8321 330.526 94.8431 330.624 94.8626C330.243 94.7612 330.624 94.8626 330.693 94.8811L331.281 94.9804C331.684 95.0593 332.084 95.1542 332.484 95.2667C332.884 95.3792 333.25 95.4709 333.615 95.6312L333.892 95.7337L334.079 95.7837L333.913 95.7394C334.133 95.798 334.345 95.929 334.549 96.0237C334.873 96.2046 335.254 96.2548 335.613 96.1639C335.876 96.0921 336.112 95.9443 336.292 95.7389C336.471 95.5335 336.586 95.2797 336.622 95.0094C336.658 94.739 336.613 94.464 336.494 94.2189C336.374 93.9738 336.185 93.7694 335.95 93.6313C334.17 92.7917 332.26 92.2613 330.303 92.0628C329.94 92.065 329.592 92.2092 329.335 92.4647C329.075 92.7246 328.929 93.0765 328.928 93.4438C328.927 93.8111 329.071 94.164 329.329 94.4255C329.605 94.6722 329.957 94.8167 330.327 94.8351L330.328 94.8297Z" fill="#DE8A32"/>
<path d="M323.925 105.481C325.552 107.346 327.439 108.966 329.529 110.292C329.846 110.475 330.222 110.526 330.577 110.434C330.931 110.341 331.235 110.113 331.422 109.798C331.6 109.479 331.648 109.103 331.557 108.75C331.465 108.396 331.24 108.092 330.93 107.899C330.438 107.59 329.951 107.265 329.514 106.948C329.389 106.857 329.264 106.766 329.151 106.673L328.986 106.538C328.763 106.363 328.542 106.178 328.329 105.989C327.453 105.23 326.632 104.41 325.873 103.533C325.613 103.275 325.261 103.129 324.894 103.128C324.527 103.127 324.175 103.27 323.913 103.527C323.661 103.79 323.519 104.14 323.517 104.504C323.514 104.869 323.652 105.22 323.901 105.486L323.925 105.481Z" fill="#DE8A32"/>
<path d="M292.891 31.4155L291.469 32.9818C291.211 33.2506 291.065 33.6074 291.06 33.9801C291.052 34.161 291.093 34.3406 291.179 34.4997C291.234 34.6707 291.331 34.825 291.462 34.948C291.722 35.2075 292.073 35.3539 292.441 35.355C292.808 35.3562 293.161 35.2121 293.422 34.9542L294.846 33.3826C295.104 33.1138 295.25 32.757 295.255 32.3843C295.26 32.2038 295.218 32.0251 295.135 31.8646C295.08 31.6952 294.983 31.5428 294.852 31.4218C294.592 31.1622 294.24 31.0159 293.873 31.0147C293.505 31.0135 293.153 31.1576 292.891 31.4155V31.4155Z" fill="#DE8A32"/>
<path d="M303.936 37.0212L303.325 39.3142C303.231 39.6694 303.282 40.047 303.466 40.3647C303.65 40.6825 303.953 40.9146 304.307 41.0106C304.664 41.1023 305.042 41.0508 305.361 40.8669C305.674 40.6792 305.904 40.3793 306.003 40.0283L306.615 37.7353C306.705 37.3796 306.655 37.003 306.476 36.6827C306.291 36.365 305.988 36.1334 305.632 36.0387C305.277 35.9439 304.899 35.9937 304.58 36.1772C304.267 36.368 304.037 36.6692 303.936 37.0212Z" fill="#DE8A32"/>
</g>
<circle cx="395" cy="53" r="12" transform="rotate(-90 395 53)" fill="#FF7775"/>
<path d="M392.963 58.9033C393.229 58.9033 393.453 58.812 393.635 58.6294L398.607 53.707C398.84 53.4829 398.948 53.2422 398.948 52.9517C398.948 52.6611 398.84 52.4121 398.616 52.1963L393.635 47.2739C393.453 47.0913 393.229 47 392.963 47C392.432 47 392 47.4233 392 47.9546C392 48.2202 392.108 48.4609 392.299 48.6602L396.665 52.96L392.299 57.2515C392.108 57.4424 392 57.6831 392 57.9487C392 58.48 392.432 58.9033 392.963 58.9033Z" fill="white"/>
</g>
<defs>
<clipPath id="clip0_2526_5218">
<rect width="428" height="104" fill="white" transform="translate(0 1)"/>
</clipPath>
<clipPath id="clip1_2526_5218">
<rect width="127.625" height="95.023" fill="white" transform="translate(238.477 14) rotate(14.9264)"/>
</clipPath>
</defs>
</svg>
