<svg width="428" height="105" viewBox="0 0 428 105" fill="none" xmlns="http://www.w3.org/2000/svg">
<rect width="428" height="105" fill="#007042"/>
<rect width="428" height="105" fill="#FFE39B"/>
<rect width="428" height="105" fill="#007042"/>
<g opacity="0.3">
<g clip-path="url(#clip0_2409_4564)">
<path d="M367 52.5125C367 65.6441 361.785 78.2379 352.502 87.5234C343.219 96.8088 330.628 102.025 317.5 102.025C304.372 102.025 291.781 96.8088 282.498 87.5234C273.215 78.2379 268 65.6441 268 52.5125C268 25.1704 290.165 5.94385 317.5 5.94385C344.835 5.94385 367 25.1704 367 52.5125Z" fill="white"/>
<path d="M322.489 24.4031C320.84 24.1203 319.171 23.9747 317.498 23.9679C315.834 23.9724 314.173 24.118 312.533 24.4031C312.487 24.4149 312.439 24.4108 312.397 24.3914C312.354 24.372 312.319 24.3385 312.298 24.2965C312.277 24.2545 312.271 24.2066 312.281 24.1607C312.291 24.1149 312.317 24.0739 312.354 24.0447C312.533 24.0447 317.473 20.1533 317.473 20.1533C317.473 20.1533 322.438 23.9423 322.592 24.0447C322.745 24.1471 322.72 24.4543 322.489 24.4031ZM313.915 48.9291C313.841 48.953 313.772 48.9929 313.715 49.046C313.657 49.099 313.612 49.164 313.582 49.2363C314.606 50.03 315.323 51.7964 317.498 51.7964C319.674 51.7964 320.39 49.9788 321.44 49.2363C321.406 49.1622 321.356 49.0964 321.294 49.0433C321.233 48.9903 321.16 48.9513 321.082 48.9291C319.901 49.1539 318.7 49.2569 317.498 49.2363C316.297 49.2544 315.096 49.1515 313.915 48.9291ZM317.498 45.857C316.91 45.857 316.756 45.6265 316.346 45.6265C315.848 45.6538 315.38 45.8742 315.041 46.241C315.051 46.3868 315.115 46.5237 315.22 46.625C316.091 46.625 316.474 47.2394 317.498 47.2394C318.522 47.2394 318.906 46.753 319.776 46.625C319.833 46.5787 319.879 46.52 319.91 46.4535C319.941 46.387 319.956 46.3144 319.955 46.241C319.617 45.8742 319.148 45.6538 318.65 45.6265C318.24 45.6521 318.113 45.857 317.498 45.857ZM366.947 55.227C366.947 56.4047 366.768 57.5823 366.614 58.7344C361.009 59.656 358.936 54.6638 353.254 54.9198C353.614 56.1467 353.896 57.3951 354.099 58.6576C358.834 58.6576 360.753 63.061 366 62.421C365.719 63.7778 365.411 65.1091 365.027 66.4148C360.856 66.85 359.371 62.7026 354.559 62.805C354.559 63.4962 354.559 64.1874 354.559 64.9043C354.559 65.6211 354.559 65.6723 354.559 66.0307C358.654 66.0307 359.985 69.7941 363.901 69.6149C363.432 70.9394 362.894 72.2383 362.289 73.5063C359.473 73.3783 358.501 69.7685 354.227 70.0501C354.073 70.9718 353.945 71.8934 353.74 72.7895C357.451 72.5334 358.245 75.9384 360.907 76.22C360.241 77.4489 359.499 78.7801 358.731 79.8298C357.144 78.985 355.788 76.4504 352.793 76.2968C353.1 75.3496 353.356 74.3767 353.587 73.4039C350.525 73.3513 347.595 72.155 345.371 70.0501C346.19 65.3651 338.895 60.5777 338.895 57.2495C338.895 53.9213 340.789 51.438 340.789 46.3946C340.652 42.4229 339.026 38.6483 336.234 35.8213C335.725 35.305 335.158 34.8496 334.544 34.4644C337.256 37.537 338.821 41.454 338.972 45.5497C338.972 50.286 336.771 52.7949 336.771 57.1727C336.771 61.5505 343.17 65.3395 343.17 69.8453C342.939 72.3345 342.056 74.7189 340.61 76.7577C342.998 79.2684 346.2 80.8474 349.645 81.2123C349.954 81.2518 350.267 81.1878 350.536 81.0303C350.804 80.8728 351.013 80.6307 351.13 80.3418C351.36 79.8298 351.59 79.2666 351.821 78.7289C354.38 78.7289 355.609 81.2891 356.94 82.1339C356.172 83.2092 355.327 84.2332 354.38 85.2317C353.356 83.7212 351.903 82.5529 350.208 81.8779C349.875 82.5179 349.517 83.1836 349.133 83.8236C350.641 84.4844 351.91 85.5926 352.768 86.9982C351.821 87.971 350.874 88.8926 349.85 89.7631C349.154 88.6222 348.231 87.6373 347.137 86.8701C346.727 87.4334 346.292 87.971 345.857 88.483C346.805 89.2176 347.59 90.1418 348.161 91.1968C347.009 92.144 345.78 93.0144 344.526 93.7569C343.912 88.6366 337.053 85.2829 338.921 79.4458C338.127 80.5878 337.658 81.9239 337.564 83.3116C337.564 87.5358 342.069 90.9919 342.427 95.0625C341.506 95.6258 340.559 96.1634 339.586 96.6498C339.407 92.0416 334.647 86.9981 334.647 83.2092C334.647 78.985 340.175 74.7352 340.175 69.7429C340.175 64.7507 333.802 61.2945 333.802 56.9423C333.802 52.5901 336.515 50.03 336.515 44.4233C336.488 42.3568 336.032 40.3185 335.178 38.4369C334.323 36.5554 333.088 34.8715 331.55 33.4916C331.042 33.0249 330.474 32.6288 329.86 32.3139C332.754 35.3294 334.368 39.3478 334.365 43.5272C334.365 48.8011 331.243 51.7196 331.243 56.9167C331.243 62.1137 337.513 64.9555 337.513 69.7173C337.513 74.4791 331.678 78.6009 331.678 83.542C331.678 88.0478 336.797 92.5536 336.797 97.9043C335.696 98.3907 334.544 98.8259 333.367 99.2611C334.032 93.8337 328.248 88.2782 328.248 83.9004C328.248 79.0618 334.288 74.94 334.288 69.7429C334.288 64.5459 328.146 62.0625 328.146 56.9423C328.146 51.822 331.908 48.6475 331.908 42.7592C331.9 40.5799 331.393 38.4314 330.426 36.4787C329.459 34.526 328.057 32.821 326.328 31.4947C326.328 31.4947 326.2 31.4947 326.124 31.3155C326.047 31.1362 325.561 31.3154 325.791 31.6483C328.213 34.5012 329.498 38.1474 329.4 41.8888C329.4 47.265 325.049 51.6684 325.049 56.8655C325.049 63.0354 330.859 64.8019 330.859 69.8453C330.859 74.8888 324.614 78.9338 324.614 84.31C324.614 89.2767 330.526 94.8065 329.502 100.541C328.325 100.848 327.122 101.104 325.919 101.335C327.019 94.1921 321.235 89.0719 321.235 84.3868C321.235 79.2666 327.685 74.7864 327.685 69.8453C327.685 64.9043 323.052 63.6498 322.438 58.888C322.43 58.731 322.388 58.5776 322.316 58.438C322.243 58.2985 322.142 58.1761 322.018 58.0791C321.894 57.9821 321.751 57.9126 321.599 57.8755C321.446 57.8384 321.287 57.8345 321.133 57.8639C319.817 58.3074 318.449 58.5743 317.063 58.6576C315.686 58.576 314.325 58.309 313.019 57.8639C312.863 57.8347 312.703 57.8386 312.549 57.8756C312.395 57.9125 312.25 57.9815 312.125 58.0782C311.999 58.1748 311.895 58.2969 311.82 58.4365C311.745 58.576 311.7 58.7299 311.688 58.888C311.074 63.6498 306.441 65.1859 306.441 69.8453C306.441 74.5047 312.891 79.3178 312.891 84.3868C312.891 89.0719 307.107 94.1921 308.233 101.335C307.004 101.104 305.674 100.848 304.624 100.541C303.6 94.8065 309.513 89.2767 309.513 84.31C309.513 78.9338 303.268 74.8888 303.268 69.8453C303.268 64.8019 309.078 63.0354 309.078 56.8655C309.078 51.7452 304.752 47.265 304.752 41.8888C304.645 38.1503 305.921 34.5037 308.335 31.6483C308.566 31.3922 308.335 31.1106 308.003 31.3155C307.67 31.5203 307.849 31.3155 307.798 31.4947C306.069 32.821 304.667 34.526 303.7 36.4787C302.733 38.4314 302.226 40.5799 302.218 42.7592C302.218 48.6475 305.981 51.5916 305.981 56.9423C305.981 62.2929 299.838 64.6227 299.838 69.7429C299.838 74.8632 305.904 79.0618 305.904 83.9004C305.904 88.3038 300.094 93.8593 300.785 99.2611C299.608 98.8259 298.481 98.3907 297.355 97.9043C297.355 92.5536 302.474 88.0478 302.474 83.542C302.474 78.6009 296.639 74.5303 296.639 69.7173C296.639 64.9043 302.884 62.0369 302.884 56.9167C302.884 51.7964 299.787 48.8011 299.787 43.5272C299.771 39.3452 301.387 35.322 304.291 32.3139C303.67 32.6287 303.093 33.0247 302.577 33.4916C301.043 34.8754 299.811 36.5601 298.957 38.4408C298.103 40.3215 297.645 42.3579 297.611 44.4233C297.611 50.03 300.324 52.5645 300.324 56.9423C300.324 61.3201 293.951 64.7763 293.951 69.7429C293.951 74.7095 300.068 78.9338 300.068 83.2092C300.068 86.9981 295.308 92.0416 295.154 96.6498C294.182 96.1634 293.209 95.6258 292.288 95.0625C292.646 90.8895 297.151 87.5358 297.151 83.3116C297.064 81.9264 296.604 80.5904 295.82 79.4458C297.662 85.2829 290.701 88.7134 290.189 93.7569C288.935 92.912 287.629 92.0416 286.554 91.1968C287.134 90.1476 287.917 89.2249 288.858 88.483C288.412 87.9678 287.993 87.4295 287.604 86.8701C286.451 87.5827 285.465 88.5343 284.712 89.6607C283.705 88.7902 282.732 87.8686 281.794 86.8957C282.652 85.4902 283.92 84.382 285.428 83.7212C285.044 83.0812 284.686 82.4155 284.353 81.7755C282.662 82.4572 281.211 83.6241 280.181 85.1293C279.311 84.1308 278.492 83.1068 277.622 82.0315C279.055 81.1099 280.181 78.729 282.741 78.6265C282.971 79.1642 283.201 79.7274 283.432 80.2394C283.548 80.5283 283.757 80.7704 284.026 80.9279C284.294 81.0854 284.607 81.1494 284.916 81.1099C288.363 80.7516 291.568 79.1715 293.951 76.6553C292.505 74.6165 291.622 72.2321 291.392 69.7429C291.392 65.2371 297.79 61.4481 297.79 57.0703C297.79 52.6925 295.589 50.1836 295.589 45.4473C295.737 41.3461 297.312 37.4253 300.043 34.362C299.416 34.7404 298.84 35.1963 298.328 35.7189C295.546 38.553 293.922 42.3233 293.772 46.2922C293.772 51.4124 295.666 53.4093 295.666 57.1471C295.666 60.8849 288.372 65.3651 289.216 69.9477C286.979 72.0479 284.042 73.243 280.975 73.3015C281.308 74.3473 281.701 75.3731 282.152 76.3736C279.132 76.5272 277.775 79.0618 276.214 79.9066C275.417 78.7431 274.682 77.5381 274.013 76.2968C276.572 76.0152 277.468 72.6103 281.205 72.8663C281 71.9702 280.847 71.0486 280.719 70.1269C276.444 69.8453 275.446 73.4551 272.656 73.5831C272.043 72.3155 271.496 71.0166 271.018 69.6917C274.934 69.8709 276.137 66.0819 280.386 66.1075C280.386 65.7491 280.386 65.3395 280.386 64.9811C280.386 64.6227 280.386 63.573 280.386 62.8818C275.549 62.8818 274.115 66.9268 269.943 66.4916C269.551 65.1774 269.218 63.8461 268.945 62.4978C274.064 63.1378 276.112 58.7088 280.847 58.7344C281.049 57.4719 281.332 56.2235 281.691 54.9966C275.933 54.7406 274.013 59.7328 268.331 58.8112C268.203 57.6591 268.075 56.4815 268.024 55.3038C274.55 56.0206 276.982 50.67 282.92 51.31C283.466 49.9026 284.108 48.5341 284.84 47.2138C277.417 45.9082 274.883 52.1293 267.973 51.182C268.386 38.3327 273.779 26.148 283.013 17.2048C292.246 8.2616 304.594 3.26123 317.447 3.26123C330.3 3.26123 342.648 8.2616 351.882 17.2048C361.115 26.148 366.508 38.3327 366.921 51.182C360.011 52.1293 357.503 45.9082 350.055 47.2138C350.795 48.5334 351.445 49.902 352 51.31C357.963 50.5932 360.42 55.8926 366.947 55.227ZM296.229 34.4388C294.298 33.698 292.218 33.4277 290.162 33.6503C288.106 33.8729 286.132 34.5819 284.404 35.7189C284.156 34.0372 283.576 32.4217 282.697 30.9668C281.818 29.5118 280.659 28.2466 279.285 27.2449C278.927 26.9632 278.543 27.2449 278.569 27.6545C279.158 35.0532 274.806 41.5047 269.483 47.137C274.986 48.8011 279.721 41.7096 286.759 44.1929C289.292 40.3886 292.502 37.0824 296.229 34.4388ZM317.498 29.9842C315.5 29.8587 313.513 30.3646 311.818 31.4305C310.124 32.4963 308.807 34.0682 308.054 35.9237C308.054 36.1797 308.054 36.3589 308.361 36.2309C309.24 35.8456 310.191 35.6536 311.151 35.6677C311.999 35.6317 312.844 35.7828 313.627 36.1102C314.41 36.4376 315.111 36.9333 315.681 37.5622C316.13 39.0828 316.13 40.701 315.681 42.2216C314.913 42.0424 314.632 41.4535 313.864 41.4535C313.096 41.4535 312.533 41.9912 311.304 41.9912C310.076 41.9912 309.871 41.3767 309.026 41.3767C308.182 41.3767 307.875 42.4008 307.875 43.5528C307.875 48.6731 312.584 55.7134 317.575 55.7134C322.566 55.7134 327.275 48.6731 327.275 43.5528C327.275 42.4008 327.045 41.4279 326.021 41.2999C325.408 41.7945 324.632 42.0411 323.846 41.9912C322.566 41.9912 322.233 41.4535 321.465 41.4535C320.698 41.4535 320.646 43.3736 319.571 43.476C318.866 41.5763 318.812 39.496 319.418 37.5622C319.981 36.9311 320.677 36.4335 321.456 36.1058C322.235 35.778 323.078 35.6284 323.923 35.6677C324.882 35.6487 325.835 35.841 326.712 36.2309C326.994 36.2309 327.096 36.2309 327.045 35.9237C326.277 34.0577 324.942 32.4803 323.229 31.4145C321.516 30.3487 319.511 29.8483 317.498 29.9842ZM324.818 37.3317C324.23 37.3093 323.643 37.4066 323.093 37.6178C322.543 37.8291 322.041 38.1498 321.619 38.5606C321.505 38.8396 321.505 39.1521 321.619 39.431C323.615 38.7398 325.381 38.7142 326.226 39.6615C326.41 39.5197 326.559 39.3374 326.661 39.1287C326.763 38.92 326.816 38.6905 326.815 38.4582C326.84 37.767 326.175 37.3317 324.818 37.3317ZM308.745 39.6615C309.51 39.1885 310.385 38.9253 311.284 38.8983C312.182 38.8713 313.072 39.0816 313.864 39.5078C313.864 38.4838 312.098 37.3317 310.204 37.3317C308.847 37.3317 308.182 37.767 308.182 38.4582C308.178 38.6884 308.226 38.9165 308.324 39.1251C308.422 39.3336 308.566 39.5171 308.745 39.6615ZM340.431 22.3294C337.017 22.5066 333.746 23.7613 331.089 25.9136C332.12 22.937 333.531 20.106 335.287 17.4908C331.035 17.8 327.033 19.6155 323.999 22.611L321.773 16.8251L326.661 12.4985L320.109 12.0377L317.549 5.94462L314.99 12.0377L308.438 12.4985L313.326 16.8251L311.023 22.611C307.983 19.61 303.971 17.7941 299.71 17.4908C301.462 20.0901 302.872 22.9036 303.908 25.8624C301.26 23.7105 297.998 22.4555 294.591 22.2782C296.773 25.0595 298.612 28.0938 300.068 31.3155C300.1 31.3972 300.149 31.471 300.213 31.5312C300.277 31.5915 300.353 31.6367 300.436 31.6637C300.52 31.6907 300.608 31.6987 300.695 31.6872C300.782 31.6757 300.865 31.6449 300.939 31.5971C306.075 29.0711 311.723 27.7576 317.447 27.7576C323.171 27.7576 328.819 29.0711 333.956 31.5971C334.029 31.6449 334.112 31.6757 334.199 31.6872C334.286 31.6987 334.374 31.6907 334.458 31.6637C334.541 31.6367 334.618 31.5915 334.681 31.5312C334.745 31.471 334.794 31.3972 334.826 31.3155C336.317 28.1004 338.199 25.0822 340.431 22.3294ZM348.34 44.1929C355.455 41.6328 360.139 48.8011 365.616 47.137C360.292 41.5047 355.941 35.0532 356.53 27.6545C356.53 27.2193 356.172 26.9632 355.813 27.2449C353.055 29.2821 351.214 32.3286 350.694 35.7189C348.967 34.58 346.994 33.8698 344.937 33.6471C342.88 33.4245 340.8 33.6959 338.87 34.4388C342.597 37.0824 345.807 40.3886 348.34 44.1929Z" fill="#007042"/>
<path d="M344.27 100.361H343.963V98.2875H343.195V98.0059H345.038V98.2875H344.27V100.361Z" fill="#007042"/>
<path d="M346.572 99.8235L347.263 98.0059H347.775V100.361H347.442V98.3899L346.649 100.361H346.444L345.651 98.3899V100.361H345.344V98.0059H345.856L346.572 99.8235Z" fill="#007042"/>
</g>
</g>
<circle cx="384" cy="53" r="12" transform="rotate(-90 384 53)" fill="#FF7775"/>
<path d="M382.963 59C383.229 59 383.453 58.9087 383.635 58.7261L388.607 53.8037C388.84 53.5796 388.948 53.3389 388.948 53.0483C388.948 52.7578 388.84 52.5088 388.616 52.293L383.635 47.3706C383.453 47.188 383.229 47.0967 382.963 47.0967C382.432 47.0967 382 47.52 382 48.0513C382 48.3169 382.108 48.5576 382.299 48.7568L386.665 53.0566L382.299 57.3481C382.108 57.5391 382 57.7798 382 58.0454C382 58.5767 382.432 59 382.963 59Z" fill="white"/>
<path d="M43.13 35.648V26.45H41.688V35.648H43.13ZM39.784 33.954L40.512 32.82C38.566 32.19 37.418 30.664 37.418 29.04V28.578H40.12V27.416H33.204V28.578H35.948V29.04C35.948 30.734 34.814 32.386 32.812 33.058L33.568 34.178C35.08 33.674 36.144 32.596 36.704 31.252C37.264 32.498 38.328 33.464 39.784 33.954ZM43.494 37.664H36.326V34.808H34.87V38.84H43.494V37.664ZM53.6009 33.982V30.916H54.9169V34.402H56.2889V26.422H54.9169V29.726H53.6009V26.66H52.2569V33.982H53.6009ZM51.8229 28.984V27.85H49.3869V26.548H47.9729V27.85H45.5229V28.984H51.8229ZM51.4029 31.714C51.4029 30.426 50.2829 29.53 48.6869 29.53C47.1189 29.53 45.9849 30.426 45.9849 31.714C45.9849 33.03 47.1189 33.898 48.6869 33.898C50.2829 33.898 51.4029 33.03 51.4029 31.714ZM47.2729 31.714C47.2729 31.028 47.8329 30.58 48.6869 30.58C49.5269 30.58 50.1149 31.028 50.1149 31.714C50.1149 32.4 49.5269 32.848 48.6869 32.848C47.8329 32.848 47.2729 32.4 47.2729 31.714ZM52.0889 34.584C49.3449 34.584 47.8049 35.368 47.8049 36.824C47.8049 38.28 49.3449 39.078 52.0889 39.078C54.8329 39.078 56.3589 38.28 56.3589 36.824C56.3589 35.368 54.8329 34.584 52.0889 34.584ZM52.0889 37.986C50.2829 37.986 49.2469 37.608 49.2469 36.824C49.2469 36.04 50.2829 35.676 52.0889 35.676C53.9789 35.676 54.9169 36.054 54.9169 36.824C54.9169 37.594 53.9789 37.986 52.0889 37.986ZM59.0318 30.496L59.5498 31.63C61.8038 31.392 63.4978 30.482 64.1838 29.18C64.8558 30.454 66.6058 31.406 68.8178 31.63L69.3218 30.496C66.9838 30.272 65.3458 29.25 65.1638 28.144H68.8598V26.982H59.5218V28.144H63.1898C63.0078 29.25 61.3698 30.272 59.0318 30.496ZM64.8978 33.422H69.8958V32.274H58.4578V33.422H63.4558V34.584C61.0898 34.738 59.8018 35.494 59.8018 36.838C59.8018 38.294 61.3698 39.078 64.1558 39.078C66.9558 39.078 68.5098 38.294 68.5098 36.838C68.5098 35.494 67.2498 34.752 64.8978 34.598V33.422ZM67.0538 36.838C67.0538 37.566 66.0178 37.972 64.1558 37.972C62.2938 37.972 61.2718 37.566 61.2718 36.838C61.2718 36.054 62.2938 35.69 64.1558 35.69C66.0178 35.69 67.0538 36.054 67.0538 36.838ZM84.8836 26.422H83.4276V39.106H84.8836V26.422ZM78.1496 27.36C76.2876 27.36 74.9016 29.096 74.9016 31.812C74.9016 34.556 76.2876 36.278 78.1496 36.278C80.0396 36.278 81.4116 34.556 81.4116 31.812C81.4116 29.096 80.0396 27.36 78.1496 27.36ZM78.1496 28.662C79.2696 28.662 80.0256 29.838 80.0256 31.812C80.0256 33.842 79.2696 34.99 78.1496 34.99C77.0296 34.99 76.2876 33.842 76.2876 31.812C76.2876 29.838 77.0296 28.662 78.1496 28.662ZM98.0565 36.012V26.436H96.6845V36.012H98.0565ZM92.8065 33.716V31.196H94.2345V35.634H95.5925V26.674H94.2345V30.02H92.8065V27.43H91.4625V29.474H89.2225V27.43H87.8645V33.716H92.8065ZM91.4625 30.594V32.568H89.2225V30.594H91.4625ZM98.4065 37.664H91.1545V34.752H89.6985V38.84H98.4065V37.664ZM110.417 34.276V33.114H103.123V31.378H110.039V30.244H103.123V28.62H110.319V27.458H101.653V34.276H110.417ZM111.705 36.348H100.239V37.524H111.705V36.348Z" fill="white"/>
<path d="M48.704 63.768V69.288H51.176V58.152H48.704V61.776H44.312V63.768H48.704ZM44.72 68.928L46.016 67.008C42.776 65.928 40.904 63.432 40.904 60.672V58.848H38.432V60.672C38.432 63.648 36.536 66.384 33.152 67.464L34.424 69.408C37.016 68.52 38.768 66.816 39.728 64.512C40.664 66.528 42.32 68.136 44.72 68.928ZM51.92 77.64H39.56V75.792H51.176V70.32H37.064V72.24H48.728V73.968H37.112V79.584H51.92V77.64ZM72.3901 66.96V59.136H57.7741V66.96H72.3901ZM69.9661 61.104V64.992H60.1981V61.104H69.9661ZM74.9341 69.096H55.2781V71.088H64.0621V75.144H66.5341V71.088H74.9341V69.096ZM60.1501 77.424V73.176H57.6781V79.44H72.7501V77.424H60.1501ZM78.2203 68.976L79.2523 70.944C82.8043 70.248 85.7323 68.232 87.1723 65.424C88.6123 68.232 91.5403 70.176 95.2123 70.872L96.2203 68.904C91.9243 68.208 88.4683 65.328 88.4683 62.04V61.992H95.3563V60H78.9883V61.992H85.8763V62.04C85.8763 65.328 82.4443 68.28 78.2203 68.976ZM97.0123 75.168H88.4443V70.104H85.9483V75.168H77.3803V77.184H97.0123V75.168ZM119.618 68.808V66.768H116.234V58.176H113.762V79.848H116.234V68.808H119.618ZM107.042 63.528V59.976H104.57V63.528C104.57 67.536 102.482 71.64 99.0744 73.296L100.586 75.288C103.082 74.016 104.882 71.496 105.818 68.496C106.754 71.4 108.482 73.656 110.81 74.88L112.322 72.912C109.082 71.328 107.042 67.392 107.042 63.528ZM138.568 70.272L139.696 68.328C136.432 67.44 134.536 65.064 134.536 62.64V62.52H139.096V60.552H134.56V58.08H132.064V60.552H127.504V62.52H132.064V62.64C132.064 65.256 130.168 67.752 126.832 68.712L128.008 70.656C130.6 69.864 132.376 68.256 133.36 66.144C134.296 68.064 136.072 69.528 138.568 70.272ZM146.896 65.52V63.48H143.824V58.176H141.352V70.944H143.824V65.52H146.896ZM129.976 71.904V79.584H143.824V71.904H129.976ZM132.424 77.616V73.872H141.4V77.616H132.424ZM166.982 58.152H164.486V62.832H159.374C158.39 60.888 156.83 59.76 154.814 59.76C151.622 59.76 149.342 62.736 149.342 67.392C149.342 72.096 151.622 75.048 154.814 75.048C156.926 75.048 158.558 73.8 159.494 71.664H164.486V79.896H166.982V58.152ZM154.814 72.84C152.966 72.84 151.67 70.872 151.67 67.392C151.67 64.032 152.966 61.992 154.814 61.992C156.734 61.992 157.958 64.008 157.958 67.392C157.958 70.872 156.734 72.84 154.814 72.84ZM164.486 69.624H160.118C160.238 68.928 160.31 68.232 160.31 67.392C160.31 66.456 160.214 65.664 160.046 64.872H164.486V69.624ZM179.451 80.61L180.747 80.034C179.163 77.424 178.479 74.508 178.479 71.394C178.479 68.298 179.163 65.364 180.747 62.754L179.451 62.196C177.777 64.914 176.787 67.848 176.787 71.394C176.787 74.976 177.777 77.874 179.451 80.61ZM195.804 72.6L196.614 71.07C193.41 70.494 190.8 67.992 190.8 65.4V64.176H188.838V65.4C188.838 67.938 186.228 70.494 183.024 71.07L183.816 72.6C186.462 72.078 188.748 70.35 189.81 68.136C190.872 70.35 193.158 72.078 195.804 72.6ZM197.244 75.768H182.52V77.298H197.244V75.768ZM214.198 71.034V69.504H211.66V63.114H209.806V79.404H211.66V71.034H214.198ZM201.598 74.076V70.584H207.034V69.09H201.598V66.066H207.34V64.536H199.744V75.588H201.058C203.938 75.588 206.152 75.48 208.636 75.102L208.456 73.59C206.17 73.968 204.19 74.076 201.598 74.076ZM229.101 63.114L227.247 63.132V67.254H223.863V64.068H222.045V66.588H218.211V64.086H216.375V71.988H223.863V68.766H227.247V72.816H229.101V63.114ZM222.045 68.028V70.494H218.211V68.028H222.045ZM218.139 73.626V75.12H227.247V79.404H229.101V73.626H218.139ZM245.479 72.6L246.289 71.07C243.085 70.494 240.475 67.992 240.475 65.4V64.176H238.513V65.4C238.513 67.938 235.903 70.494 232.699 71.07L233.491 72.6C236.137 72.078 238.423 70.35 239.485 68.136C240.547 70.35 242.833 72.078 245.479 72.6ZM246.919 75.768H232.195V77.298H246.919V75.768ZM266.243 63.132H264.371V69.522H260.951V71.052H264.371V79.404H266.243V63.132ZM261.005 64.752H253.643V66.264H259.151C259.097 67.182 258.935 68.01 258.719 68.82L252.797 69.18L253.067 70.764L258.143 70.296C257.189 72.33 255.479 73.95 252.725 75.39L253.733 76.83C259.511 73.842 261.005 69.63 261.005 64.752ZM282.748 63.132H280.894V79.404H282.748V63.132ZM277.276 73.734V66.264H278.896V64.77H269.734V66.264H271.354V73.95C270.634 73.968 269.932 73.968 269.302 73.968L269.5 75.498C272.47 75.498 276.304 75.444 279.76 74.868L279.652 73.5C278.878 73.59 278.086 73.68 277.276 73.734ZM273.154 73.932V66.264H275.476V73.842C274.702 73.896 273.928 73.878 273.154 73.932ZM290.642 68.496L291.308 69.936C294.206 69.63 296.384 68.46 297.266 66.786C298.13 68.46 300.344 69.63 303.224 69.936L303.872 68.496C300.848 68.208 298.742 66.894 298.508 65.418H303.278V63.924H291.272V65.418H296.006C295.772 66.894 293.666 68.208 290.642 68.496ZM304.61 70.764H289.904V72.258H304.61V70.764ZM297.23 73.428C293.756 73.428 291.632 74.526 291.632 76.416C291.632 78.306 293.756 79.386 297.23 79.386C300.812 79.386 302.828 78.306 302.828 76.416C302.828 74.526 300.722 73.428 297.23 73.428ZM297.23 77.928C294.836 77.928 293.522 77.424 293.522 76.416C293.522 75.408 294.836 74.886 297.23 74.886C299.624 74.886 300.956 75.408 300.956 76.416C300.956 77.424 299.624 77.928 297.23 77.928ZM318.091 67.218H315.211V68.73H318.091V72.816H319.945V63.132H318.091V67.218ZM315.229 72.294L316.146 70.836C313.699 69.972 312.331 68.01 312.331 65.94V65.724H315.715V64.23H307.021V65.724H310.459V65.958C310.459 68.19 309.001 70.35 306.481 71.25L307.435 72.726C309.379 72.024 310.729 70.62 311.449 68.82C312.151 70.404 313.429 71.664 315.229 72.294ZM314.545 73.248C311.143 73.248 309.055 74.382 309.055 76.326C309.055 78.27 311.143 79.404 314.545 79.404C317.929 79.404 320.017 78.27 320.017 76.326C320.017 74.382 317.929 73.248 314.545 73.248ZM314.545 77.964C312.223 77.964 310.909 77.406 310.909 76.326C310.909 75.246 312.223 74.688 314.545 74.688C316.867 74.688 318.163 75.246 318.163 76.326C318.163 77.406 316.867 77.964 314.545 77.964ZM322.931 80.034L324.227 80.61C325.937 77.874 326.909 74.976 326.909 71.394C326.909 67.848 325.937 64.914 324.227 62.196L322.931 62.754C324.515 65.364 325.199 68.298 325.199 71.394C325.199 74.508 324.515 77.424 322.931 80.034Z" fill="white"/>
<defs>
<clipPath id="clip0_2409_4564">
<rect width="99" height="99" fill="white" transform="translate(268 3)"/>
</clipPath>
</defs>
</svg>
