<svg width="490" height="121" viewBox="0 0 490 121" fill="none" xmlns="http://www.w3.org/2000/svg">
<rect width="490" height="120.21" fill="#EAB463"/>
<path d="M43.13 35.648V26.45H41.688V35.648H43.13ZM39.784 33.954L40.512 32.82C38.566 32.19 37.418 30.664 37.418 29.04V28.578H40.12V27.416H33.204V28.578H35.948V29.04C35.948 30.734 34.814 32.386 32.812 33.058L33.568 34.178C35.08 33.674 36.144 32.596 36.704 31.252C37.264 32.498 38.328 33.464 39.784 33.954ZM43.494 37.664H36.326V34.808H34.87V38.84H43.494V37.664ZM53.6009 33.982V30.916H54.9169V34.402H56.2889V26.422H54.9169V29.726H53.6009V26.66H52.2569V33.982H53.6009ZM51.8229 28.984V27.85H49.3869V26.548H47.9729V27.85H45.5229V28.984H51.8229ZM51.4029 31.714C51.4029 30.426 50.2829 29.53 48.6869 29.53C47.1189 29.53 45.9849 30.426 45.9849 31.714C45.9849 33.03 47.1189 33.898 48.6869 33.898C50.2829 33.898 51.4029 33.03 51.4029 31.714ZM47.2729 31.714C47.2729 31.028 47.8329 30.58 48.6869 30.58C49.5269 30.58 50.1149 31.028 50.1149 31.714C50.1149 32.4 49.5269 32.848 48.6869 32.848C47.8329 32.848 47.2729 32.4 47.2729 31.714ZM52.0889 34.584C49.3449 34.584 47.8049 35.368 47.8049 36.824C47.8049 38.28 49.3449 39.078 52.0889 39.078C54.8329 39.078 56.3589 38.28 56.3589 36.824C56.3589 35.368 54.8329 34.584 52.0889 34.584ZM52.0889 37.986C50.2829 37.986 49.2469 37.608 49.2469 36.824C49.2469 36.04 50.2829 35.676 52.0889 35.676C53.9789 35.676 54.9169 36.054 54.9169 36.824C54.9169 37.594 53.9789 37.986 52.0889 37.986ZM59.0318 30.496L59.5498 31.63C61.8038 31.392 63.4978 30.482 64.1838 29.18C64.8558 30.454 66.6058 31.406 68.8178 31.63L69.3218 30.496C66.9838 30.272 65.3458 29.25 65.1638 28.144H68.8598V26.982H59.5218V28.144H63.1898C63.0078 29.25 61.3698 30.272 59.0318 30.496ZM64.8978 33.422H69.8958V32.274H58.4578V33.422H63.4558V34.584C61.0898 34.738 59.8018 35.494 59.8018 36.838C59.8018 38.294 61.3698 39.078 64.1558 39.078C66.9558 39.078 68.5098 38.294 68.5098 36.838C68.5098 35.494 67.2498 34.752 64.8978 34.598V33.422ZM67.0538 36.838C67.0538 37.566 66.0178 37.972 64.1558 37.972C62.2938 37.972 61.2718 37.566 61.2718 36.838C61.2718 36.054 62.2938 35.69 64.1558 35.69C66.0178 35.69 67.0538 36.054 67.0538 36.838ZM88.0144 26.422H86.5584V39.106H88.0144V26.422ZM81.2804 27.36C79.4184 27.36 78.0324 29.096 78.0324 31.812C78.0324 34.556 79.4184 36.278 81.2804 36.278C83.1704 36.278 84.5424 34.556 84.5424 31.812C84.5424 29.096 83.1704 27.36 81.2804 27.36ZM81.2804 28.662C82.4004 28.662 83.1564 29.838 83.1564 31.812C83.1564 33.842 82.4004 34.99 81.2804 34.99C80.1604 34.99 79.4184 33.842 79.4184 31.812C79.4184 29.838 80.1604 28.662 81.2804 28.662ZM101.187 36.012V26.436H99.8153V36.012H101.187ZM95.9373 33.716V31.196H97.3653V35.634H98.7233V26.674H97.3653V30.02H95.9373V27.43H94.5933V29.474H92.3533V27.43H90.9953V33.716H95.9373ZM94.5933 30.594V32.568H92.3533V30.594H94.5933ZM101.537 37.664H94.2853V34.752H92.8293V38.84H101.537V37.664ZM113.548 34.276V33.114H106.254V31.378H113.17V30.244H106.254V28.62H113.45V27.458H104.784V34.276H113.548ZM114.836 36.348H103.37V37.524H114.836V36.348Z" fill="#3C3C3C"/>
<path d="M41.312 60.576H43.088L42.512 65.256H44.528V67.08H42.296L41.816 70.92H44V72.744H41.648L41 78H39.176L39.8 72.744H36.752L36.128 78H34.304L34.928 72.744H32.96V70.92H35.168L35.624 67.08H33.488V65.256H35.864L36.44 60.576H38.264L37.688 65.256H40.712L41.312 60.576ZM37.448 67.08L36.992 70.92H40.04L40.52 67.08H37.448ZM63.6239 66.816H49.0799V58.728H51.5279V60.864H61.1759V58.728H63.6239V66.816ZM61.1759 62.76H51.5279V64.848H61.1759V62.76ZM57.5759 70.464V72.264C59.6079 72.392 61.1439 72.776 62.1839 73.416C63.2399 74.056 63.7679 74.928 63.7679 76.032C63.7679 77.28 63.1279 78.224 61.8479 78.864C60.5679 79.52 58.7199 79.848 56.3039 79.848C53.9039 79.848 52.0639 79.52 50.7839 78.864C49.5039 78.224 48.8639 77.28 48.8639 76.032C48.8639 74.928 49.3919 74.056 50.4479 73.416C51.5039 72.76 53.0479 72.368 55.0799 72.24V70.464H46.5359V68.472H66.1439V70.464H57.5759ZM61.2719 76.032C61.2719 75.392 60.8399 74.912 59.9759 74.592C59.1279 74.256 57.9039 74.088 56.3039 74.088C54.7039 74.088 53.4799 74.256 52.6319 74.592C51.7839 74.912 51.3599 75.392 51.3599 76.032C51.3599 76.672 51.7839 77.16 52.6319 77.496C53.4799 77.816 54.7039 77.976 56.3039 77.976C57.9039 77.976 59.1279 77.816 59.9759 77.496C60.8399 77.16 61.2719 76.672 61.2719 76.032ZM86.6381 58.152V79.896H84.1421V68.256H79.9421C79.8781 69.312 79.6941 70.256 79.3901 71.088C79.0861 71.92 78.6941 72.632 78.2141 73.224C77.7341 73.816 77.1741 74.272 76.5341 74.592C75.8941 74.896 75.2061 75.048 74.4701 75.048C73.6701 75.048 72.9341 74.872 72.2621 74.52C71.5901 74.152 71.0141 73.64 70.5341 72.984C70.0541 72.328 69.6781 71.528 69.4061 70.584C69.1341 69.624 68.9981 68.56 68.9981 67.392C68.9981 66.224 69.1341 65.176 69.4061 64.248C69.6781 63.304 70.0541 62.504 70.5341 61.848C71.0141 61.176 71.5901 60.664 72.2621 60.312C72.9341 59.944 73.6701 59.76 74.4701 59.76C75.1901 59.76 75.8621 59.912 76.4861 60.216C77.1261 60.52 77.6861 60.952 78.1661 61.512C78.6461 62.072 79.0381 62.752 79.3421 63.552C79.6461 64.352 79.8381 65.248 79.9181 66.24H84.1421V58.152H86.6381ZM74.4701 72.84C75.4301 72.84 76.1901 72.368 76.7501 71.424C77.3261 70.48 77.6141 69.136 77.6141 67.392C77.6141 65.696 77.3261 64.376 76.7501 63.432C76.1901 62.472 75.4301 61.992 74.4701 61.992C73.5421 61.992 72.7901 62.472 72.2141 63.432C71.6381 64.376 71.3501 65.696 71.3501 67.392C71.3501 69.136 71.6381 70.48 72.2141 71.424C72.7901 72.368 73.5421 72.84 74.4701 72.84ZM110.732 63.528V65.568H108.308V71.352H105.884V58.176H108.308V63.528H110.732ZM104.3 69.816H98.3002V59.712H100.34V62.808H102.236V59.712H104.3V69.816ZM97.1722 69.816H91.1242V59.712H93.1642V62.808H95.1322V59.712H97.1722V69.816ZM102.236 64.752H100.34V67.824H102.236V64.752ZM95.1322 64.752H93.1642V67.824H95.1322V64.752ZM101.06 71.736C102.212 71.736 103.244 71.832 104.156 72.024C105.084 72.2 105.86 72.464 106.484 72.816C107.124 73.152 107.612 73.576 107.948 74.088C108.3 74.584 108.476 75.152 108.476 75.792C108.476 76.432 108.3 77.008 107.948 77.52C107.612 78.016 107.124 78.432 106.484 78.768C105.86 79.12 105.084 79.384 104.156 79.56C103.244 79.752 102.212 79.848 101.06 79.848C98.7562 79.848 96.9482 79.488 95.6362 78.768C94.3242 78.064 93.6682 77.072 93.6682 75.792C93.6682 74.512 94.3242 73.52 95.6362 72.816C96.9482 72.096 98.7562 71.736 101.06 71.736ZM101.06 77.928C102.66 77.928 103.876 77.744 104.708 77.376C105.54 77.008 105.956 76.48 105.956 75.792C105.956 75.072 105.54 74.536 104.708 74.184C103.876 73.832 102.66 73.656 101.06 73.656C99.4602 73.656 98.2442 73.832 97.4122 74.184C96.5802 74.536 96.1642 75.072 96.1642 75.792C96.1642 76.48 96.5802 77.008 97.4122 77.376C98.2442 77.744 99.4602 77.928 101.06 77.928ZM129.714 63.072V65.544H132.738V67.584H129.714V70.416H127.242V58.176H129.714V61.032H132.738V63.072H129.714ZM125.562 68.064C123.722 68.432 121.986 68.68 120.354 68.808C118.722 68.936 117.106 69 115.506 69H113.754V59.232H116.226V66.96C117.682 66.928 119.146 66.856 120.618 66.744C122.106 66.616 123.65 66.392 125.25 66.072L125.562 68.064ZM115.866 71.52H129.714V79.584H115.866V71.52ZM118.29 77.592H127.29V73.488H118.29V77.592ZM151.792 63.072V65.544H154.816V67.584H151.792V70.416H149.32V58.176H151.792V61.032H154.816V63.072H151.792ZM147.64 68.064C145.8 68.432 144.064 68.68 142.432 68.808C140.8 68.936 139.184 69 137.584 69H135.832V59.232H138.304V66.96C139.76 66.928 141.224 66.856 142.696 66.744C144.184 66.616 145.728 66.392 147.328 66.072L147.64 68.064ZM137.944 71.52H151.792V79.584H137.944V71.52ZM140.368 77.592H149.368V73.488H140.368V77.592Z" fill="#3C3C3C"/>
<circle cx="450" cy="60" r="12" transform="rotate(-90 450 60)" fill="#FF7775"/>
<path d="M448.963 66C449.229 66 449.453 65.9087 449.635 65.7261L454.607 60.8037C454.84 60.5796 454.948 60.3389 454.948 60.0483C454.948 59.7578 454.84 59.5088 454.616 59.293L449.635 54.3706C449.453 54.188 449.229 54.0967 448.963 54.0967C448.432 54.0967 448 54.52 448 55.0513C448 55.3169 448.108 55.5576 448.299 55.7568L452.665 60.0566L448.299 64.3481C448.108 64.5391 448 64.7798 448 65.0454C448 65.5767 448.432 66 448.963 66Z" fill="white"/>
<mask id="mask0_1892:4490" style="mask-type:alpha" maskUnits="userSpaceOnUse" x="0" y="0" width="490" height="121">
<rect width="490" height="120.21" fill="#EAB463"/>
</mask>
<g mask="url(#mask0_1892:4490)">
<g clip-path="url(#clip0_1892:4490)">
<path d="M357.732 82.3997C357.732 82.3997 393.834 67.0597 390.073 81.1669C386.313 95.2742 377.714 107.816 380.134 118.453C382.554 129.09 375.513 156.782 342.026 121.578" fill="#F8D174"/>
<path d="M357.732 82.3997C357.732 82.3997 393.834 67.0597 390.073 81.1669C386.313 95.2742 377.714 107.816 380.134 118.453C382.554 129.09 375.513 156.782 342.026 121.578" stroke="#DE8A32" stroke-width="2.22012" stroke-miterlimit="10"/>
<path d="M285.106 117.598C285.106 117.598 288.869 133.054 307.494 138.498C319.951 142.141 325.855 142.171 326.784 136.224C327.712 130.276 326.313 128.254 326.313 128.254" fill="#F8D174"/>
<path d="M285.106 117.598C285.106 117.598 288.869 133.054 307.494 138.498C319.951 142.141 325.855 142.171 326.784 136.224C327.712 130.276 326.313 128.254 326.313 128.254" stroke="#DE8A32" stroke-width="2.22012" stroke-miterlimit="10"/>
<path d="M294.025 41.9112C294.025 41.9112 302.97 28.4173 312.334 30.2565C321.698 32.0957 345.088 42.9294 350.78 52.3302C356.473 61.7311 357.346 73.9794 357.346 73.9794" fill="#F8D174"/>
<path d="M294.025 41.9112C294.025 41.9112 302.97 28.4173 312.334 30.2565C321.698 32.0957 345.088 42.9294 350.78 52.3302C356.473 61.7311 357.346 73.9794 357.346 73.9794" stroke="#DE8A32" stroke-width="2.22012" stroke-miterlimit="10"/>
<path d="M360.342 101.522C353.931 125.572 326.447 132.56 297.006 124.712C267.565 116.864 247.207 97.1223 253.618 73.0725C260.029 49.0228 289.148 35.9009 318.589 43.7491C348.03 51.5973 366.753 77.4726 360.342 101.522Z" fill="#F8D174" stroke="#DE8A32" stroke-width="2.22012" stroke-miterlimit="10"/>
<path d="M276.371 75.1951C279.251 75.9626 282.207 74.2507 282.975 71.3713C283.742 68.4919 282.03 65.5355 279.151 64.768C276.272 64.0004 273.315 65.7124 272.548 68.5917C271.78 71.4711 273.492 74.4275 276.371 75.1951Z" fill="#DE8A32"/>
<path d="M248.068 80.0795C248.068 80.0795 241.633 88.4943 251.08 91.2294C260.527 93.9645 265.076 84.6135 265.076 84.6135" fill="#F8D174"/>
<path d="M248.068 80.0795C248.068 80.0795 241.633 88.4943 251.08 91.2294C260.527 93.9645 265.076 84.6135 265.076 84.6135" stroke="#DE8A32" stroke-width="2.22012" stroke-linecap="round" stroke-linejoin="round"/>
<path d="M263.343 80.9222C263.343 80.9222 255.278 69.5753 248.74 71.7741C242.202 73.9729 248.541 82.232 255.942 81.5771" fill="#F8D174"/>
<path d="M263.343 80.9222C263.343 80.9222 255.278 69.5753 248.74 71.7741C242.202 73.9729 248.541 82.232 255.942 81.5771" stroke="#DE8A32" stroke-width="2.22012" stroke-linecap="round" stroke-linejoin="round"/>
<path d="M293.645 73.2324C293.645 73.2324 303.935 88.8452 287.628 95.804Z" fill="#F8D174"/>
<path d="M293.645 73.2324C293.645 73.2324 303.935 88.8452 287.628 95.804" stroke="#DE8A32" stroke-width="2.22012" stroke-linecap="round" stroke-linejoin="round"/>
<path d="M313.748 69.8785C316.292 70.1952 317.952 73.0618 317.892 75.4305C317.816 78.4519 315.468 80.9267 312.913 82.2297C312.55 82.4407 312.285 82.7871 312.177 83.193C312.069 83.5988 312.126 84.031 312.336 84.3948C314.205 87.1644 315.166 90.4466 315.088 93.7869C315.057 94.9351 315.091 96.6063 313.843 97.0026C313.198 97.205 312.504 97.2435 311.85 97.4043C311.043 97.5925 310.295 97.9776 309.673 98.5253C309.431 98.7732 309.276 99.0924 309.231 99.4355C309.186 99.7785 309.252 100.127 309.421 100.429C309.979 101.695 310.116 103.106 309.815 104.456C309.513 105.805 308.787 107.023 307.743 107.931C306.652 108.783 305.331 109.291 303.95 109.391C302.569 109.49 301.189 109.177 299.987 108.491C298.207 107.478 296.603 110.217 298.383 111.23C300.192 112.258 302.273 112.709 304.345 112.52C306.418 112.332 308.383 111.513 309.977 110.175C311.515 108.772 312.559 106.91 312.954 104.865C313.348 102.821 313.072 100.704 312.167 98.8289L311.922 100.734C312.47 100.434 313.08 100.262 313.705 100.231C314.533 100.124 315.331 99.8495 316.049 99.4234C317.866 98.226 318.178 95.9706 318.264 93.9702C318.408 89.9956 317.3 86.0762 315.096 82.7655L314.518 84.9307C318.189 83.0646 321.262 79.1999 321.084 74.9151C321.03 72.8953 320.263 70.9598 318.92 69.4503C317.577 67.9407 315.744 66.9542 313.744 66.665C313.324 66.6726 312.923 66.8447 312.629 67.1445C312.334 67.4442 312.168 67.8476 312.167 68.268C312.182 68.6847 312.356 69.08 312.653 69.372C312.951 69.6641 313.349 69.8307 313.766 69.8372L313.748 69.8785Z" fill="#DE8A32"/>
<path d="M335.121 77.9554C337.976 79.9845 337.202 84.5147 333.927 85.6125C333.601 85.7161 333.317 85.921 333.116 86.1973C332.915 86.4735 332.807 86.8068 332.808 87.1486C332.809 87.4905 332.919 87.823 333.123 88.0978C333.326 88.3726 333.612 88.5755 333.938 88.6768C335.172 89.1502 335.98 90.3314 336.56 91.4583C337.296 92.8091 337.762 94.2899 337.934 95.8186C338.144 98.8244 334.695 99.4883 332.387 99.9174C332.154 99.9836 331.939 100.102 331.758 100.263C331.577 100.424 331.436 100.625 331.344 100.849C331.252 101.073 331.212 101.315 331.227 101.557C331.242 101.799 331.312 102.034 331.431 102.245C331.992 103.174 332.279 104.243 332.261 105.328C332.243 106.413 331.919 107.471 331.328 108.381C330.736 109.291 329.901 110.017 328.917 110.474C327.932 110.932 326.839 111.103 325.762 110.968C325.356 110.873 324.929 110.937 324.568 111.146C324.207 111.355 323.94 111.694 323.82 112.093C323.713 112.5 323.772 112.932 323.982 113.296C324.193 113.66 324.539 113.925 324.945 114.035C326.607 114.289 328.307 114.084 329.861 113.443C331.416 112.801 332.766 111.748 333.765 110.395C334.749 108.977 335.31 107.308 335.384 105.584C335.457 103.859 335.04 102.149 334.182 100.652L333.226 102.979C335.068 102.728 336.838 102.097 338.424 101.126C339.306 100.55 340.02 99.7506 340.492 98.8091C340.965 97.8677 341.179 96.8178 341.114 95.7664C340.915 93.6102 340.263 91.5203 339.201 89.6331C338.268 87.7852 336.688 86.3447 334.762 85.5854L334.775 88.6436C336.137 88.2272 337.353 87.4322 338.281 86.3511C339.209 85.2701 339.811 83.9476 340.016 82.5378C340.221 81.128 340.021 79.6889 339.439 78.3883C338.858 77.0878 337.919 75.9792 336.731 75.192C336.368 74.9816 335.936 74.9228 335.529 75.0283C335.122 75.1338 334.773 75.395 334.558 75.7556C334.355 76.1221 334.302 76.5522 334.408 76.9571C334.514 77.362 334.772 77.7106 335.127 77.9309L335.121 77.9554Z" fill="#DE8A32"/>
<path d="M367.559 96.596C370.024 95.2167 372.551 93.9503 375.141 92.7967C375.505 92.5847 375.77 92.2373 375.878 91.8305C375.987 91.4236 375.93 90.9904 375.72 90.6254C375.501 90.2709 375.154 90.0136 374.752 89.9063C374.349 89.799 373.921 89.8498 373.554 90.0483C370.98 91.2103 368.453 92.4767 365.972 93.8475C365.608 94.0587 365.342 94.4061 365.233 94.8133C365.125 95.2205 365.182 95.6541 365.393 96.0188C365.605 96.3835 365.952 96.6494 366.359 96.7579C366.766 96.8665 367.2 96.8088 367.565 96.5976L367.559 96.596Z" fill="#DE8A32"/>
<path d="M365.587 107.422C365.701 107.425 365.814 107.437 365.926 107.459C365.49 107.343 365.926 107.459 366.005 107.481L366.678 107.594C367.14 107.685 367.597 107.793 368.056 107.922C368.514 108.051 368.933 108.156 369.35 108.34L369.667 108.457L369.882 108.514L369.692 108.463C369.943 108.53 370.186 108.68 370.419 108.789C370.79 108.996 371.226 109.053 371.638 108.949C371.939 108.867 372.209 108.698 372.415 108.463C372.62 108.228 372.752 107.937 372.793 107.628C372.834 107.318 372.783 107.003 372.646 106.723C372.509 106.442 372.293 106.208 372.023 106.05C369.986 105.089 367.799 104.481 365.558 104.254C365.143 104.257 364.745 104.422 364.45 104.714C364.153 105.012 363.985 105.415 363.984 105.835C363.983 106.256 364.148 106.66 364.443 106.959C364.759 107.242 365.162 107.407 365.586 107.428L365.587 107.422Z" fill="#DE8A32"/>
<path d="M358.255 119.616C360.117 121.751 362.278 123.606 364.67 125.123C365.033 125.333 365.464 125.392 365.87 125.286C366.275 125.18 366.623 124.919 366.837 124.558C367.041 124.193 367.096 123.763 366.991 123.358C366.886 122.953 366.629 122.605 366.274 122.384C365.711 122.031 365.153 121.659 364.652 121.295C364.509 121.191 364.366 121.088 364.237 120.981L364.048 120.826C363.793 120.626 363.54 120.414 363.296 120.198C362.293 119.329 361.353 118.389 360.485 117.386C360.187 117.09 359.784 116.924 359.364 116.922C358.944 116.921 358.54 117.085 358.24 117.379C357.951 117.68 357.789 118.08 357.787 118.498C357.784 118.915 357.942 119.317 358.227 119.622L358.255 119.616Z" fill="#DE8A32"/>
<path d="M322.726 34.8217L321.099 36.6148C320.803 36.9225 320.635 37.3311 320.63 37.7578C320.62 37.9648 320.668 38.1705 320.767 38.3527C320.829 38.5484 320.94 38.7251 321.09 38.8658C321.387 39.163 321.79 39.3305 322.211 39.3319C322.631 39.3332 323.035 39.1683 323.335 38.873L324.964 37.0737C325.259 36.766 325.427 36.3574 325.433 35.9308C325.438 35.7241 325.391 35.5195 325.296 35.3359C325.233 35.1419 325.121 34.9673 324.971 34.8289C324.674 34.5317 324.271 34.3641 323.85 34.3628C323.43 34.3615 323.026 34.5264 322.726 34.8217V34.8217Z" fill="#DE8A32"/>
<path d="M335.369 41.2389L334.669 43.8641C334.562 44.2707 334.62 44.703 334.831 45.0668C335.042 45.4306 335.388 45.6964 335.793 45.8062C336.202 45.9113 336.635 45.8522 337 45.6418C337.358 45.4268 337.621 45.0835 337.736 44.6816L338.435 42.0564C338.538 41.6493 338.482 41.2181 338.277 40.8515C338.065 40.4876 337.718 40.2225 337.311 40.1141C336.904 40.0056 336.471 40.0626 336.106 40.2726C335.748 40.4911 335.485 40.8359 335.369 41.2389Z" fill="#DE8A32"/>
</g>
</g>
<defs>
<clipPath id="clip0_1892:4490">
<rect width="146.113" height="108.788" fill="white" transform="translate(260.43 14.8831) rotate(14.9264)"/>
</clipPath>
</defs>
</svg>
