<svg width="160" height="129" viewBox="0 0 160 129" fill="none" xmlns="http://www.w3.org/2000/svg">
<g clip-path="url(#clip0_1692_4852)">
<path d="M55.609 29.555C55.609 29.555 62.3454 25.8584 61.9319 36.1481C61.5184 46.4378 63.3145 67.5398 61.6409 75.9407C59.9673 84.3417 64.5181 104.786 52.8526 99.2467C41.187 93.7074 55.609 29.555 55.609 29.555Z" fill="#F8D174" stroke="#DE8A32" stroke-width="2.41389" stroke-miterlimit="10" stroke-linecap="round"/>
<path d="M54.9961 32.6157C66.8597 36.0382 67.7787 35.9701 67.9027 46.7654C68.0266 57.5607 62.1566 64.4924 65.4387 75.562C68.7207 86.6316 64.335 103.773 54.4779 94.1663C44.6207 84.56 50.8904 68.8862 53.4569 53.5664C56.0234 38.2466 54.9961 32.6157 54.9961 32.6157Z" fill="#3D2700" stroke="#DE8A32" stroke-width="2.41389" stroke-miterlimit="10" stroke-linecap="round"/>
<path d="M122.481 70.4285C122.481 70.4285 153.98 60.4412 149.699 71.9912C145.418 83.5412 137.206 93.3855 138.391 102.493C139.577 111.6 131.459 134.308 106.172 102.079" fill="#F8D174"/>
<path d="M122.481 70.4285C122.481 70.4285 153.98 60.4412 149.699 71.9912C145.418 83.5412 137.206 93.3855 138.391 102.493C139.577 111.6 131.459 134.308 106.172 102.079" stroke="#DE8A32" stroke-width="2.41389" stroke-miterlimit="10"/>
<path d="M68.1605 101.128C68.1605 101.128 60.665 107.485 75.8612 113.537C86.0235 117.586 90.9705 118.081 92.2245 113.155C92.9791 110.242 92.9316 107.178 92.087 104.29" fill="#F8D174"/>
<path d="M68.1605 101.128C68.1605 101.128 60.665 107.485 75.8612 113.537C86.0235 117.586 90.9705 118.081 92.2245 113.155C92.9791 110.242 92.9316 107.178 92.087 104.29" stroke="#DE8A32" stroke-width="2.41389" stroke-miterlimit="10"/>
<path d="M83.9424 33.8956C83.9424 33.8956 85.8472 22.6092 93.5577 24.8931C101.268 27.1771 115.004 36.2622 119.044 44.6223C123.084 52.9823 122.826 63.3086 122.826 63.3086" fill="#F8D174"/>
<path d="M83.9424 33.8956C83.9424 33.8956 85.8472 22.6092 93.5577 24.8931C101.268 27.1771 115.004 36.2622 119.044 44.6223C123.084 52.9823 122.826 63.3086 122.826 63.3086" stroke="#DE8A32" stroke-width="2.41389" stroke-miterlimit="10"/>
<path d="M55.7792 99.8847C30.5968 94.868 12.4154 79.3509 16.5167 58.7632C19.9968 41.2945 37.608 29.5559 58.2854 29.4772L55.7792 99.8847Z" fill="#F8D174" stroke="#DE8A32" stroke-width="2.41389" stroke-miterlimit="10" stroke-linecap="round"/>
<path d="M81.7423 31.9937C85.4878 32.5796 89.1648 33.5408 92.718 34.8626C116.819 43.8018 130.441 67.0086 123.139 86.713C115.838 106.417 89.7588 109.159 65.6473 100.218L81.7423 31.9937Z" fill="#F8D174" stroke="#DE8A32" stroke-width="2.41389" stroke-miterlimit="10" stroke-linecap="round"/>
<path d="M12.2219 64.961C12.2219 64.961 7.26185 72.3906 15.3539 74.1828C23.4459 75.975 26.77 67.8592 26.77 67.8592" fill="#F8D174"/>
<path d="M12.2219 64.961C12.2219 64.961 7.26185 72.3906 15.3539 74.1828C23.4459 75.975 26.77 67.8592 26.77 67.8592" stroke="#DE8A32" stroke-width="2.41389" stroke-linecap="round" stroke-linejoin="round"/>
<path d="M25.1234 64.8445C25.1234 64.8445 17.732 55.7295 12.3512 57.9329C6.97042 60.1364 12.7446 66.7457 18.934 65.7951" fill="#F8D174"/>
<path d="M25.1234 64.8445C25.1234 64.8445 17.732 55.7295 12.3512 57.9329C6.97042 60.1364 12.7446 66.7457 18.934 65.7951" stroke="#DE8A32" stroke-width="2.41389" stroke-linecap="round" stroke-linejoin="round"/>
<path d="M50.1914 56.7373C50.1914 56.7373 59.6842 69.3226 46.3421 76.0595L50.1914 56.7373Z" fill="#F8D174"/>
<path d="M50.1914 56.7373C50.1914 56.7373 59.6842 69.3226 46.3421 76.0595" stroke="#DE8A32" stroke-width="2.41389" stroke-linecap="round" stroke-linejoin="round"/>
<path d="M86.5776 56.4196C88.6678 56.8796 89.8517 59.4246 89.6126 61.3914C89.3046 63.923 87.1393 65.8118 84.8936 66.7073C84.5722 66.8563 84.3227 67.1264 84.1993 67.4586C84.0759 67.7909 84.0886 68.1584 84.2347 68.4812C85.5815 70.9536 86.1251 73.7847 85.7902 76.5811C85.6701 77.5398 85.565 78.9436 84.4866 79.1819C83.9181 79.2979 83.3756 79.2826 82.7819 79.3609C82.0915 79.4577 81.4348 79.7202 80.8677 80.1259C80.6425 80.3158 80.4851 80.5737 80.4191 80.8609C80.353 81.148 80.3819 81.4487 80.5014 81.7179C80.8666 82.823 80.8689 84.0161 80.5081 85.1229C80.1473 86.2296 79.4422 87.192 78.496 87.8692C77.5129 88.4979 76.3654 88.82 75.1992 88.7947C74.0329 88.7695 72.9007 88.3978 71.9461 87.7271C70.5072 86.7363 68.982 88.9163 70.3779 89.904C71.8149 90.9081 73.5239 91.4497 75.2767 91.4565C77.0296 91.4634 78.743 90.9352 80.1884 89.9424C81.5889 88.884 82.6118 87.4026 83.1056 85.7175C83.5995 84.0324 83.5381 82.2332 82.9305 80.586L82.5695 82.1518C83.054 81.947 83.5777 81.8518 84.1032 81.8732C84.8081 81.8482 85.5005 81.6797 86.1382 81.3779C87.7597 80.5218 88.1982 78.6494 88.428 76.9756C88.8666 73.6512 88.2518 70.2733 86.6701 67.3178L86.0113 69.0917C89.2377 67.8184 92.121 64.8171 92.3119 61.2031C92.4281 59.5025 91.9396 57.8157 90.9327 56.4413C89.9257 55.0668 88.4654 54.0932 86.8099 53.6927C86.4572 53.6636 86.1073 53.7755 85.8369 54.0041C85.5664 54.2326 85.3975 54.5591 85.367 54.912C85.3447 55.2638 85.4587 55.6106 85.6853 55.8805C85.9119 56.1503 86.2337 56.3223 86.5839 56.3608L86.5776 56.4196Z" fill="#DE8A32"/>
<path d="M103.867 64.8964C104.364 65.3479 104.728 65.9262 104.922 66.5694C105.115 67.2126 105.13 67.8963 104.964 68.5473C104.799 69.1983 104.459 69.792 103.982 70.2646C103.505 70.7372 102.908 71.071 102.256 71.23C101.972 71.288 101.714 71.436 101.521 71.6521C101.327 71.8683 101.209 72.141 101.182 72.4299C101.156 72.7187 101.223 73.0084 101.375 73.2558C101.526 73.5033 101.753 73.6954 102.022 73.8036C103.013 74.3014 103.603 75.3634 103.995 76.3805C104.503 77.5715 104.776 78.8491 104.8 80.1437C104.735 82.6909 101.788 82.9718 99.8375 83.151C99.6369 83.1883 99.4473 83.2706 99.283 83.3918C99.1187 83.513 98.9841 83.67 98.8893 83.8509C98.7944 84.0317 98.7418 84.2317 98.7354 84.4358C98.7291 84.64 98.7691 84.8429 98.8525 85.0292C99.2439 85.8937 99.3825 86.8515 99.2521 87.7917C99.1218 88.732 98.7279 89.6161 98.116 90.3415C97.5316 90.9844 96.7903 91.4643 95.9649 91.7343C95.1394 92.0044 94.2581 92.0552 93.4073 91.8818C93.0741 91.77 92.7109 91.789 92.3911 91.9351C92.0713 92.0812 91.819 92.3435 91.6851 92.6688C91.5637 93.002 91.5788 93.3697 91.7272 93.6917C91.8756 94.0137 92.1452 94.2639 92.4772 94.3878C93.849 94.7351 95.2897 94.7006 96.6437 94.2882C97.9976 93.8759 99.2134 93.1012 100.16 92.0479C101.102 90.9348 101.709 89.5765 101.909 88.1316C102.109 86.6867 101.894 85.2148 101.289 83.8878L100.305 85.7608C101.866 85.7028 103.399 85.3203 104.805 84.6374C105.592 84.2256 106.256 83.612 106.729 82.8593C107.202 82.1066 107.467 81.2418 107.497 80.3534C107.495 78.5254 107.112 76.7181 106.372 75.047C105.732 73.4231 104.522 72.089 102.968 71.2955L102.734 73.8691C103.902 73.6109 104.976 73.033 105.835 72.1999C106.695 71.3667 107.306 70.3109 107.601 69.1505C107.868 67.9814 107.806 66.7615 107.423 65.6255C107.04 64.4895 106.35 63.4816 105.431 62.7133C105.142 62.5089 104.785 62.4264 104.435 62.4835C104.086 62.5406 103.774 62.7327 103.565 63.0184C103.364 63.3088 103.284 63.6655 103.341 64.0136C103.398 64.3618 103.587 64.6744 103.869 64.8859L103.867 64.8964Z" fill="#DE8A32"/>
<path d="M129.602 83.1304C131.78 82.1667 133.996 81.3016 136.25 80.5352C136.571 80.3851 136.819 80.115 136.942 79.7831C137.066 79.4513 137.054 79.0842 136.909 78.7613C136.752 78.4457 136.481 78.2019 136.151 78.0793C135.821 77.9568 135.456 77.9646 135.131 78.1014C132.881 78.865 130.666 79.7248 128.487 80.6809C128.167 80.8319 127.919 81.1026 127.797 81.4346C127.675 81.7666 127.688 82.1334 127.833 82.4558C127.985 82.7745 128.255 83.0215 128.586 83.1444C128.917 83.2674 129.282 83.2567 129.605 83.1146L129.602 83.1304Z" fill="#DE8A32"/>
<path d="M127.073 92.0603C127.169 92.0738 127.263 92.0927 127.357 92.1167C127 91.991 127.357 92.1167 127.425 92.1303L127.978 92.2841C128.36 92.393 128.737 92.5228 129.107 92.6674C129.476 92.8119 129.818 92.9565 130.163 93.1179L130.421 93.2457L130.589 93.3338L130.441 93.2552C130.643 93.3507 130.838 93.4607 131.024 93.5843C131.326 93.7782 131.689 93.8507 132.042 93.7871C132.302 93.7431 132.543 93.623 132.735 93.4419C132.926 93.2608 133.06 93.0269 133.119 92.7697C133.178 92.5126 133.159 92.2439 133.065 91.9974C132.971 91.751 132.806 91.538 132.591 91.3854C130.96 90.4141 129.174 89.7297 127.311 89.3618C126.962 89.3308 126.616 89.4382 126.346 89.6608C126.071 89.8919 125.897 90.2221 125.863 90.58C125.836 90.9281 125.943 91.2733 126.161 91.5456C126.402 91.8088 126.726 91.9797 127.08 92.0288L127.073 92.0603Z" fill="#DE8A32"/>
<path d="M119.953 101.718C121.353 103.666 123.029 105.399 124.928 106.864C125.217 107.061 125.573 107.138 125.918 107.078C126.264 107.019 126.573 106.828 126.78 106.545C126.98 106.254 127.061 105.898 127.004 105.55C126.947 105.201 126.758 104.889 126.476 104.677C126.041 104.34 125.626 103.962 125.208 103.622C125.102 103.525 124.985 103.425 124.886 103.323C125.117 103.56 124.781 103.22 124.74 103.18C124.543 102.988 124.347 102.796 124.158 102.594C123.386 101.777 122.674 100.905 122.027 99.986C121.799 99.7151 121.475 99.5442 121.123 99.5098C120.771 99.4754 120.419 99.5802 120.144 99.8019C119.876 100.032 119.708 100.356 119.674 100.707C119.639 101.058 119.741 101.409 119.959 101.687L119.953 101.718Z" fill="#DE8A32"/>
<path d="M74.6237 108.469L77.7024 111.113C77.848 111.218 78.0128 111.292 78.1873 111.333C78.3618 111.373 78.5425 111.378 78.7192 111.349C79.0623 111.284 79.368 111.091 79.5739 110.809C79.7724 110.509 79.8453 110.144 79.7768 109.791C79.7004 109.454 79.5124 109.153 79.2433 108.936L76.1919 106.292C76.0473 106.188 75.8834 106.114 75.7097 106.073C75.5361 106.033 75.3561 106.028 75.1804 106.058C74.8372 106.122 74.5315 106.315 74.3257 106.597C74.1271 106.897 74.0542 107.263 74.1228 107.616C74.1907 107.948 74.3669 108.248 74.6237 108.469Z" fill="#DE8A32"/>
<path d="M83.2346 109.492L84.1232 111.11C84.1867 111.271 84.2922 111.413 84.4287 111.52C84.5493 111.653 84.7029 111.751 84.8737 111.805C85.0402 111.879 85.2243 111.905 85.4046 111.878C85.5782 111.886 85.751 111.849 85.9061 111.771C86.0658 111.698 86.2096 111.594 86.3289 111.465C86.4482 111.336 86.5408 111.184 86.6012 111.019L86.6713 110.668C86.6906 110.437 86.6504 110.205 86.5544 109.995L85.6659 108.376C85.5989 108.215 85.4919 108.074 85.3551 107.965C85.2372 107.832 85.0851 107.734 84.9153 107.681C84.7485 107.608 84.5648 107.583 84.3844 107.608C84.2125 107.601 84.0417 107.639 83.8882 107.717C83.5673 107.866 83.3177 108.136 83.1931 108.468L83.123 108.82C83.1011 109.05 83.1415 109.283 83.2399 109.493L83.2346 109.492Z" fill="#DE8A32"/>
<path d="M96.922 27.6974L95.4079 29.0825C95.1344 29.3151 94.9613 29.6444 94.9248 30.0017C94.9024 30.1747 94.9257 30.3506 94.9922 30.5119C95.0288 30.6797 95.1088 30.835 95.2243 30.9621C95.3371 31.1004 95.4763 31.2148 95.6338 31.2987C95.7913 31.3826 95.9639 31.4342 96.1416 31.4505C96.4895 31.477 96.8345 31.37 97.1066 31.1514L98.6144 29.7705C98.8879 29.5379 99.061 29.2086 99.0975 28.8514C99.1229 28.6775 99.1018 28.5 99.0364 28.3369C98.9978 28.1698 98.918 28.015 98.8043 27.8867C98.6908 27.748 98.5505 27.6336 98.3918 27.5504C98.2332 27.4672 98.0593 27.4169 97.8807 27.4025C97.5349 27.3709 97.1905 27.4768 96.922 27.6974Z" fill="#DE8A32"/>
<path d="M107.006 34.0888L106.212 36.2398C106.093 36.5727 106.106 36.9389 106.249 37.2624C106.4 37.5826 106.669 37.8318 106.999 37.9578C107.332 38.0796 107.7 38.0645 108.022 37.916C108.342 37.7647 108.591 37.4955 108.717 37.1646L109.515 35.02C109.634 34.6861 109.619 34.3194 109.474 33.9963C109.325 33.6748 109.055 33.425 108.723 33.3009C108.391 33.1812 108.025 33.1943 107.701 33.3375C107.384 33.4918 107.136 33.76 107.006 34.0888Z" fill="#DE8A32"/>
<path d="M27.7617 51.1768L32.9846 56.8574" stroke="#DE8A32" stroke-width="2.41389" stroke-linecap="round" stroke-linejoin="round"/>
</g>
<path d="M64.9875 26.7537C63.613 24.1042 60.7617 20.0649 65.3481 16.8121C69.9345 13.5593 67.4379 11.2044 65.5699 9.47919" stroke="#DE8A32" stroke-width="3.21852" stroke-linecap="round"/>
<path d="M74.5607 27.8854C74.1891 24.9237 72.5267 20.5972 77.9559 19.1346C83.3852 17.672 82.1636 15.5361 81.0089 13.2707" stroke="#DE8A32" stroke-width="3.21852" stroke-linecap="round"/>
<defs>
<clipPath id="clip0_1692_4852">
<rect width="141.583" height="93.9214" fill="white" transform="translate(19.2422 8.82666) rotate(11.2667)"/>
</clipPath>
</defs>
</svg>
