<svg width="364" height="73" viewBox="0 0 364 73" fill="none" xmlns="http://www.w3.org/2000/svg">
<rect width="364" height="72.5121" rx="15" fill="#FF7775"/>
<path d="M135.824 28.6228H133.952V44.9308H135.824V28.6228ZM127.166 29.8288C124.772 29.8288 122.99 32.0608 122.99 35.5528C122.99 39.0808 124.772 41.2948 127.166 41.2948C129.596 41.2948 131.36 39.0808 131.36 35.5528C131.36 32.0608 129.596 29.8288 127.166 29.8288ZM127.166 31.5028C128.606 31.5028 129.578 33.0148 129.578 35.5528C129.578 38.1628 128.606 39.6388 127.166 39.6388C125.726 39.6388 124.772 38.1628 124.772 35.5528C124.772 33.0148 125.726 31.5028 127.166 31.5028ZM152.761 40.9528V28.6408H150.997V40.9528H152.761ZM146.011 38.0008V34.7608H147.847V40.4668H149.593V28.9468H147.847V33.2488H146.011V29.9188H144.283V32.5468H141.403V29.9188H139.657V38.0008H146.011ZM144.283 33.9868V36.5248H141.403V33.9868H144.283ZM153.211 43.0768H143.887V39.3328H142.015V44.5888H153.211V43.0768ZM168.653 38.7208V37.2268H159.275V34.9948H168.167V33.5368H159.275V31.4488H168.527V29.9548H157.385V38.7208H168.653ZM170.309 41.3848H155.567V42.8968H170.309V41.3848ZM184.899 37.7128L185.745 36.2548C183.297 35.5888 181.875 33.8068 181.875 31.9888V31.8988H185.295V30.4228H181.893V28.5688H180.021V30.4228H176.601V31.8988H180.021V31.9888C180.021 33.9508 178.599 35.8228 176.097 36.5428L176.979 38.0008C178.923 37.4068 180.255 36.2008 180.993 34.6168C181.695 36.0568 183.027 37.1548 184.899 37.7128ZM191.145 34.1488V32.6188H188.841V28.6408H186.987V38.2168H188.841V34.1488H191.145ZM178.455 38.9368V44.6968H188.841V38.9368H178.455ZM180.291 43.2208V40.4128H187.023V43.2208H180.291ZM206.21 28.6228H204.338V32.1328H200.504C199.766 30.6748 198.596 29.8288 197.084 29.8288C194.69 29.8288 192.98 32.0608 192.98 35.5528C192.98 39.0808 194.69 41.2948 197.084 41.2948C198.668 41.2948 199.892 40.3588 200.594 38.7568H204.338V44.9308H206.21V28.6228ZM197.084 39.6388C195.698 39.6388 194.726 38.1628 194.726 35.5528C194.726 33.0328 195.698 31.5028 197.084 31.5028C198.524 31.5028 199.442 33.0148 199.442 35.5528C199.442 38.1628 198.524 39.6388 197.084 39.6388ZM204.338 37.2268H201.062C201.152 36.7048 201.206 36.1828 201.206 35.5528C201.206 34.8508 201.134 34.2568 201.008 33.6628H204.338V37.2268ZM224.389 36.7228V35.1748H221.887V28.6408H220.015V44.9128H221.887V36.7228H224.389ZM214.903 31.1428V28.8748H213.049V31.1428H209.179V32.6548H218.701V31.1428H214.903ZM214.003 33.8068C211.645 33.8068 209.971 35.3728 209.971 37.6048C209.971 39.8368 211.645 41.4028 214.003 41.4028C216.307 41.4028 218.035 39.8368 218.035 37.6048C218.035 35.3728 216.307 33.8068 214.003 33.8068ZM214.003 39.8728C212.689 39.8728 211.735 38.9728 211.735 37.6048C211.735 36.2368 212.689 35.3368 214.003 35.3368C215.317 35.3368 216.271 36.2368 216.271 37.6048C216.271 38.9728 215.317 39.8728 214.003 39.8728ZM239.237 28.6408H237.383V44.8948H239.237V28.6408ZM234.449 30.3508H226.745V31.8628H232.541C232.235 35.6068 230.201 38.4508 225.935 40.5208L226.925 41.9968C232.505 39.2968 234.449 35.1928 234.449 30.3508Z" fill="white"/>
<mask id="mask0_2544_4554" style="mask-type:alpha" maskUnits="userSpaceOnUse" x="0" y="0" width="364" height="73">
<rect width="364" height="72.5121" rx="15" fill="#FF7775"/>
</mask>
<g mask="url(#mask0_2544_4554)">
<path d="M355.792 64.0851L348.973 65.7544L350.72 73.6266L357.539 71.9573L355.792 64.0851Z" fill="#FFEDBA"/>
<path d="M302.13 5.25418L293 5.75781L293.495 15.6503L302.625 15.1467L302.13 5.25418Z" fill="#FFD86B"/>
<path d="M327.803 -0.711914H320.859V2.99536H327.803V-0.711914Z" fill="#FFD86B"/>
<path d="M332.868 42.2447L325.312 47.207L330.191 55.4005L337.747 50.4382L332.868 42.2447Z" fill="#FFD86B"/>
<path d="M351.598 -4.65073L344.637 -8.50488L340.805 -0.870753L347.767 2.9834L351.598 -4.65073Z" stroke="#FFD86B" stroke-width="1.60368" stroke-miterlimit="10"/>
<path d="M281.985 37.8325L276 38.1011L276.269 44.7109L282.253 44.4424L281.985 37.8325Z" fill="#D1DEFF"/>
<path d="M297.627 56.8291C299.066 56.8291 300.231 55.6047 300.231 54.0942C300.231 52.5838 299.066 51.3594 297.627 51.3594C296.189 51.3594 295.023 52.5838 295.023 54.0942C295.023 55.6047 296.189 56.8291 297.627 56.8291Z" fill="#AEC5FF"/>
<path d="M95.1105 19.1094L87.9219 16.584L85.4256 24.4221L92.6141 26.9475L95.1105 19.1094Z" fill="#FFD86B"/>
<path d="M17.2567 21.7654L8.35156 21.4219L8.00109 31.4428L16.9063 31.7864L17.2567 21.7654Z" fill="#C2D3FF"/>
<path d="M62.8581 44.14L66.793 47.1179L63.784 51.5545L59.8491 48.5765L62.8581 44.14ZM62.4531 41.5874L61.4693 43.046L58.4603 47.4826L57.4766 48.9412L58.8654 49.9743L62.8003 52.9523L64.1891 53.9855L65.1728 52.5269L68.1818 48.0903L69.1656 46.6317L67.7768 45.5985L63.8419 42.6206L62.4531 41.5874Z" fill="#C2D3FF"/>
<path d="M53.215 11.3856L45.1758 8.28516L42.2037 16.7854L50.243 19.8859L53.215 11.3856Z" fill="#FFEFC2"/>
<path d="M71.9438 0.138672C73.382 0.138672 74.5478 -1.08577 74.5478 -2.59619C74.5478 -4.10661 73.382 -5.33105 71.9438 -5.33105C70.5057 -5.33105 69.3398 -4.10661 69.3398 -2.59619C69.3398 -1.08577 70.5057 0.138672 71.9438 0.138672Z" fill="#F0E7FD"/>
<path d="M28.832 48.8198H26.3438V52.9524H28.832V48.8198Z" fill="#F0E7FD"/>
</g>
</svg>
