<svg width="362" height="75" viewBox="0 0 362 75" fill="none" xmlns="http://www.w3.org/2000/svg">
<rect width="362" height="75" rx="15" fill="#FFD86B"/>
<path d="M130.212 36.332V38.042H134.82V42.29H125.55V43.784H135.288V45.242H123.696V40.922H132.966V39.5H123.66V38.042H128.358V36.332H121.932V34.838H126.18C126.42 34.046 126.576 33.35 126.648 32.75C126.72 32.15 126.768 31.622 126.792 31.166H123.318V29.672H128.592V30.446C128.592 30.95 128.568 31.568 128.52 32.3C128.484 33.02 128.328 33.866 128.052 34.838H132.588C132.792 34.046 132.924 33.35 132.984 32.75C133.056 32.15 133.104 31.622 133.128 31.166H129.69V29.672H134.928V30.41C134.928 30.89 134.904 31.496 134.856 32.228C134.82 32.948 134.682 33.818 134.442 34.838H136.692V36.332H130.212ZM139.139 37.232C139.931 37.1 140.675 36.872 141.371 36.548C142.067 36.224 142.673 35.828 143.189 35.36C143.717 34.892 144.131 34.376 144.431 33.812C144.731 33.236 144.881 32.642 144.881 32.03V31.994H139.715V30.5H151.991V31.994H146.825V32.03C146.825 32.642 146.975 33.23 147.275 33.794C147.587 34.358 148.001 34.874 148.517 35.342C149.045 35.798 149.663 36.188 150.371 36.512C151.079 36.824 151.835 37.046 152.639 37.178L151.883 38.654C150.503 38.39 149.285 37.91 148.229 37.214C147.185 36.506 146.393 35.624 145.853 34.568C145.313 35.624 144.521 36.512 143.477 37.232C142.445 37.952 141.257 38.444 139.913 38.708L139.139 37.232ZM153.233 41.876V43.388H138.509V41.876H144.935V38.078H146.807V41.876H153.233ZM164.679 32.174H155.085V30.68H158.955V28.988H160.809V30.68H164.679V32.174ZM170.061 34.712H167.757V38.618H165.903V29.132H167.757V33.182H170.061V34.712ZM163.815 35.63C163.815 36.062 163.719 36.458 163.527 36.818C163.335 37.166 163.065 37.466 162.717 37.718C162.381 37.97 161.967 38.168 161.475 38.312C160.995 38.444 160.461 38.51 159.873 38.51C159.285 38.51 158.751 38.444 158.271 38.312C157.791 38.168 157.377 37.97 157.029 37.718C156.681 37.466 156.411 37.166 156.219 36.818C156.027 36.458 155.931 36.062 155.931 35.63C155.931 35.198 156.027 34.808 156.219 34.46C156.411 34.112 156.681 33.812 157.029 33.56C157.377 33.308 157.791 33.116 158.271 32.984C158.751 32.84 159.285 32.768 159.873 32.768C160.461 32.768 160.995 32.84 161.475 32.984C161.967 33.116 162.381 33.308 162.717 33.56C163.065 33.812 163.335 34.112 163.527 34.46C163.719 34.808 163.815 35.198 163.815 35.63ZM157.713 35.63C157.713 36.098 157.911 36.464 158.307 36.728C158.703 36.992 159.225 37.124 159.873 37.124C160.521 37.124 161.043 36.992 161.439 36.728C161.847 36.464 162.051 36.098 162.051 35.63C162.051 35.174 161.847 34.814 161.439 34.55C161.043 34.286 160.521 34.154 159.873 34.154C159.225 34.154 158.703 34.286 158.307 34.55C157.911 34.814 157.713 35.174 157.713 35.63ZM165.921 39.284H167.757V45.188H157.371V39.284H159.207V40.778H165.921V39.284ZM165.921 42.218H159.207V43.712H165.921V42.218ZM190.375 41.876V43.406H175.651V41.876H182.059V38.6H177.307V30.212H179.143V32.948H186.847V30.212H188.683V38.6H183.913V41.876H190.375ZM179.143 37.106H186.847V34.442H179.143V37.106ZM205.674 29.096V45.404H203.82V36.728H200.976V35.198H203.82V29.096H205.674ZM194.604 40.04C195.852 40.04 196.998 40.01 198.042 39.95C199.098 39.878 200.178 39.746 201.282 39.554L201.444 41.066C200.832 41.174 200.238 41.264 199.662 41.336C199.086 41.396 198.498 41.444 197.898 41.48C197.31 41.516 196.698 41.54 196.062 41.552C195.438 41.564 194.772 41.57 194.064 41.57H192.786V34.964H198.222V32.066H192.75V30.572H200.04V36.458H194.604V40.04ZM223.816 37.088H221.35V45.368H219.496V29.114H221.35V35.54H223.816V37.088ZM217.102 30.842C217.102 32.018 216.97 33.158 216.706 34.262C216.442 35.366 216.016 36.41 215.428 37.394C214.84 38.378 214.084 39.296 213.16 40.148C212.236 40.988 211.108 41.744 209.776 42.416L208.75 40.994C212.71 38.954 214.876 36.074 215.248 32.354H209.56V30.842H217.102ZM238.737 29.132V45.386H236.883V29.132H238.737ZM233.949 30.842C233.949 32.054 233.817 33.218 233.553 34.334C233.301 35.438 232.875 36.482 232.275 37.466C231.687 38.45 230.913 39.368 229.953 40.22C228.993 41.06 227.817 41.816 226.425 42.488L225.435 41.012C227.571 39.98 229.167 38.75 230.223 37.322C231.279 35.882 231.885 34.226 232.041 32.354H226.245V30.842H233.949Z" fill="#3C3C3C"/>
<mask id="mask0_2216_4498" style="mask-type:alpha" maskUnits="userSpaceOnUse" x="0" y="0" width="362" height="75">
<rect width="362" height="75" rx="15" fill="#FFD86B"/>
</mask>
<g mask="url(#mask0_2216_4498)">
<path d="M56.6119 17.0043C55.4226 21.0215 52.0901 21.5102 48.8592 20.5549C45.6282 19.5996 43.0995 17.6908 44.2887 13.6736C45.478 9.65644 52.2967 8.12806 52.2967 8.12806C52.2967 8.12806 57.8012 12.9871 56.6119 17.0043Z" fill="#FFD86B" stroke="#FF7775" stroke-width="4.8041" stroke-miterlimit="10"/>
<path d="M-0.353058 28.4764C2.29854 31.7201 4.93781 31.006 7.54711 28.8746C10.1564 26.7431 11.7492 24.0042 9.09755 20.7606C6.44596 17.5169 -0.432773 18.7471 -0.432773 18.7471C-0.432773 18.7471 -3.00465 25.2327 -0.353058 28.4764Z" fill="#FFD86B" stroke="#FF7775" stroke-width="4.8041" stroke-miterlimit="10"/>
<path d="M-2.54383 37.0207L21.255 16.0494C22.5987 14.8641 24.231 14.0537 25.9876 13.7C27.7441 13.3462 29.5628 13.4615 31.2606 14.0343L61.3219 24.1584C63.0189 24.7309 64.5354 25.7399 65.7191 27.0839C66.9027 28.428 67.7119 30.0599 68.0652 31.8157L74.3294 62.9199C74.6842 64.6755 74.5703 66.4937 73.9991 68.1913C73.428 69.889 72.4197 71.4062 71.0759 72.5904L47.2771 93.5617" stroke="#FF7775" stroke-width="4.8041" stroke-miterlimit="10"/>
<path d="M35.8216 62.5175C43.4639 60.9784 48.4116 53.5353 46.8725 45.8929C45.3333 38.2506 37.8902 33.3029 30.2479 34.8421C22.6055 36.3812 17.6579 43.8243 19.197 51.4666C20.7361 59.109 28.1792 64.0566 35.8216 62.5175Z" fill="white" stroke="#FF7775" stroke-width="4.8041" stroke-miterlimit="10"/>
<path d="M56.396 60.3445C54.6246 63.8962 52.066 66.9969 48.9152 69.4104C45.7643 71.8239 42.1043 73.4865 38.2137 74.2717C36.967 74.5241 35.7038 74.687 34.4338 74.7592" stroke="#FF7775" stroke-width="4.8041" stroke-linecap="round" stroke-linejoin="round"/>
<path d="M28.3826 52.6736C30.0051 52.3468 31.0554 50.7667 30.7287 49.1443C30.4019 47.5219 28.8218 46.4715 27.1994 46.7983C25.577 47.125 24.5266 48.7051 24.8534 50.3276C25.1801 51.95 26.7602 53.0003 28.3826 52.6736Z" fill="#E4817A"/>
<path d="M38.7928 50.5774C40.4152 50.2507 41.4656 48.6705 41.1388 47.0481C40.8121 45.4257 39.232 44.3753 37.6095 44.7021C35.9871 45.0288 34.9368 46.6089 35.2635 48.2314C35.5903 49.8538 37.1704 50.9042 38.7928 50.5774Z" fill="#E4817A"/>
</g>
</svg>
