<svg width="30" height="26" viewBox="0 0 30 26" fill="none" xmlns="http://www.w3.org/2000/svg">
<path d="M1.71541 5.02801C2.9511 2.36236 5.15064 1.09362 7.81254 0.956216C10.0092 0.989882 11.6091 1.63107 12.9626 2.87225L12.9653 2.87475C13.3061 3.18476 13.7229 3.49611 14.2301 3.66869C14.7639 3.85035 15.3392 3.85829 15.9412 3.65048L15.9481 3.64807L15.955 3.64556C16.4799 3.45522 16.8623 3.10318 17.1026 2.88202C17.114 2.87148 17.1252 2.86124 17.136 2.85133L17.1366 2.85072C19.252 0.906084 22.3261 0.410442 24.8598 1.56451C27.5341 2.78806 29.1626 5.38205 29.0439 8.26884C28.9695 10.0475 28.3551 11.5963 27.1172 12.8402C24.1101 15.8548 21.0917 18.8632 18.0692 21.8757C17.061 22.8806 16.0523 23.886 15.0434 24.8922C15.0347 24.9009 15.0262 24.9093 15.0179 24.9174C13.9358 23.8385 12.8515 22.7652 11.7686 21.6932C8.77091 18.7258 5.78363 15.7688 2.8812 12.7305C1.80037 11.5963 1.20022 10.3728 1.01393 9.10983C0.827085 7.8431 1.04696 6.47009 1.71541 5.02801ZM1.71541 5.02801L0.8536 4.62851L1.71541 5.02801Z" stroke="#B8B8B8" stroke-width="1.9"/>
</svg>
