<svg width="30" height="26" viewBox="0 0 30 26" fill="none" xmlns="http://www.w3.org/2000/svg">
<path d="M7.79547 0.00588266C10.2168 0.0369763 12.0563 0.752129 13.6047 2.17207C14.197 2.71103 14.8206 3.03233 15.6312 2.75248C15.9741 2.62811 16.2339 2.38973 16.4937 2.15134C18.8839 -0.0459402 22.3653 -0.615989 25.2543 0.700306C28.268 2.07879 30.1282 5.02232 29.9931 8.30787C29.91 10.2979 29.2137 12.0806 27.79 13.5109C23.7786 17.5323 19.7464 21.5434 15.7143 25.5648C15.1635 26.1141 14.8933 26.1452 14.4049 25.6477C10.3208 21.5745 6.17429 17.553 2.1941 13.3865C-0.206489 10.8679 -0.611783 7.78965 0.85351 4.62846C2.25645 1.60202 4.80253 0.150986 7.79547 0.00588266Z" fill="#FF7775"/>
</svg>
