<svg width="362" height="69" viewBox="0 0 364 69" fill="none" xmlns="http://www.w3.org/2000/svg">
<rect width="362" height="69" rx="15" fill="#FF7775"/>
<path d="M135.824 26.114V42.422H133.952V26.114H135.824ZM127.166 27.32C127.778 27.32 128.336 27.458 128.84 27.734C129.356 27.998 129.8 28.382 130.172 28.886C130.544 29.378 130.832 29.978 131.036 30.686C131.252 31.382 131.36 32.168 131.36 33.044C131.36 33.92 131.252 34.718 131.036 35.438C130.832 36.146 130.544 36.746 130.172 37.238C129.8 37.73 129.356 38.114 128.84 38.39C128.336 38.654 127.778 38.786 127.166 38.786C126.566 38.786 126.008 38.654 125.492 38.39C124.988 38.114 124.55 37.73 124.178 37.238C123.806 36.746 123.512 36.146 123.296 35.438C123.092 34.718 122.99 33.92 122.99 33.044C122.99 32.168 123.092 31.382 123.296 30.686C123.512 29.978 123.806 29.378 124.178 28.886C124.55 28.382 124.988 27.998 125.492 27.734C126.008 27.458 126.566 27.32 127.166 27.32ZM127.166 28.994C126.446 28.994 125.864 29.354 125.42 30.074C124.988 30.782 124.772 31.772 124.772 33.044C124.772 34.352 124.988 35.36 125.42 36.068C125.864 36.776 126.446 37.13 127.166 37.13C127.886 37.13 128.468 36.776 128.912 36.068C129.356 35.36 129.578 34.352 129.578 33.044C129.578 31.772 129.356 30.782 128.912 30.074C128.468 29.354 127.886 28.994 127.166 28.994ZM152.761 38.444H150.997V26.132H152.761V38.444ZM146.011 35.492H139.657V27.41H141.403V30.038H144.283V27.41H146.011V30.74H147.847V26.438H149.593V37.958H147.847V32.252H146.011V35.492ZM144.283 31.478H141.403V34.016H144.283V31.478ZM153.211 40.568V42.08H142.015V36.824H143.887V40.568H153.211ZM168.653 36.212H157.385V27.446H168.527V28.94H159.275V31.028H168.167V32.486H159.275V34.718H168.653V36.212ZM170.309 38.876V40.388H155.567V38.876H170.309ZM190.875 38.876V40.406H176.151V38.876H182.559V35.6H177.807V27.212H179.643V29.948H187.347V27.212H189.183V35.6H184.413V38.876H190.875ZM179.643 34.106H187.347V31.442H179.643V34.106ZM206.174 26.096V42.404H204.32V33.728H201.476V32.198H204.32V26.096H206.174ZM195.104 37.04C196.352 37.04 197.498 37.01 198.542 36.95C199.598 36.878 200.678 36.746 201.782 36.554L201.944 38.066C201.332 38.174 200.738 38.264 200.162 38.336C199.586 38.396 198.998 38.444 198.398 38.48C197.81 38.516 197.198 38.54 196.562 38.552C195.938 38.564 195.272 38.57 194.564 38.57H193.286V31.964H198.722V29.066H193.25V27.572H200.54V33.458H195.104V37.04ZM224.317 34.088H221.851V42.368H219.997V26.114H221.851V32.54H224.317V34.088ZM217.603 27.842C217.603 29.018 217.471 30.158 217.207 31.262C216.943 32.366 216.517 33.41 215.929 34.394C215.341 35.378 214.585 36.296 213.661 37.148C212.737 37.988 211.609 38.744 210.277 39.416L209.251 37.994C213.211 35.954 215.377 33.074 215.749 29.354H210.061V27.842H217.603ZM239.237 26.132V42.386H237.383V26.132H239.237ZM234.449 27.842C234.449 29.054 234.317 30.218 234.053 31.334C233.801 32.438 233.375 33.482 232.775 34.466C232.187 35.45 231.413 36.368 230.453 37.22C229.493 38.06 228.317 38.816 226.925 39.488L225.935 38.012C228.071 36.98 229.667 35.75 230.723 34.322C231.779 32.882 232.385 31.226 232.541 29.354H226.745V27.842H234.449Z" fill="white"/>
<mask id="mask0_1692_4824" style="mask-type:alpha" maskUnits="userSpaceOnUse" x="0" y="0" width="362" height="69">
<rect width="364" height="69" rx="15" fill="#FF7775"/>
</mask>
<g mask="url(#mask0_1692_4824)">
<path d="M355.792 60.9814L348.973 62.5698L350.72 70.0606L357.539 68.4722L355.792 60.9814Z" fill="#FFEDBA"/>
<path d="M302.13 5.00001L293 5.47925L293.495 14.8925L302.625 14.4133L302.13 5.00001Z" fill="#FFD86B"/>
<path d="M327.803 -0.677246H320.859V2.85046H327.803V-0.677246Z" fill="#FFD86B"/>
<path d="M332.868 40.1987L325.312 44.9207L330.191 52.7172L337.747 47.9953L332.868 40.1987Z" fill="#FFD86B"/>
<path d="M351.598 -4.4253L344.637 -8.09277L340.805 -0.828404L347.767 2.83907L351.598 -4.4253Z" stroke="#FFD86B" stroke-width="1.60368" stroke-miterlimit="10"/>
<path d="M281.985 36.0001L276 36.2556L276.269 42.5453L282.253 42.2897L281.985 36.0001Z" fill="#D1DEFF"/>
<path d="M297.627 54.0766C299.066 54.0766 300.231 52.9115 300.231 51.4742C300.231 50.037 299.066 48.8718 297.627 48.8718C296.189 48.8718 295.023 50.037 295.023 51.4742C295.023 52.9115 296.189 54.0766 297.627 54.0766Z" fill="#AEC5FF"/>
<path d="M95.1104 18.1838L87.9219 15.7808L85.4256 23.2392L92.6141 25.6423L95.1104 18.1838Z" fill="#FFD86B"/>
<path d="M17.2567 20.7117L8.35156 20.3848L8.00109 29.9203L16.9063 30.2472L17.2567 20.7117Z" fill="#C2D3FF"/>
<path d="M62.8581 42.0024L66.793 44.8361L63.784 49.0578L59.8491 46.2241L62.8581 42.0024ZM62.4531 39.5735L61.4693 40.9614L58.4603 45.1831L57.4766 46.5711L58.8654 47.5542L62.8003 50.3879L64.1891 51.3711L65.1728 49.9831L68.1818 45.7614L69.1656 44.3735L67.7768 43.3904L63.8419 40.5566L62.4531 39.5735Z" fill="#C2D3FF"/>
<path d="M53.215 10.8343L45.1758 7.88403L42.2037 15.9727L50.243 18.923L53.215 10.8343Z" fill="#FFEFC2"/>
<path d="M71.9438 0.132307C73.382 0.132307 74.5478 -1.03283 74.5478 -2.4701C74.5478 -3.90737 73.382 -5.07251 71.9438 -5.07251C70.5057 -5.07251 69.3398 -3.90737 69.3398 -2.4701C69.3398 -1.03283 70.5057 0.132307 71.9438 0.132307Z" fill="#F0E7FD"/>
<path d="M28.832 46.4556H26.3438V50.3881H28.832V46.4556Z" fill="#F0E7FD"/>
</g>
</svg>
