<svg width="30" height="34" viewBox="0 0 30 34" fill="none" xmlns="http://www.w3.org/2000/svg">
<path d="M25.9149 4.55044C25.1868 5.92673 23.9369 5.86024 22.8299 5.27515C21.7228 4.69006 20.9416 3.8091 21.6696 2.43281C22.3977 1.05651 24.994 1 24.994 1C24.994 1 26.6429 3.17414 25.9149 4.55044Z" fill="#FFD86B" stroke="#D8D8D8" stroke-width="1.59629" stroke-miterlimit="10"/>
<path d="M4.32563 4.55044C5.05367 5.92673 6.06761 5.86024 7.17463 5.27515C8.28164 4.69006 9.06287 3.8091 8.33483 2.43281C7.6068 1.05652 5.01046 1 5.01046 1C5.01046 1 3.59759 3.17414 4.32563 4.55044Z" fill="#FFD86B" stroke="#D8D8D8" stroke-width="1.59629" stroke-miterlimit="10"/>
<path d="M29.0013 22.578V10.7864C29.0013 10.1208 28.8263 9.46694 28.4937 8.89041C28.1611 8.31389 27.6826 7.83503 27.1064 7.50194L16.8972 1.60782C16.3207 1.27458 15.6665 1.09912 15.0006 1.09912C14.3347 1.09912 13.6806 1.27458 13.1041 1.60782L2.8949 7.50194C2.31864 7.83503 1.84018 8.31389 1.50757 8.89041C1.17496 9.46694 0.999911 10.1208 1 10.7864V22.578C0.999574 23.2437 1.17448 23.8977 1.50713 24.4743C1.83977 25.0509 2.31842 25.5297 2.8949 25.8625L13.1041 31.7566C13.6806 32.0899 14.3347 32.2653 15.0006 32.2653C15.6665 32.2653 16.3207 32.0899 16.8972 31.7566L27.1064 25.8625C27.6828 25.5297 28.1615 25.0509 28.4941 24.4743C28.8268 23.8977 29.0017 23.2437 29.0013 22.578Z" fill="#F7F7F7" stroke="#D8D8D8" stroke-width="1.59629" stroke-miterlimit="10"/>
<path d="M14.9998 19.6065C17.897 19.6065 20.2456 17.2578 20.2456 14.3606C20.2456 11.4634 17.897 9.11475 14.9998 9.11475C12.1026 9.11475 9.75391 11.4634 9.75391 14.3606C9.75391 17.2578 12.1026 19.6065 14.9998 19.6065Z" fill="white" stroke="#D8D8D8" stroke-width="1.59629" stroke-miterlimit="10"/>
<path d="M22.6605 20.3242C21.7545 21.4882 20.5949 22.4302 19.2699 23.0783C17.9449 23.7264 16.4894 24.0636 15.0144 24.0641C14.5417 24.0646 14.0695 24.0313 13.6016 23.9644" stroke="#D8D8D8" stroke-width="1.59629" stroke-linecap="round" stroke-linejoin="round"/>
<path d="M13.0121 15.4744C13.6272 15.4744 14.1258 14.9758 14.1258 14.3607C14.1258 13.7457 13.6272 13.2471 13.0121 13.2471C12.397 13.2471 11.8984 13.7457 11.8984 14.3607C11.8984 14.9758 12.397 15.4744 13.0121 15.4744Z" fill="#D8D8D8"/>
<path d="M16.9613 15.4744C17.5764 15.4744 18.075 14.9758 18.075 14.3607C18.075 13.7457 17.5764 13.2471 16.9613 13.2471C16.3463 13.2471 15.8477 13.7457 15.8477 14.3607C15.8477 14.9758 16.3463 15.4744 16.9613 15.4744Z" fill="#D8D8D8"/>
</svg>
