<svg width="428" height="105" viewBox="0 0 428 105" fill="none" xmlns="http://www.w3.org/2000/svg">
<rect width="428" height="105" fill="#FFE39B"/>
<rect width="428" height="105" fill="#FFE397"/>
<circle cx="384" cy="53" r="12" transform="rotate(-90 384 53)" fill="#FF7775"/>
<path d="M382.963 59C383.229 59 383.453 58.9087 383.635 58.7261L388.607 53.8037C388.84 53.5796 388.948 53.3389 388.948 53.0483C388.948 52.7578 388.84 52.5088 388.616 52.293L383.635 47.3706C383.453 47.188 383.229 47.0967 382.963 47.0967C382.432 47.0967 382 47.52 382 48.0513C382 48.3169 382.108 48.5576 382.299 48.7568L386.665 53.0566L382.299 57.3481C382.108 57.5391 382 57.7798 382 58.0454C382 58.5767 382.432 59 382.963 59Z" fill="white"/>
<path d="M35.892 29.642L34.212 31.056L33.358 30.02L36.158 27.626H37.418V36.656H39.364V38H33.722V36.656H35.878V29.992C35.878 29.88 35.8827 29.7633 35.892 29.642ZM44.2318 29.642L42.5518 31.056L41.6978 30.02L44.4978 27.626H45.7578V36.656H47.7038V38H42.0618V36.656H44.2178V29.992C44.2178 29.88 44.2225 29.7633 44.2318 29.642ZM50.9477 36.446V38.182H49.2957V36.446H50.9477ZM60.0428 36.628V38H53.0428V37.104L56.5288 33.604C56.7714 33.3613 57.0001 33.1187 57.2148 32.876C57.4294 32.6333 57.6301 32.3673 57.8168 32.078C57.9941 31.7607 58.1248 31.4153 58.2088 31.042C58.2928 30.6687 58.2974 30.3233 58.2228 30.006C58.1574 29.6793 57.9941 29.4087 57.7328 29.194C57.4808 28.97 57.1074 28.858 56.6128 28.858C56.3328 28.858 56.0761 28.9093 55.8428 29.012C55.6094 29.1053 55.4088 29.236 55.2408 29.404C55.0728 29.572 54.9468 29.7727 54.8628 30.006C54.7788 30.2393 54.7461 30.496 54.7648 30.776L53.2248 30.496C53.3554 29.5627 53.7241 28.8393 54.3308 28.326C54.9468 27.8033 55.7354 27.542 56.6968 27.542C57.1354 27.542 57.5461 27.6073 57.9288 27.738C58.3114 27.8593 58.6428 28.046 58.9228 28.298C59.2121 28.5407 59.4408 28.844 59.6088 29.208C59.7768 29.572 59.8608 29.9873 59.8608 30.454C59.8608 30.846 59.8001 31.21 59.6788 31.546C59.5574 31.882 59.3941 32.204 59.1888 32.512C58.9928 32.8107 58.7688 33.0953 58.5168 33.366C58.2648 33.6367 58.0081 33.9027 57.7468 34.164L55.1148 36.824C55.3294 36.768 55.5488 36.7213 55.7728 36.684C56.0061 36.6467 56.2348 36.628 56.4588 36.628H60.0428ZM68.4946 27.654V28.746L63.9446 38H62.2646L66.4366 29.81C66.5579 29.5487 66.7213 29.3013 66.9266 29.068H61.3966V27.654H68.4946ZM77.5433 34.038C77.226 34.038 76.9413 33.9727 76.6893 33.842C76.4466 33.702 76.218 33.5527 76.0033 33.394C75.798 33.2353 75.5973 33.0907 75.4013 32.96C75.2053 32.82 74.9953 32.75 74.7713 32.75C74.314 32.75 73.9173 33.0627 73.5813 33.688L72.7133 33.058C73.0306 32.526 73.3666 32.148 73.7213 31.924C74.0853 31.6907 74.4446 31.574 74.7993 31.574C75.1166 31.574 75.3966 31.644 75.6393 31.784C75.882 31.9147 76.1106 32.0593 76.3253 32.218C76.54 32.3767 76.7453 32.526 76.9413 32.666C77.1373 32.7967 77.3473 32.862 77.5713 32.862C78.0193 32.862 78.4113 32.5493 78.7473 31.924L79.6293 32.568C79.3026 33.1 78.962 33.478 78.6073 33.702C78.2526 33.926 77.898 34.038 77.5433 34.038ZM87.2025 29.642L85.5225 31.056L84.6685 30.02L87.4685 27.626H88.7285V36.656H90.6745V38H85.0325V36.656H87.1885V29.992C87.1885 29.88 87.1932 29.7633 87.2025 29.642ZM99.3084 36.628V38H92.3084V37.104L95.7944 33.604C96.0371 33.3613 96.2657 33.1187 96.4804 32.876C96.6951 32.6333 96.8957 32.3673 97.0824 32.078C97.2597 31.7607 97.3904 31.4153 97.4744 31.042C97.5584 30.6687 97.5631 30.3233 97.4884 30.006C97.4231 29.6793 97.2597 29.4087 96.9984 29.194C96.7464 28.97 96.3731 28.858 95.8784 28.858C95.5984 28.858 95.3417 28.9093 95.1084 29.012C94.8751 29.1053 94.6744 29.236 94.5064 29.404C94.3384 29.572 94.2124 29.7727 94.1284 30.006C94.0444 30.2393 94.0117 30.496 94.0304 30.776L92.4904 30.496C92.6211 29.5627 92.9897 28.8393 93.5964 28.326C94.2124 27.8033 95.0011 27.542 95.9624 27.542C96.4011 27.542 96.8117 27.6073 97.1944 27.738C97.5771 27.8593 97.9084 28.046 98.1884 28.298C98.4777 28.5407 98.7064 28.844 98.8744 29.208C99.0424 29.572 99.1264 29.9873 99.1264 30.454C99.1264 30.846 99.0657 31.21 98.9444 31.546C98.8231 31.882 98.6597 32.204 98.4544 32.512C98.2584 32.8107 98.0344 33.0953 97.7824 33.366C97.5304 33.6367 97.2737 33.9027 97.0124 34.164L94.3804 36.824C94.5951 36.768 94.8144 36.7213 95.0384 36.684C95.2717 36.6467 95.5004 36.628 95.7244 36.628H99.3084ZM102.258 36.446V38.182H100.606V36.446H102.258ZM111.633 32.834C111.633 33.45 111.573 34.0707 111.451 34.696C111.33 35.3213 111.12 35.8907 110.821 36.404C110.532 36.908 110.145 37.3187 109.659 37.636C109.174 37.9533 108.572 38.112 107.853 38.112C107.135 38.112 106.533 37.9533 106.047 37.636C105.562 37.3187 105.175 36.908 104.885 36.404C104.596 35.8907 104.391 35.3213 104.269 34.696C104.148 34.0707 104.087 33.45 104.087 32.834C104.087 32.218 104.148 31.5973 104.269 30.972C104.391 30.3373 104.596 29.768 104.885 29.264C105.175 28.76 105.562 28.3493 106.047 28.032C106.533 27.7053 107.135 27.542 107.853 27.542C108.581 27.542 109.188 27.7053 109.673 28.032C110.159 28.3587 110.546 28.7787 110.835 29.292C111.125 29.8053 111.33 30.3747 111.451 31C111.573 31.6253 111.633 32.2367 111.633 32.834ZM110.037 32.834C110.037 32.47 110.014 32.0593 109.967 31.602C109.921 31.1447 109.818 30.7107 109.659 30.3C109.51 29.8893 109.291 29.544 109.001 29.264C108.721 28.984 108.339 28.844 107.853 28.844C107.368 28.844 106.981 28.984 106.691 29.264C106.411 29.544 106.192 29.8893 106.033 30.3C105.884 30.7107 105.786 31.1447 105.739 31.602C105.693 32.0593 105.669 32.47 105.669 32.834C105.669 33.198 105.693 33.6087 105.739 34.066C105.786 34.5233 105.884 34.9573 106.033 35.368C106.192 35.7787 106.416 36.124 106.705 36.404C106.995 36.684 107.377 36.824 107.853 36.824C108.339 36.824 108.721 36.684 109.001 36.404C109.291 36.124 109.51 35.7787 109.659 35.368C109.818 34.9573 109.921 34.5233 109.967 34.066C110.014 33.6087 110.037 33.198 110.037 32.834ZM119.693 36.628V38H112.693V37.104L116.179 33.604C116.422 33.3613 116.65 33.1187 116.865 32.876C117.08 32.6333 117.28 32.3673 117.467 32.078C117.644 31.7607 117.775 31.4153 117.859 31.042C117.943 30.6687 117.948 30.3233 117.873 30.006C117.808 29.6793 117.644 29.4087 117.383 29.194C117.131 28.97 116.758 28.858 116.263 28.858C115.983 28.858 115.726 28.9093 115.493 29.012C115.26 29.1053 115.059 29.236 114.891 29.404C114.723 29.572 114.597 29.7727 114.513 30.006C114.429 30.2393 114.396 30.496 114.415 30.776L112.875 30.496C113.006 29.5627 113.374 28.8393 113.981 28.326C114.597 27.8033 115.386 27.542 116.347 27.542C116.786 27.542 117.196 27.6073 117.579 27.738C117.962 27.8593 118.293 28.046 118.573 28.298C118.862 28.5407 119.091 28.844 119.259 29.208C119.427 29.572 119.511 29.9873 119.511 30.454C119.511 30.846 119.45 31.21 119.329 31.546C119.208 31.882 119.044 32.204 118.839 32.512C118.643 32.8107 118.419 33.0953 118.167 33.366C117.915 33.6367 117.658 33.9027 117.397 34.164L114.765 36.824C114.98 36.768 115.199 36.7213 115.423 36.684C115.656 36.6467 115.885 36.628 116.109 36.628H119.693Z" fill="#3C3C3C"/>
<path d="M40.712 65.256L41.312 60.576H43.088L42.512 65.256H44.528V67.08H42.296L41.816 70.92H44V72.744H41.648L41 78H39.176L39.8 72.744H36.752L36.128 78H34.304L34.928 72.744H32.96V70.92H35.168L35.624 67.08H33.488V65.256H35.864L36.44 60.576H38.264L37.688 65.256H40.712ZM40.52 67.08H37.448L36.992 70.92H40.04L40.52 67.08ZM66.7199 66.6V68.664H63.3839V79.872H60.8879V58.128H63.3839V66.6H66.7199ZM49.8719 68.16V72.696C50.7679 72.696 51.6079 72.688 52.3919 72.672C53.1919 72.64 53.9679 72.6 54.7199 72.552C55.4719 72.504 56.2079 72.432 56.9279 72.336C57.6639 72.24 58.4159 72.12 59.1839 71.976L59.4479 73.992C58.6159 74.136 57.7999 74.256 56.9999 74.352C56.1999 74.448 55.3919 74.528 54.5759 74.592C53.7599 74.64 52.9119 74.68 52.0319 74.712C51.1519 74.728 50.2079 74.736 49.1999 74.736H47.4239V66.168H54.8399V62.112H47.3759V60.096H57.2879V68.16H49.8719ZM79.6061 68.448V70.344H69.5741V59.976H79.6061V61.8H84.1181V58.176H86.5901V73.992H84.1181V68.448H79.6061ZM77.2061 68.376V61.944H71.9981V68.376H77.2061ZM84.1181 63.816H79.6061V66.456H84.1181V63.816ZM74.9741 77.424H87.0941V79.44H72.4781V72.552H74.9741V77.424ZM110.66 63.072H107.636V65.544H110.66V67.584H107.636V70.416H105.164V58.176H107.636V61.032H110.66V63.072ZM103.172 66.072L103.484 68.064C101.644 68.432 99.9082 68.68 98.2762 68.808C96.6442 68.936 95.0282 69 93.4282 69H91.6762V59.232H94.1482V66.96C95.6042 66.928 97.0682 66.856 98.5402 66.744C100.028 66.616 101.572 66.392 103.172 66.072ZM93.7882 79.584V71.52H107.636V79.584H93.7882ZM96.2122 73.488V77.592H105.212V73.488H96.2122ZM132.738 63.072H129.714V65.544H132.738V67.584H129.714V70.416H127.242V58.176H129.714V61.032H132.738V63.072ZM125.25 66.072L125.562 68.064C123.722 68.432 121.986 68.68 120.354 68.808C118.722 68.936 117.106 69 115.506 69H113.754V59.232H116.226V66.96C117.682 66.928 119.146 66.856 120.618 66.744C122.106 66.616 123.65 66.392 125.25 66.072ZM115.866 79.584V71.52H129.714V79.584H115.866ZM118.29 73.488V77.592H127.29V73.488H118.29Z" fill="#3C3C3C"/>
<g clip-path="url(#clip0_2474_5043)">
<mask id="mask0_2474_5043" style="mask-type:alpha" maskUnits="userSpaceOnUse" x="-2" y="-2" width="428" height="105">
<rect x="-2" y="-2" width="428" height="105" fill="#FFE39B"/>
</mask>
<g mask="url(#mask0_2474_5043)">
<path d="M308.272 39.8455C308.272 39.8455 289.658 28.9821 268.31 33.4649C246.962 37.9477 234.431 40.7794 228.862 55.427C223.293 70.0747 275.354 60.1265 275.354 60.1265L316.584 57.3733L308.272 39.8455Z" fill="#F9B72D" stroke="#8E4700" stroke-width="2.08839" stroke-miterlimit="10"/>
<path d="M252.984 36.9798C252.984 36.9798 274.597 33.1993 284.078 36.2326C293.559 39.266 296.905 40.0094 296.905 40.0094" fill="#F9B72D"/>
<path d="M252.984 36.9798C252.984 36.9798 274.597 33.1993 284.078 36.2326C293.559 39.266 296.905 40.0094 296.905 40.0094" stroke="#8E4700" stroke-width="2.08839" stroke-miterlimit="10"/>
<path d="M289.631 42.6737C289.631 42.6737 284.275 37.0701 265.73 37.9779C247.185 38.8857 248.768 42.6737 248.768 42.6737" fill="#F9B72D"/>
<path d="M289.631 42.6737C289.631 42.6737 284.275 37.0701 265.73 37.9779C247.185 38.8857 248.768 42.6737 248.768 42.6737" stroke="#8E4700" stroke-width="2.08839" stroke-miterlimit="10"/>
<path d="M284.739 44.2574C284.739 44.2574 281.128 40.6599 271.113 41.0783Z" fill="#F9B72D"/>
<path d="M284.739 44.2574C284.739 44.2574 281.128 40.6599 271.113 41.0783" stroke="#8E4700" stroke-width="2.08839" stroke-miterlimit="10"/>
<path d="M330.027 43.9699C330.027 43.9699 324.249 31.9634 303.816 37.8508C283.382 43.7383 281.103 48.4041 268.322 47.5636C255.542 46.7231 294.181 53.7275 294.181 53.7275C294.181 53.7275 323.303 53.5594 330.027 43.9699Z" fill="#F9B72D" stroke="#8E4700" stroke-width="2.08839" stroke-miterlimit="10"/>
<path d="M292.766 52.255C277.09 51.4332 276.426 49.7147 272.249 44.8583C268.072 40.002 259.719 40.002 259.719 40.002" fill="#F9B72D"/>
<path d="M292.766 52.255C277.09 51.4332 276.426 49.7147 272.249 44.8583C268.072 40.002 259.719 40.002 259.719 40.002" stroke="#8E4700" stroke-width="2.08839" stroke-miterlimit="10"/>
<path d="M337.537 48.2803C337.537 48.2803 331.713 40.2261 316.593 44.9705C301.473 49.7148 300.35 53.6298 294.178 53.7269C288.005 53.824 309.831 54.5712 309.831 54.5712L337.537 48.2803Z" fill="#F9B72D" stroke="#8E4700" stroke-width="2.08839" stroke-miterlimit="10"/>
<path d="M342.068 56.2532C342.068 56.2532 338.081 40.6754 324.191 46.1295C310.301 51.5836 312.097 54.7589 303.539 55.5995C294.982 56.44 286.633 60.1271 286.633 60.1271L342.068 56.2532Z" fill="#F9B72D" stroke="#8E4700" stroke-width="2.08839" stroke-miterlimit="10"/>
<path d="M340.935 52.7038C340.935 52.7038 329.797 47.4738 321.908 51.2095C314.018 54.9452 303.809 57.9338 303.809 57.9338" fill="#F9B72D"/>
<path d="M340.935 52.7038C340.935 52.7038 329.797 47.4738 321.908 51.2095C314.018 54.9452 303.809 57.9338 303.809 57.9338" stroke="#8E4700" stroke-width="2.08839" stroke-miterlimit="10"/>
<path d="M342.076 56.2527C342.076 56.2527 333.977 51.9566 327.016 54.5716C322.391 56.2749 317.654 57.7714 312.824 59.0544" fill="#F9B72D"/>
<path d="M342.076 56.2527C342.076 56.2527 333.977 51.9566 327.016 54.5716C322.391 56.2749 317.654 57.7714 312.824 59.0544" stroke="#8E4700" stroke-width="2.08839" stroke-miterlimit="10"/>
<path d="M228.799 55.9125C228.831 55.5959 228.979 55.2941 229.226 55.0459C242.485 41.758 263.986 35.9565 274.562 42.6172C285.236 49.3415 286.628 52.7036 299.623 52.7036C311.912 52.7036 317.56 54.1979 319.903 56.8128C320.146 57.0852 320.275 57.4118 320.275 57.7468V59.1813C320.273 59.6047 320.064 60.0104 319.691 60.3094C319.319 60.6085 318.814 60.7764 318.288 60.7764H230.441C230.167 60.7767 229.895 60.731 229.643 60.6421C229.391 60.5532 229.165 60.4231 228.979 60.2601C228.793 60.097 228.651 59.9046 228.563 59.6951C228.474 59.4856 228.441 59.2635 228.464 59.043L228.799 55.9125Z" fill="#F9B72D" stroke="#8E4700" stroke-width="2.08839" stroke-miterlimit="10"/>
<path d="M244.285 44.5527C244.285 44.5527 258.171 40.7498 265.67 45.6062C273.17 50.4626 271.782 54.5719 283.849 54.9454C295.915 55.319 301.948 56.8133 301.948 57.934" fill="#F9B72D"/>
<path d="M244.285 44.5527C244.285 44.5527 258.171 40.7498 265.67 45.6062C273.17 50.4626 271.782 54.5719 283.849 54.9454C295.915 55.319 301.948 56.8133 301.948 57.934" stroke="#8E4700" stroke-width="2.08839" stroke-miterlimit="10"/>
<path d="M237.758 48.1724C237.758 48.1724 248.102 45.2325 255.528 46.7267C262.953 48.221 263.881 49.3417 266.666 53.0774C269.45 56.8131 275.483 59.0545 281.517 59.0545" fill="#F9B72D"/>
<path d="M237.758 48.1724C237.758 48.1724 248.102 45.2325 255.528 46.7267C262.953 48.221 263.881 49.3417 266.666 53.0774C269.45 56.8131 275.483 59.0545 281.517 59.0545" stroke="#8E4700" stroke-width="2.08839" stroke-miterlimit="10"/>
<path d="M232.387 52.1518C232.387 52.1518 245.794 48.0612 252.987 51.5055C260.181 54.9498 255.053 61.2183 264.126 61.0726" fill="#F9B72D"/>
<path d="M232.387 52.1518C232.387 52.1518 245.794 48.0612 252.987 51.5055C260.181 54.9498 255.053 61.2183 264.126 61.0726" stroke="#8E4700" stroke-width="2.08839" stroke-miterlimit="10"/>
<path d="M325.644 39.3643C325.644 39.3643 318.65 35.9574 310.065 39.8537C301.479 43.75 301.201 47.2541 286.953 50.5453" fill="#F9B72D"/>
<path d="M325.644 39.3643C325.644 39.3643 318.65 35.9574 310.065 39.8537C301.479 43.75 301.201 47.2541 286.953 50.5453" stroke="#8E4700" stroke-width="2.08839" stroke-miterlimit="10"/>
<path d="M320.277 86.6987C320.277 99.5869 305.213 104.159 286.631 104.159C268.049 104.159 252.984 99.5869 252.984 86.6987H320.277Z" fill="black" stroke="#303030" stroke-width="2.08839" stroke-miterlimit="10"/>
<path d="M342.063 56.2525C342.495 56.2511 342.922 56.3214 343.318 56.4589C343.714 56.5964 344.071 56.7982 344.366 57.0517C344.66 57.3052 344.887 57.6049 345.032 57.9321C345.176 58.2593 345.235 58.6069 345.205 58.9534C343.205 80.1833 317.741 96.9715 286.628 96.9715C255.516 96.9715 230.052 80.1833 228.047 58.9534C228.017 58.6069 228.076 58.2593 228.22 57.9321C228.365 57.6049 228.591 57.3052 228.886 57.0517C229.181 56.7982 229.538 56.5964 229.934 56.4589C230.33 56.3214 230.757 56.2511 231.189 56.2525H342.063Z" fill="black" stroke="#303030" stroke-width="2.08839" stroke-miterlimit="10"/>
<path d="M309.061 45.2046C310.058 44.776 310.485 43.8546 310.016 43.1465C309.546 42.4384 308.357 42.2118 307.36 42.6404C306.363 43.069 305.936 43.9905 306.405 44.6986C306.875 45.4067 308.064 45.6332 309.061 45.2046Z" stroke="#86A71B" stroke-width="1.81957" stroke-miterlimit="10"/>
<path d="M251.594 48.4074C252.875 48.4074 253.914 47.9057 253.914 47.2867C253.914 46.6678 252.875 46.166 251.594 46.166C250.312 46.166 249.273 46.6678 249.273 47.2867C249.273 47.9057 250.312 48.4074 251.594 48.4074Z" stroke="#86A71B" stroke-width="1.82386" stroke-miterlimit="10"/>
<path d="M325.849 49.902C326.874 49.902 327.705 49.4839 327.705 48.9681C327.705 48.4523 326.874 48.0342 325.849 48.0342C324.823 48.0342 323.992 48.4523 323.992 48.9681C323.992 49.4839 324.823 49.902 325.849 49.902Z" stroke="#86A71B" stroke-width="1.82386" stroke-miterlimit="10"/>
<path d="M304.716 39.69C306.843 37.7948 306.923 35.0621 304.893 33.5862C302.864 32.1103 299.495 32.4502 297.367 34.3454C295.24 36.2405 295.161 38.9733 297.19 40.4492C299.219 41.925 302.588 41.5851 304.716 39.69Z" fill="white" stroke="#FF895A" stroke-width="1.39226" stroke-miterlimit="10"/>
<path d="M303.805 36.0571C303.805 36.0571 302.223 34.1444 300.241 35.1008C298.259 36.0571 297.865 38.6086 299.847 38.9261C301.828 39.2437 302.631 37.6523 302.413 37.0135C302.195 36.3747 301.062 35.5192 300.455 36.9014C299.847 38.2836 300.636 37.9698 300.636 37.9698" fill="white"/>
<path d="M303.805 36.0571C303.805 36.0571 302.223 34.1444 300.241 35.1008C298.259 36.0571 297.865 38.6086 299.847 38.9261C301.828 39.2437 302.631 37.6523 302.413 37.0135C302.195 36.3747 301.062 35.5192 300.455 36.9014C299.847 38.2836 300.636 37.9698 300.636 37.9698" stroke="#FF9779" stroke-width="0.394473" stroke-miterlimit="10"/>
<path d="M298.318 43.8115C300.353 41.8195 299.675 38.6644 296.805 36.7643C293.934 34.8643 289.958 34.9388 287.923 36.9308C285.888 38.9228 286.565 42.0779 289.436 43.978C292.307 45.878 296.283 45.8035 298.318 43.8115Z" fill="white" stroke="#FF895A" stroke-width="1.39226" stroke-miterlimit="10"/>
<path d="M294.674 42.935C294.674 42.935 297.371 41.3398 295.872 39.5243C294.373 37.7087 290.642 37.4771 290.303 39.3599C289.964 41.2427 292.308 41.8927 293.227 41.6761C294.145 41.4594 295.333 40.32 293.282 39.8082C291.231 39.2964 291.737 40.0398 291.737 40.0398" fill="white"/>
<path d="M294.674 42.935C294.674 42.935 297.371 41.3398 295.872 39.5243C294.373 37.7087 290.642 37.4771 290.303 39.3599C289.964 41.2427 292.308 41.8927 293.227 41.6761C294.145 41.4594 295.333 40.32 293.282 39.8082C291.231 39.2964 291.737 40.0398 291.737 40.0398" stroke="#FF9779" stroke-width="0.464086" stroke-miterlimit="10"/>
<path d="M278.414 48.8055C279.298 47.9217 278.556 46.259 276.755 45.0917C274.955 43.9243 272.778 43.6944 271.894 44.5781C271.01 45.4618 271.753 47.1246 273.553 48.2919C275.354 49.4593 277.53 49.6892 278.414 48.8055Z" stroke="#86A71B" stroke-width="1.82386" stroke-miterlimit="10"/>
<path d="M272.643 39.543C275.304 36.1886 272.642 30.9923 266.697 27.9366C260.752 24.8808 253.776 25.1229 251.115 28.4773C248.454 31.8316 251.116 37.0279 257.061 40.0836C263.006 43.1393 269.983 42.8973 272.643 39.543Z" fill="white" stroke="#A5A5A5" stroke-width="2.08839" stroke-miterlimit="10"/>
<path d="M274.277 37.7626C276.47 34.9978 273.429 30.2793 267.484 27.2236C261.539 24.1679 254.942 23.9321 252.749 26.6969C250.555 29.4618 253.597 34.1803 259.542 37.236C265.487 40.2917 272.084 40.5275 274.277 37.7626Z" fill="white" stroke="#A5A5A5" stroke-width="2.08839" stroke-miterlimit="10"/>
<path d="M271.787 35.1554C272.773 33.9121 271.405 31.7899 268.73 30.4153C266.056 29.0406 263.088 28.9342 262.102 30.1775C261.116 31.4208 262.484 33.5431 265.159 34.9177C267.833 36.2923 270.801 36.3988 271.787 35.1554Z" fill="#F9E100" stroke="#A5A5A5" stroke-width="2.08839" stroke-miterlimit="10"/>
<path d="M230.711 65.5923L234.275 67.9719C234.968 68.3345 235.757 68.561 236.578 68.633C237.4 68.705 238.231 68.6206 239.004 68.3866L240.257 68.013C240.995 67.7886 241.786 67.7006 242.572 67.7555C243.357 67.8105 244.117 68.007 244.796 68.3305L248.142 69.9257C248.853 70.264 249.652 70.4629 250.476 70.5064C251.3 70.5499 252.125 70.4367 252.885 70.176L256.25 69.0216C256.974 68.7746 257.758 68.6608 258.544 68.6885C259.33 68.7163 260.098 68.885 260.793 69.1823L265.972 71.4237C266.759 71.7649 267.64 71.9388 268.534 71.929C269.427 71.9192 270.303 71.726 271.077 71.3677L273.37 70.3179C274.235 69.9207 275.223 69.7295 276.217 69.7666C277.212 69.8036 278.174 70.0674 278.99 70.5271L281.199 71.7674C282 72.2199 282.943 72.4831 283.921 72.5273C284.898 72.5715 285.871 72.395 286.731 72.0177L290.081 70.5495C290.902 70.1897 291.827 70.0121 292.76 70.0351C293.694 70.0581 294.604 70.2808 295.395 70.6803L297.813 71.8981C298.633 72.3128 299.579 72.5372 300.547 72.5464C301.515 72.5556 302.467 72.3494 303.299 71.9504L306.547 70.3889C307.218 70.068 307.969 69.8714 308.746 69.8132C309.523 69.7551 310.307 69.8369 311.04 70.0527L315.954 71.4947C316.66 71.7018 317.412 71.7849 318.16 71.7385C318.909 71.6921 319.636 71.5173 320.293 71.2257L324.684 69.2831C325.527 68.9092 326.481 68.7288 327.443 68.7618C328.404 68.7947 329.336 69.0397 330.137 69.4699V69.4699C330.994 69.9297 332 70.1772 333.03 70.1818C334.06 70.1864 335.07 69.9481 335.933 69.4961L342.542 66.3506" stroke="#A50000" stroke-width="3.71269" stroke-miterlimit="10" stroke-linecap="round"/>
</g>
</g>
<defs>
<clipPath id="clip0_2474_5043">
<rect width="132" height="93" fill="white" transform="translate(227 12)"/>
</clipPath>
</defs>
</svg>
