<svg width="148" height="125" viewBox="0 0 148 125" fill="none" xmlns="http://www.w3.org/2000/svg">
<g clip-path="url(#clip0_1692_4880)">
<path d="M124.402 73.7466L127.855 72.0644C128.028 71.9766 128.22 71.9343 128.414 71.9415C128.607 71.9488 128.796 72.0052 128.962 72.1056C129.127 72.206 129.265 72.347 129.361 72.5153C129.457 72.6836 129.508 72.8735 129.511 73.0673L129.535 73.9494C129.539 74.2193 129.639 74.4788 129.817 74.6817C129.995 74.8847 130.239 75.0179 130.506 75.0577L133.032 75.4565C133.311 75.5019 133.563 75.6474 133.741 75.8656C133.92 76.0838 134.012 76.3597 134.002 76.6414L133.948 77.9993C133.934 78.2812 134.025 78.5584 134.204 78.7769C134.383 78.9954 134.636 79.1399 134.916 79.1822L137.296 79.5688C137.594 79.6151 137.861 79.7771 138.039 80.0196C138.218 80.2621 138.293 80.5653 138.249 80.863L138.175 81.4294C138.136 81.7282 138.216 82.0305 138.397 82.2715C138.578 82.5125 138.846 82.6732 139.144 82.7191L140.994 83.0033C141.269 83.043 141.52 83.1822 141.7 83.3945C141.88 83.6068 141.976 83.8776 141.97 84.1558L141.961 85.061C141.957 85.2974 142.026 85.5291 142.159 85.7248C142.292 85.9205 142.481 86.0708 142.702 86.1553L144.076 86.6722C144.239 86.7314 144.385 86.8267 144.505 86.9509C144.625 87.0751 144.715 87.2249 144.769 87.389C144.822 87.5531 144.838 87.7272 144.814 87.8983C144.791 88.0693 144.729 88.2327 144.633 88.3762L142.688 91.3577C142.597 91.5014 142.475 91.623 142.331 91.7134C142.187 91.8039 142.025 91.8609 141.856 91.8804C141.687 91.8999 141.516 91.8813 141.355 91.826C141.194 91.7707 141.048 91.6801 140.926 91.5609L124.102 75.6292C123.966 75.5002 123.863 75.3399 123.802 75.1621C123.742 74.9843 123.725 74.7944 123.755 74.6088C123.784 74.4233 123.859 74.2478 123.971 74.0976C124.084 73.9473 124.232 73.8268 124.402 73.7466Z" fill="#007D1C" stroke="#303030" stroke-width="1.28218" stroke-miterlimit="10"/>
<path d="M106.512 92.6344L105.021 96.1739C104.942 96.3512 104.911 96.5455 104.928 96.7384C104.946 96.9314 105.013 97.1167 105.122 97.2767C105.231 97.4367 105.38 97.5662 105.553 97.653C105.726 97.7398 105.919 97.781 106.112 97.7727L106.994 97.7486C107.264 97.7384 107.529 97.8243 107.741 97.9909C107.953 98.1574 108.1 98.394 108.154 98.6583L108.686 101.167C108.742 101.444 108.9 101.691 109.128 101.858C109.356 102.025 109.638 102.102 109.92 102.073L111.273 101.945C111.553 101.916 111.835 101.992 112.063 102.159C112.291 102.325 112.449 102.57 112.507 102.847L113.022 105.203C113.085 105.498 113.261 105.755 113.513 105.92C113.765 106.085 114.071 106.144 114.366 106.083L114.93 105.977C115.077 105.948 115.228 105.949 115.375 105.978C115.521 106.008 115.661 106.066 115.785 106.149C115.91 106.233 116.016 106.34 116.099 106.465C116.182 106.589 116.24 106.729 116.268 106.876L116.653 108.708C116.708 108.981 116.86 109.224 117.082 109.392C117.304 109.56 117.579 109.641 117.857 109.62L118.762 109.559C118.998 109.541 119.234 109.597 119.437 109.719C119.64 109.841 119.8 110.023 119.895 110.24L120.486 111.584C120.554 111.743 120.657 111.884 120.788 111.997C120.918 112.11 121.073 112.192 121.239 112.237C121.406 112.281 121.581 112.287 121.75 112.254C121.92 112.222 122.08 112.151 122.218 112.047L125.089 109.943C125.227 109.844 125.341 109.716 125.423 109.567C125.505 109.419 125.553 109.254 125.563 109.084C125.573 108.915 125.545 108.745 125.482 108.588C125.418 108.43 125.319 108.289 125.194 108.175L108.37 92.2432C108.236 92.1114 108.072 92.0149 107.891 91.9621C107.711 91.9094 107.52 91.9021 107.336 91.9408C107.152 91.9795 106.981 92.0631 106.837 92.1841C106.694 92.3051 106.582 92.4598 106.512 92.6344Z" fill="#007D1C" stroke="#303030" stroke-width="1.28218" stroke-miterlimit="10"/>
<path d="M140.525 88.2529L127.33 75.7575C125.346 73.8792 122.216 73.9644 120.337 75.948L108.355 88.6011C106.477 90.5847 106.562 93.7154 108.546 95.5937L121.741 108.089C123.724 109.967 126.855 109.882 128.733 107.899L140.715 95.2455C142.594 93.2619 142.509 90.1312 140.525 88.2529Z" fill="#007D1C" stroke="#303030" stroke-width="1.24229" stroke-miterlimit="10"/>
<path d="M135.391 93.373L122.498 81.1637C122.059 80.7482 121.366 80.7671 120.951 81.2058L118.145 84.1684C117.73 84.6072 117.749 85.2997 118.187 85.7152L131.081 97.9245C131.519 98.34 132.212 98.3212 132.627 97.8824L135.433 94.9198C135.848 94.481 135.829 93.7885 135.391 93.373Z" fill="#F5F5F5"/>
</g>
<path d="M6.86122 21.6642L7.17119 21.3352C7.81231 20.6548 8.88359 20.623 9.56397 21.2641L52.0955 61.3414C52.7759 61.9825 52.8077 63.0538 52.1666 63.7342L51.8566 64.0631C51.2155 64.7435 50.1442 64.7753 49.4638 64.1342L6.93231 24.0569C6.25193 23.4158 6.2201 22.3445 6.86122 21.6642Z" fill="#2D1A00" stroke="#261200" stroke-width="2.04857" stroke-miterlimit="10"/>
<path d="M11.2785 28.1656L13.9102 25.3728L17.0133 28.2969L14.3816 31.0897L11.2785 28.1656Z" fill="white" stroke="#261200" stroke-width="2.04857" stroke-miterlimit="10"/>
<path d="M3.03009 31.2067L3.30529 30.8481C3.87451 30.1065 4.93712 29.9668 5.67871 30.536L52.0363 66.1181C52.7779 66.6873 52.9177 67.7499 52.3485 68.4915L52.0733 68.8501C51.504 69.5917 50.4414 69.7314 49.6998 69.1622L3.34222 33.5801C2.60063 33.0109 2.46088 31.9483 3.03009 31.2067Z" fill="#2D1A00" stroke="#261200" stroke-width="2.04857" stroke-miterlimit="10"/>
<path d="M8.08539 37.2259L10.4219 34.1819L13.8042 36.778L11.4677 39.822L8.08539 37.2259Z" fill="white" stroke="#261200" stroke-width="2.04857" stroke-miterlimit="10"/>
<path d="M51.1106 44.1102C51.1106 44.1102 65.6956 28.8298 85.91 30.3246C106.124 31.8194 118.031 32.9217 126.079 48.4428C134.127 63.9638 85.0327 61.4233 85.0327 61.4233L47.2081 65.165L51.1106 44.1102Z" fill="#F9B72D" stroke="#8E4700" stroke-width="1.80756" stroke-miterlimit="10"/>
<path d="M100.475 31.7328C100.475 31.7328 80.1656 31.0702 72.2222 36.0469C64.2787 41.0235 61.408 42.4125 61.408 42.4125" fill="#F9B72D"/>
<path d="M100.475 31.7328C100.475 31.7328 80.1656 31.0702 72.2222 36.0469C64.2787 41.0235 61.408 42.4125 61.408 42.4125" stroke="#8E4700" stroke-width="1.80756" stroke-miterlimit="10"/>
<path d="M68.5342 44.1963C68.5342 44.1963 72.2202 37.0181 89.1656 34.9639C106.111 32.9097 105.461 37.4245 105.461 37.4245" fill="#F9B72D"/>
<path d="M68.5342 44.1963C68.5342 44.1963 72.2202 37.0181 89.1656 34.9639C106.111 32.9097 105.461 37.4245 105.461 37.4245" stroke="#8E4700" stroke-width="1.80756" stroke-miterlimit="10"/>
<path d="M73.2742 45.1653C73.2742 45.1653 75.7964 40.5283 84.9328 39.3383L73.2742 45.1653Z" fill="#F9B72D"/>
<path d="M73.2742 45.1653C73.2742 45.1653 75.7964 40.5283 84.9328 39.3383" stroke="#8E4700" stroke-width="1.80756" stroke-miterlimit="10"/>
<path d="M32.2918 52.3473C32.2918 52.3473 35.0412 37.9108 54.7187 41.134C74.3961 44.3572 77.4158 49.2177 88.7926 46.156C100.169 43.0943 66.6936 57.3611 66.6936 57.3611C66.6936 57.3611 40.3428 61.9984 32.2918 52.3473Z" fill="#F9B72D" stroke="#8E4700" stroke-width="1.80756" stroke-miterlimit="10"/>
<path d="M67.674 55.4733C81.6715 51.9527 81.9175 49.9136 84.6921 43.7695C87.4668 37.6253 95.0156 36.241 95.0156 36.241" fill="#F9B72D"/>
<path d="M67.674 55.4733C81.6715 51.9527 81.9175 49.9136 84.6921 43.7695C87.4668 37.6253 95.0156 36.241 95.0156 36.241" stroke="#8E4700" stroke-width="1.80756" stroke-miterlimit="10"/>
<path d="M26.3989 58.4313C26.3989 58.4313 30.004 48.4242 44.6442 51.2447C59.2844 54.0652 61.1053 58.2742 66.703 57.3603C72.3008 56.4465 52.7311 60.9023 52.7311 60.9023L26.3989 58.4313Z" fill="#F9B72D" stroke="#8E4700" stroke-width="1.80756" stroke-miterlimit="10"/>
<path d="M23.9424 68.1318C23.9424 68.1318 24.3378 49.983 38.0127 53.8041C51.6877 57.6252 50.7184 61.4876 58.6248 61.013C66.5313 60.5384 74.8351 63.2941 74.8351 63.2941L23.9424 68.1318Z" fill="#F9B72D" stroke="#8E4700" stroke-width="1.80756" stroke-miterlimit="10"/>
<path d="M24.2411 63.9584C24.2411 63.9584 33.2295 56.2412 41.1281 59.1276C49.0267 62.014 58.8683 63.677 58.8683 63.677" fill="#F9B72D"/>
<path d="M24.2411 63.9583C24.2411 63.9583 33.2295 56.2412 41.1281 59.1276C49.0267 62.014 58.8683 63.677 58.8683 63.677" stroke="#8E4700" stroke-width="1.80756" stroke-miterlimit="10"/>
<path d="M23.9417 68.1328C23.9417 68.1328 30.3755 61.9678 37.2046 63.7499C41.7343 64.8957 46.3238 65.7906 50.9521 66.4306" fill="#F9B72D"/>
<path d="M23.9417 68.1328C23.9417 68.1328 30.3755 61.9678 37.2046 63.7499C41.7343 64.8957 46.3238 65.7906 50.9521 66.4306" stroke="#8E4700" stroke-width="1.80756" stroke-miterlimit="10"/>
<path d="M126.23 48.9795C126.136 48.6293 125.939 48.3152 125.666 48.0773C110.948 35.3572 90.324 32.4074 82.1376 41.6377C73.8761 50.9554 73.3102 54.9606 61.5675 57.114C50.4623 59.1506 45.666 61.7641 44.0865 65.0881C43.9237 65.434 43.8736 65.8222 43.9433 66.1981L44.2386 67.8085C44.3269 68.2836 44.6 68.7044 44.9981 68.9784C45.3961 69.2524 45.8866 69.3573 46.3619 69.2701L125.747 54.7121C125.995 54.6669 126.232 54.5705 126.441 54.429C126.65 54.2875 126.828 54.1039 126.962 53.8901C127.097 53.6763 127.185 53.4368 127.222 53.1869C127.259 52.937 127.243 52.6822 127.176 52.4386L126.23 48.9795Z" fill="#F9B72D" stroke="#8E4700" stroke-width="1.80756" stroke-miterlimit="10"/>
<path d="M109.893 38.7916C109.893 38.7916 96.5623 36.8234 90.7849 43.5182C85.0075 50.213 87.1075 54.5963 76.2805 57.0153C65.4535 59.4343 60.3092 62.1116 60.5399 63.3698" fill="#F9B72D"/>
<path d="M109.893 38.7916C109.893 38.7916 96.5623 36.8234 90.7849 43.5182C85.0075 50.213 87.1075 54.5963 76.2805 57.0153C65.4535 59.4343 60.3092 62.1116 60.5399 63.3698" stroke="#8E4700" stroke-width="1.80756" stroke-miterlimit="10"/>
<path d="M116.541 41.7735C116.541 41.7735 106.588 40.1873 100.185 43.0953C93.7828 46.0034 93.1748 47.4153 91.4276 52.0706C89.6804 56.7259 84.6899 60.242 79.2379 61.2418" fill="#F9B72D"/>
<path d="M116.541 41.7735C116.541 41.7735 106.588 40.1873 100.185 43.0953C93.7828 46.0034 93.1748 47.4153 91.4276 52.0706C89.6804 56.7259 84.6899 60.242 79.2379 61.2418" stroke="#8E4700" stroke-width="1.80756" stroke-miterlimit="10"/>
<path d="M122.214 45.3499C122.214 45.3499 109.256 42.9795 103.465 48.0383C97.6733 53.0971 103.598 59.2845 95.369 60.6245" fill="#F9B72D"/>
<path d="M122.214 45.3499C122.214 45.3499 109.256 42.9795 103.465 48.0383C97.6733 53.0971 103.598 59.2845 95.369 60.6245" stroke="#8E4700" stroke-width="1.80756" stroke-miterlimit="10"/>
<path d="M35.3044 46.4494C35.3044 46.4494 40.9231 41.4657 49.4838 44.417C58.0445 47.3684 59.0176 51.256 72.5701 52.5897" fill="#F9B72D"/>
<path d="M35.3044 46.4494C35.3044 46.4494 40.9231 41.4657 49.4838 44.417C58.0445 47.3684 59.0176 51.256 72.5701 52.5897" stroke="#8E4700" stroke-width="1.80756" stroke-miterlimit="10"/>
<path d="M49.9006 98.7013C52.554 113.17 67.1084 115.807 83.9005 112.727C100.693 109.648 113.364 102.018 110.711 87.5496L49.9006 98.7013Z" fill="black" stroke="#303030" stroke-width="1.80756" stroke-miterlimit="10"/>
<path d="M23.9438 68.1312C23.5537 68.2012 23.1823 68.3509 22.8526 68.5709C22.523 68.7909 22.2422 69.0766 22.0279 69.41C21.8136 69.7434 21.6705 70.1175 21.6073 70.5087C21.5441 70.9 21.5622 71.3001 21.6607 71.684C27.8389 95.186 54.3067 109.813 82.422 104.657C110.537 99.5012 130.093 76.4342 127.534 52.2685C127.489 51.8746 127.364 51.4941 127.166 51.1507C126.969 50.8074 126.702 50.5085 126.383 50.2728C126.065 50.0371 125.701 49.8696 125.315 49.7809C124.928 49.6922 124.528 49.684 124.138 49.7571L23.9438 68.1312Z" fill="black" stroke="#303030" stroke-width="1.80756" stroke-miterlimit="10"/>
<path d="M51.4924 50.2599C50.5033 49.9439 49.9274 48.9803 50.2062 48.1075C50.485 47.2348 51.5128 46.7833 52.502 47.0993C53.4911 47.4153 54.067 48.3789 53.7882 49.2517C53.5094 50.1245 52.4815 50.5758 51.4924 50.2599Z" stroke="#86A71B" stroke-width="1.57489" stroke-miterlimit="10"/>
<path d="M104.083 44.332C102.925 44.5444 101.883 44.1532 101.756 43.4584C101.628 42.7635 102.464 42.0281 103.622 41.8157C104.78 41.6033 105.822 41.9944 105.949 42.6893C106.077 43.3842 105.241 44.1196 104.083 44.332Z" stroke="#86A71B" stroke-width="1.5786" stroke-miterlimit="10"/>
<path d="M37.2851 58.3157C36.3587 58.4856 35.5215 58.1539 35.4153 57.5749C35.3092 56.9958 35.9741 56.3887 36.9006 56.2188C37.8271 56.0489 38.6642 56.3805 38.7704 56.9596C38.8766 57.5386 38.2116 58.1458 37.2851 58.3157Z" stroke="#86A71B" stroke-width="1.5786" stroke-miterlimit="10"/>
<path d="M54.2844 43.3491C51.9718 41.574 51.3373 38.5193 52.8671 36.5262C54.397 34.533 57.5119 34.3562 59.8244 36.1312C62.137 37.9063 62.7715 40.961 61.2417 42.9541C59.7118 44.9473 56.5969 45.1241 54.2844 43.3491Z" fill="white" stroke="#FF895A" stroke-width="1.20504" stroke-miterlimit="10"/>
<path d="M54.36 39.1191C54.36 39.1191 55.3962 36.7096 57.3839 37.4548C59.3715 38.2 60.2533 40.999 58.5279 41.6839C56.8025 42.3688 55.7494 40.7153 55.815 39.962C55.8806 39.2087 56.7277 38.0607 57.5617 39.5116C58.3956 40.9626 57.6181 40.741 57.6181 40.741" fill="white"/>
<path d="M54.36 39.1191C54.36 39.1191 55.3962 36.7096 57.3839 37.4548C59.3715 38.2 60.2533 40.999 58.5279 41.6839C56.8025 42.3688 55.7494 40.7153 55.815 39.962C55.8806 39.2087 56.7277 38.0607 57.5617 39.5116C58.3956 40.9626 57.6181 40.741 57.6181 40.741" stroke="#FF9779" stroke-width="0.341429" stroke-miterlimit="10"/>
<path d="M60.9153 46.9157C58.6664 45.0167 58.629 41.3623 60.8319 38.7535C63.0348 36.1447 66.6438 35.5694 68.8927 37.4684C71.1417 39.3675 71.179 43.0218 68.9761 45.6306C66.7732 48.2394 63.1643 48.8148 60.9153 46.9157Z" fill="white" stroke="#FF895A" stroke-width="1.20504" stroke-miterlimit="10"/>
<path d="M64.0326 45.3261C64.0326 45.3261 61.2677 43.9822 62.2485 41.6956C63.2293 39.409 66.5535 38.5306 67.2472 40.5882C67.941 42.6457 65.9569 43.7638 65.0819 43.6729C64.2069 43.5819 62.8988 42.4997 64.6471 41.5852C66.3954 40.6707 66.0913 41.5891 66.0913 41.5891" fill="white"/>
<path d="M64.0326 45.3261C64.0326 45.3261 61.2677 43.9822 62.2485 41.6956C63.2293 39.409 66.5535 38.5306 67.2472 40.5882C67.941 42.6457 65.9569 43.7638 65.0819 43.6729C64.2069 43.5819 62.8988 42.4997 64.6471 41.5852C66.3954 40.6707 66.0913 41.5891 66.0913 41.5891" stroke="#FF9779" stroke-width="0.401681" stroke-miterlimit="10"/>
<path d="M79.9285 49.2221C78.9475 48.3765 79.2763 46.3868 80.6631 44.7779C82.0498 43.169 83.9692 42.5502 84.9502 43.3957C85.9313 44.2413 85.6024 46.231 84.2157 47.8399C82.829 49.4488 80.9095 50.0676 79.9285 49.2221Z" stroke="#86A71B" stroke-width="1.5786" stroke-miterlimit="10"/>
<path d="M83.2426 37.8675C80.1475 34.5428 81.4835 28.268 86.2267 23.8523C90.9699 19.4367 97.3241 18.5523 100.419 21.8771C103.514 25.2018 102.178 31.4766 97.4351 35.8922C92.6919 40.3078 86.3377 41.1922 83.2426 37.8675Z" fill="white" stroke="#A5A5A5" stroke-width="1.80756" stroke-miterlimit="10"/>
<path d="M81.3993 36.1376C78.8481 33.3971 80.6251 27.596 85.3683 23.1803C90.1115 18.7647 96.0248 17.4067 98.576 20.1471C101.127 22.8876 99.3502 28.6887 94.607 33.1044C89.8638 37.52 83.9505 38.878 81.3993 36.1376Z" fill="white" stroke="#A5A5A5" stroke-width="1.80756" stroke-miterlimit="10"/>
<path d="M83.1098 32.7994C81.9626 31.5671 82.7623 28.9578 84.8961 26.9714C87.0298 24.985 89.6896 24.3737 90.8368 25.6061C91.984 26.8384 91.1843 29.4477 89.0506 31.4341C86.9168 33.4205 84.257 34.0318 83.1098 32.7994Z" fill="#F9E100" stroke="#A5A5A5" stroke-width="1.80756" stroke-miterlimit="10"/>
<path d="M126.496 60.1616L123.765 63.4237C123.214 63.9456 122.547 64.3306 121.82 64.5476C121.092 64.7646 120.324 64.8075 119.577 64.6729L118.368 64.4612C117.655 64.3315 116.922 64.3638 116.223 64.5557C115.525 64.7476 114.878 65.0942 114.332 65.5699L111.636 67.9151C111.064 68.4127 110.382 68.7686 109.646 68.9539C108.911 69.1393 108.142 69.1489 107.402 68.9821L104.124 68.2438C103.418 68.0865 102.686 68.0886 101.982 68.2501C101.277 68.4115 100.617 68.7282 100.051 69.1771L95.832 72.5517C95.1915 73.065 94.4306 73.4063 93.6213 73.5434C92.812 73.6804 91.981 73.6086 91.2073 73.3347L88.9194 72.5362C88.0558 72.2337 87.124 72.1827 86.2325 72.3892C85.341 72.5956 84.5265 73.0511 83.8838 73.7024L82.1429 75.4609C81.5117 76.1017 80.714 76.5534 79.8398 76.765C78.9657 76.9766 78.0497 76.9398 77.1953 76.6586L73.8652 75.5657C73.0497 75.2977 72.1776 75.2516 71.3384 75.4321C70.4992 75.6127 69.7233 76.0134 69.0902 76.5931L67.1559 78.361C66.5006 78.9623 65.692 79.371 64.8191 79.5418C63.9462 79.7125 63.0432 79.6388 62.2096 79.3287L58.9525 78.1141C58.2801 77.865 57.5608 77.7687 56.8467 77.8322C56.1325 77.8957 55.4414 78.1174 54.8236 78.4811L50.6792 80.9144C50.0846 81.2637 49.4221 81.4817 48.7361 81.5537C48.0502 81.6256 47.3568 81.5499 46.7027 81.3315L42.3353 79.8783C41.4966 79.5982 40.597 79.5538 39.7348 79.7502C38.8726 79.9465 38.0808 80.376 37.4461 80.9916V80.9916C36.766 81.6498 35.9079 82.0944 34.978 82.2703C34.048 82.4462 33.0869 82.3459 32.2134 81.9816L25.5938 79.5456" stroke="#A50000" stroke-width="3.21344" stroke-miterlimit="10" stroke-linecap="round"/>
<path d="M46.9453 28.7811C47.2633 28.991 47.5117 29.2908 47.6589 29.6422C47.806 29.9937 47.8453 30.381 47.7717 30.7549C47.6061 31.5033 47.1998 32.177 46.615 32.6726C45.7969 33.433 44.5223 33.9614 43.5965 33.3354C42.8444 34.7105 41.8855 36.2327 40.3353 36.4892C39.8514 36.5634 39.3578 36.5468 38.88 36.4403C37.802 36.1849 36.684 35.6556 36.4127 34.6037C36.1414 33.5519 36.9199 32.4413 37.6667 31.5508C37.7422 31.4764 37.793 31.3807 37.8125 31.2766C37.8412 31.0665 37.6203 30.9253 37.4692 30.7882C36.9115 30.308 36.5122 29.6702 36.3235 28.9588C36.1349 28.2474 36.1658 27.4956 36.4123 26.8021C36.6743 26.1148 37.0692 25.486 37.5743 24.9514C38.0795 24.4168 38.6851 23.987 39.3564 23.6865C39.8197 23.4156 40.3369 23.2501 40.8713 23.2016C41.4057 23.1531 41.9443 23.2229 42.4487 23.406C42.9394 23.6707 43.3706 24.0331 43.716 24.4707C44.6513 25.5455 45.4269 26.7495 46.0188 28.0456L46.9453 28.7811Z" fill="white"/>
<path d="M33.1743 26.6225C33.3563 26.7603 33.4952 26.9471 33.5749 27.161C33.6545 27.3749 33.6715 27.6071 33.6239 27.8303C33.523 28.2802 33.2648 28.6793 32.8958 28.9557C32.5165 29.2559 32.0634 29.4484 31.584 29.5129C31.1046 29.5773 30.6168 29.5114 30.1717 29.3221C29.7337 29.1198 29.3658 28.7917 29.1147 28.3797C28.8637 27.9677 28.7408 27.4903 28.7618 27.0083C28.1489 27.124 27.6764 26.4612 27.5312 25.856C27.2919 24.8627 27.5814 23.6308 28.5118 23.2147C28.7568 23.1128 29.0195 23.0603 29.2849 23.0601C29.5502 23.06 29.813 23.1122 30.0581 23.2138C30.5467 23.4363 30.9869 23.7526 31.3536 24.1447C31.4769 23.9807 31.6327 23.844 31.8115 23.7433C31.9903 23.6426 32.188 23.5801 32.3922 23.5598C32.5963 23.5394 32.8025 23.5617 32.9976 23.6251C33.1927 23.6885 33.3726 23.7917 33.5258 23.9281C34.5145 25.0861 33.1743 26.6225 33.1743 26.6225Z" fill="white"/>
<defs>
<clipPath id="clip0_1692_4880">
<rect width="29.3077" height="37.1005" fill="white" transform="translate(126.719 68.3047) rotate(43.4396)"/>
</clipPath>
</defs>
</svg>
