<svg width="19" height="26" viewBox="0 0 19 26" fill="none" xmlns="http://www.w3.org/2000/svg">
<path d="M0.801563 25.9749C0.35625 25.9454 0 25.5617 0 25.0894V2.06619C0 0.944543 0.95 0 2.07812 0H16.9219C18.05 0 19 0.944543 19 2.06619V25.0894C19 25.5912 18.6141 25.9749 18.1094 25.9749C17.9312 25.9749 17.7531 25.9159 17.6047 25.8273L9.47031 20.2486L1.36562 25.7978C1.21719 25.9159 1.00938 25.9749 0.801563 25.9749ZM1.75156 23.3774L8.96563 18.4186C9.2625 18.212 9.67812 18.212 9.975 18.4186L17.1891 23.3774V2.03666C17.1891 1.85956 17.0703 1.74149 16.8922 1.74149H2.04844C1.87031 1.74149 1.75156 1.85956 1.75156 2.03666C1.75156 2.03666 1.75156 23.3774 1.75156 23.3774Z" fill="#B8B8B8"/>
</svg>
