<svg width="23" height="23" viewBox="0 0 23 23" fill="none" xmlns="http://www.w3.org/2000/svg">
<path d="M9.17628 21.4283C7.08073 23.5238 3.66713 23.5239 1.57162 21.4284C-0.523901 19.3329 -0.523867 15.9193 1.57168 13.8237L5.79652 9.59888C7.89207 7.50333 11.3057 7.50331 13.4012 9.59882C13.4863 9.68162 13.5541 9.7805 13.6007 9.88972C13.6472 9.99895 13.6716 10.1163 13.6725 10.2351C13.6733 10.3538 13.6505 10.4715 13.6054 10.5814C13.5604 10.6913 13.4939 10.7911 13.41 10.875C13.326 10.959 13.2262 11.0255 13.1163 11.0705C13.0065 11.1156 12.8887 11.1384 12.77 11.1375C12.6513 11.1367 12.5339 11.1123 12.4246 11.0658C12.3154 11.0192 12.2165 10.9514 12.1337 10.8663C10.7184 9.45099 8.47925 9.45102 7.06395 10.8663L2.83911 15.0912C1.42381 16.5065 1.4238 18.7457 2.83908 20.161C4.25436 21.5762 6.49354 21.5762 7.90885 20.1609L11.9224 16.1473C12.0052 16.0622 12.1041 15.9944 12.2134 15.9478C12.3226 15.9012 12.44 15.8768 12.5587 15.876C12.6775 15.8752 12.7952 15.898 12.905 15.9431C13.0149 15.9881 13.1147 16.0546 13.1987 16.1385C13.2826 16.2225 13.3491 16.3223 13.3941 16.4321C13.4392 16.542 13.462 16.6597 13.4612 16.7784C13.4603 16.8972 13.4359 17.0146 13.3894 17.1238C13.3428 17.233 13.275 17.3319 13.1899 17.4147L9.17628 21.4283ZM17.2035 13.4011C15.1079 15.4967 11.6943 15.4967 9.59883 13.4012C9.51374 13.3184 9.44595 13.2195 9.3994 13.1103C9.35284 13.0011 9.32846 12.8837 9.32765 12.7649C9.32684 12.6462 9.34963 12.5285 9.3947 12.4187C9.43976 12.3088 9.5062 12.209 9.59015 12.1251C9.67411 12.0411 9.77391 11.9747 9.88375 11.9296C9.9936 11.8845 10.1113 11.8618 10.23 11.8626C10.3488 11.8634 10.4661 11.8877 10.5754 11.9343C10.6846 11.9808 10.7835 12.0486 10.8663 12.1337C12.2816 13.549 14.5208 13.549 15.936 12.1337L20.1609 7.90885C21.5762 6.49354 21.5762 4.25436 20.1609 2.83908C18.7457 1.4238 16.5065 1.4238 15.0912 2.8391L11.0776 6.85271C10.9948 6.93786 10.8959 7.00571 10.7866 7.05232C10.6774 7.09892 10.56 7.12334 10.4412 7.12418C10.3225 7.12501 10.2047 7.10225 10.0948 7.05719C9.98495 7.01212 9.88512 6.94566 9.80115 6.86168C9.71717 6.77771 9.65072 6.67788 9.60565 6.56799C9.56059 6.45811 9.53782 6.34037 9.53865 6.22161C9.53949 6.10285 9.56392 5.98543 9.61052 5.87619C9.65712 5.76695 9.72497 5.66806 9.81012 5.58527L13.8237 1.57167C15.9193 -0.523869 19.3329 -0.523896 21.4284 1.57162C23.5239 3.66712 23.5239 7.08072 21.4283 9.17627L17.2035 13.4011Z" fill="#B8B8B8"/>
</svg>
